G04 EAGLE Gerber RS-274X export*
G75*
%MOMM*%
%FSLAX34Y34*%
%LPD*%
%INTop Copper*%
%IPPOS*%
%AMOC8*
5,1,8,0,0,1.08239X$1,22.5*%
G01*
%ADD10R,0.850000X0.900000*%
%ADD11R,1.800000X1.600000*%
%ADD12C,1.879600*%
%ADD13R,0.600000X0.600000*%
%ADD14R,0.900000X1.500000*%
%ADD15R,1.500000X0.900000*%
%ADD16R,0.900000X0.900000*%
%ADD17R,1.310000X0.600000*%
%ADD18R,2.100000X3.300000*%
%ADD19C,0.139500*%
%ADD20C,0.196500*%
%ADD21C,1.651000*%
%ADD22R,1.651000X1.651000*%
%ADD23R,0.635000X1.270000*%
%ADD24C,1.879600*%
%ADD25C,0.457200*%
%ADD26C,1.422400*%
%ADD27C,1.412800*%

G36*
X339051Y247786D02*
X339051Y247786D01*
X339139Y247785D01*
X339263Y247806D01*
X339388Y247818D01*
X339473Y247842D01*
X339560Y247857D01*
X339678Y247901D01*
X339799Y247936D01*
X339877Y247976D01*
X339960Y248007D01*
X340068Y248072D01*
X340180Y248129D01*
X340250Y248182D01*
X340325Y248228D01*
X340454Y248339D01*
X340518Y248389D01*
X340542Y248415D01*
X340579Y248447D01*
X361153Y269021D01*
X361209Y269089D01*
X361272Y269150D01*
X361324Y269223D01*
X361370Y269275D01*
X361389Y269306D01*
X361425Y269350D01*
X361468Y269427D01*
X361519Y269499D01*
X361562Y269594D01*
X361590Y269641D01*
X361599Y269664D01*
X361632Y269724D01*
X361659Y269807D01*
X361696Y269888D01*
X361724Y270004D01*
X361738Y270041D01*
X361741Y270054D01*
X361765Y270130D01*
X361777Y270217D01*
X361798Y270303D01*
X361810Y270473D01*
X361821Y270553D01*
X361819Y270589D01*
X361822Y270637D01*
X361822Y656463D01*
X361814Y656551D01*
X361815Y656639D01*
X361794Y656763D01*
X361782Y656888D01*
X361758Y656973D01*
X361743Y657060D01*
X361699Y657178D01*
X361664Y657299D01*
X361624Y657377D01*
X361593Y657460D01*
X361528Y657568D01*
X361471Y657680D01*
X361418Y657750D01*
X361372Y657825D01*
X361261Y657954D01*
X361211Y658018D01*
X361185Y658042D01*
X361153Y658079D01*
X353279Y665953D01*
X353211Y666009D01*
X353150Y666072D01*
X353047Y666145D01*
X352950Y666225D01*
X352873Y666268D01*
X352801Y666319D01*
X352686Y666371D01*
X352576Y666432D01*
X352493Y666459D01*
X352412Y666496D01*
X352290Y666526D01*
X352170Y666565D01*
X352083Y666577D01*
X351997Y666598D01*
X351827Y666610D01*
X351747Y666621D01*
X351711Y666619D01*
X351663Y666622D01*
X344620Y666622D01*
X344504Y666611D01*
X344387Y666610D01*
X344292Y666591D01*
X344194Y666582D01*
X344082Y666550D01*
X343968Y666527D01*
X343878Y666491D01*
X343784Y666464D01*
X343680Y666411D01*
X343572Y666368D01*
X343490Y666315D01*
X343403Y666271D01*
X343311Y666200D01*
X343212Y666138D01*
X343141Y666071D01*
X343064Y666011D01*
X342987Y665924D01*
X342902Y665844D01*
X342845Y665765D01*
X342780Y665692D01*
X342720Y665593D01*
X342651Y665498D01*
X342610Y665410D01*
X342560Y665326D01*
X342519Y665217D01*
X342470Y665112D01*
X342445Y665017D01*
X342412Y664926D01*
X342392Y664811D01*
X342363Y664698D01*
X342357Y664601D01*
X342341Y664505D01*
X342343Y664388D01*
X342335Y664272D01*
X342347Y664175D01*
X342349Y664078D01*
X342373Y663964D01*
X342387Y663848D01*
X342417Y663755D01*
X342437Y663660D01*
X342482Y663552D01*
X342517Y663441D01*
X342564Y663355D01*
X342601Y663265D01*
X342665Y663168D01*
X342721Y663066D01*
X342782Y662990D01*
X342836Y662909D01*
X342917Y662825D01*
X342990Y662735D01*
X343082Y662654D01*
X343133Y662602D01*
X343180Y662569D01*
X343242Y662513D01*
X349501Y657787D01*
X354221Y650164D01*
X355869Y641350D01*
X354221Y632536D01*
X349501Y624913D01*
X342345Y619509D01*
X333721Y617055D01*
X324793Y617883D01*
X316766Y621879D01*
X310726Y628506D01*
X307487Y636867D01*
X307487Y645833D01*
X310726Y654194D01*
X316766Y660820D01*
X319720Y662291D01*
X319817Y662351D01*
X319919Y662403D01*
X319998Y662464D01*
X320083Y662517D01*
X320167Y662594D01*
X320257Y662663D01*
X320324Y662738D01*
X320398Y662805D01*
X320466Y662897D01*
X320542Y662982D01*
X320593Y663067D01*
X320653Y663148D01*
X320703Y663250D01*
X320762Y663348D01*
X320796Y663442D01*
X320840Y663532D01*
X320870Y663641D01*
X320910Y663748D01*
X320927Y663847D01*
X320953Y663944D01*
X320962Y664057D01*
X320981Y664169D01*
X320979Y664270D01*
X320987Y664370D01*
X320975Y664483D01*
X320972Y664596D01*
X320952Y664695D01*
X320941Y664794D01*
X320908Y664903D01*
X320884Y665014D01*
X320846Y665107D01*
X320817Y665203D01*
X320764Y665304D01*
X320720Y665409D01*
X320665Y665492D01*
X320619Y665581D01*
X320548Y665670D01*
X320485Y665766D01*
X320416Y665838D01*
X320354Y665916D01*
X320268Y665991D01*
X320189Y666072D01*
X320107Y666130D01*
X320031Y666196D01*
X319933Y666253D01*
X319840Y666319D01*
X319748Y666360D01*
X319662Y666411D01*
X319555Y666449D01*
X319451Y666496D01*
X319354Y666520D01*
X319259Y666553D01*
X319147Y666571D01*
X319036Y666598D01*
X318911Y666607D01*
X318837Y666618D01*
X318782Y666616D01*
X318702Y666622D01*
X-29337Y666622D01*
X-29466Y666610D01*
X-29596Y666608D01*
X-29679Y666590D01*
X-29762Y666582D01*
X-29887Y666546D01*
X-30014Y666520D01*
X-30092Y666487D01*
X-30173Y666464D01*
X-30289Y666405D01*
X-30409Y666355D01*
X-30479Y666309D01*
X-30554Y666271D01*
X-30657Y666192D01*
X-30766Y666121D01*
X-30826Y666062D01*
X-30893Y666011D01*
X-30979Y665914D01*
X-31072Y665824D01*
X-31121Y665755D01*
X-31177Y665692D01*
X-31244Y665581D01*
X-31319Y665475D01*
X-31354Y665398D01*
X-31397Y665326D01*
X-31442Y665205D01*
X-31496Y665086D01*
X-31516Y665005D01*
X-31545Y664926D01*
X-31567Y664798D01*
X-31598Y664671D01*
X-31605Y664570D01*
X-31616Y664505D01*
X-31615Y664439D01*
X-31622Y664337D01*
X-31622Y626121D01*
X-31608Y625971D01*
X-31602Y625820D01*
X-31588Y625759D01*
X-31582Y625696D01*
X-31540Y625551D01*
X-31507Y625404D01*
X-31482Y625346D01*
X-31464Y625286D01*
X-31396Y625151D01*
X-31335Y625013D01*
X-31300Y624961D01*
X-31271Y624905D01*
X-31179Y624785D01*
X-31094Y624660D01*
X-31050Y624616D01*
X-31011Y624566D01*
X-30899Y624465D01*
X-30792Y624359D01*
X-30740Y624323D01*
X-30692Y624281D01*
X-30563Y624204D01*
X-30438Y624119D01*
X-30380Y624094D01*
X-30326Y624061D01*
X-30185Y624009D01*
X-30046Y623949D01*
X-29985Y623935D01*
X-29926Y623913D01*
X-29777Y623888D01*
X-29630Y623855D01*
X-29567Y623853D01*
X-29505Y623842D01*
X-29354Y623845D01*
X-29203Y623840D01*
X-29141Y623850D01*
X-29078Y623851D01*
X-28930Y623882D01*
X-28781Y623905D01*
X-28710Y623928D01*
X-28660Y623939D01*
X-28589Y623968D01*
X-28462Y624010D01*
X-25231Y625349D01*
X-169Y625349D01*
X5619Y622951D01*
X10049Y618521D01*
X12447Y612733D01*
X12447Y606467D01*
X10049Y600679D01*
X7886Y598516D01*
X7803Y598416D01*
X7713Y598322D01*
X7667Y598252D01*
X7614Y598187D01*
X7551Y598073D01*
X7480Y597964D01*
X7448Y597887D01*
X7407Y597813D01*
X7366Y597690D01*
X7317Y597570D01*
X7300Y597487D01*
X7274Y597407D01*
X7257Y597278D01*
X7231Y597151D01*
X7229Y597067D01*
X7218Y596984D01*
X7226Y596854D01*
X7223Y596724D01*
X7238Y596641D01*
X7242Y596558D01*
X7274Y596431D01*
X7296Y596303D01*
X7325Y596225D01*
X7346Y596143D01*
X7400Y596025D01*
X7446Y595903D01*
X7489Y595831D01*
X7524Y595755D01*
X7599Y595649D01*
X7667Y595538D01*
X7734Y595461D01*
X7772Y595407D01*
X7819Y595361D01*
X7886Y595284D01*
X10049Y593121D01*
X12447Y587333D01*
X12447Y581067D01*
X10049Y575279D01*
X5553Y570783D01*
X5512Y570762D01*
X5394Y570667D01*
X5271Y570580D01*
X5227Y570534D01*
X5178Y570495D01*
X5080Y570381D01*
X4975Y570272D01*
X4941Y570219D01*
X4900Y570171D01*
X4824Y570041D01*
X4742Y569914D01*
X4718Y569856D01*
X4686Y569801D01*
X4637Y569659D01*
X4579Y569519D01*
X4566Y569458D01*
X4546Y569398D01*
X4523Y569249D01*
X4493Y569101D01*
X4492Y569038D01*
X4482Y568976D01*
X4488Y568825D01*
X4486Y568674D01*
X4496Y568612D01*
X4499Y568549D01*
X4532Y568402D01*
X4558Y568253D01*
X4580Y568194D01*
X4594Y568133D01*
X4655Y567995D01*
X4708Y567853D01*
X4740Y567799D01*
X4765Y567742D01*
X4851Y567617D01*
X4929Y567488D01*
X4978Y567431D01*
X5007Y567389D01*
X5061Y567335D01*
X5148Y567234D01*
X5804Y566578D01*
X6909Y565057D01*
X7762Y563383D01*
X8343Y561596D01*
X8343Y561593D01*
X-12192Y561593D01*
X-12321Y561581D01*
X-12451Y561579D01*
X-12533Y561561D01*
X-12617Y561553D01*
X-12742Y561517D01*
X-12869Y561491D01*
X-12947Y561458D01*
X-13027Y561435D01*
X-13144Y561376D01*
X-13263Y561326D01*
X-13334Y561280D01*
X-13409Y561242D01*
X-13512Y561163D01*
X-13620Y561092D01*
X-13681Y561033D01*
X-13747Y560982D01*
X-13834Y560885D01*
X-13927Y560795D01*
X-13976Y560726D01*
X-14032Y560663D01*
X-14099Y560552D01*
X-14174Y560446D01*
X-14208Y560369D01*
X-14252Y560297D01*
X-14297Y560176D01*
X-14351Y560057D01*
X-14371Y559976D01*
X-14400Y559897D01*
X-14421Y559769D01*
X-14452Y559642D01*
X-14460Y559541D01*
X-14471Y559476D01*
X-14470Y559410D01*
X-14477Y559308D01*
X-14477Y558292D01*
X-14465Y558163D01*
X-14462Y558033D01*
X-14445Y557950D01*
X-14437Y557867D01*
X-14401Y557742D01*
X-14374Y557615D01*
X-14342Y557537D01*
X-14319Y557456D01*
X-14260Y557340D01*
X-14210Y557220D01*
X-14164Y557150D01*
X-14126Y557075D01*
X-14047Y556972D01*
X-13976Y556863D01*
X-13917Y556803D01*
X-13866Y556736D01*
X-13769Y556650D01*
X-13679Y556556D01*
X-13610Y556508D01*
X-13547Y556452D01*
X-13436Y556385D01*
X-13330Y556310D01*
X-13253Y556275D01*
X-13181Y556232D01*
X-13059Y556187D01*
X-12941Y556133D01*
X-12859Y556113D01*
X-12781Y556084D01*
X-12652Y556062D01*
X-12526Y556031D01*
X-12424Y556024D01*
X-12359Y556013D01*
X-12294Y556014D01*
X-12192Y556007D01*
X8343Y556007D01*
X8343Y556004D01*
X7762Y554217D01*
X6909Y552543D01*
X5804Y551022D01*
X5148Y550366D01*
X5052Y550250D01*
X4949Y550139D01*
X4916Y550086D01*
X4876Y550037D01*
X4803Y549905D01*
X4723Y549777D01*
X4700Y549719D01*
X4669Y549664D01*
X4622Y549520D01*
X4567Y549380D01*
X4556Y549318D01*
X4536Y549258D01*
X4516Y549108D01*
X4488Y548960D01*
X4489Y548897D01*
X4480Y548834D01*
X4489Y548684D01*
X4489Y548533D01*
X4501Y548471D01*
X4505Y548408D01*
X4541Y548262D01*
X4569Y548113D01*
X4593Y548054D01*
X4608Y547993D01*
X4671Y547856D01*
X4726Y547716D01*
X4760Y547663D01*
X4786Y547605D01*
X4874Y547482D01*
X4954Y547355D01*
X4997Y547309D01*
X5034Y547257D01*
X5143Y547153D01*
X5246Y547043D01*
X5296Y547005D01*
X5342Y546962D01*
X5469Y546879D01*
X5554Y546816D01*
X10049Y542321D01*
X10412Y541445D01*
X10483Y541311D01*
X10546Y541174D01*
X10582Y541123D01*
X10612Y541067D01*
X10706Y540949D01*
X10793Y540826D01*
X10839Y540783D01*
X10878Y540733D01*
X10992Y540635D01*
X11101Y540530D01*
X11154Y540496D01*
X11202Y540455D01*
X11332Y540380D01*
X11459Y540297D01*
X11517Y540273D01*
X11572Y540242D01*
X11714Y540192D01*
X11854Y540134D01*
X11916Y540122D01*
X11975Y540101D01*
X12124Y540078D01*
X12272Y540048D01*
X12335Y540047D01*
X12397Y540038D01*
X12548Y540043D01*
X12699Y540041D01*
X12761Y540052D01*
X12824Y540054D01*
X12971Y540088D01*
X13120Y540113D01*
X13179Y540135D01*
X13241Y540150D01*
X13379Y540210D01*
X13520Y540263D01*
X13574Y540296D01*
X13632Y540321D01*
X13756Y540406D01*
X13885Y540484D01*
X13942Y540533D01*
X13984Y540562D01*
X14039Y540617D01*
X14139Y540703D01*
X30033Y556597D01*
X33207Y557912D01*
X49864Y557912D01*
X49993Y557924D01*
X50123Y557926D01*
X50206Y557944D01*
X50289Y557952D01*
X50414Y557988D01*
X50541Y558014D01*
X50619Y558047D01*
X50700Y558070D01*
X50816Y558129D01*
X50936Y558179D01*
X51006Y558225D01*
X51081Y558263D01*
X51184Y558342D01*
X51293Y558413D01*
X51353Y558472D01*
X51420Y558523D01*
X51506Y558620D01*
X51599Y558710D01*
X51648Y558779D01*
X51704Y558842D01*
X51771Y558953D01*
X51846Y559059D01*
X51881Y559136D01*
X51924Y559208D01*
X51969Y559329D01*
X52023Y559448D01*
X52043Y559529D01*
X52072Y559608D01*
X52094Y559736D01*
X52125Y559863D01*
X52132Y559964D01*
X52143Y560029D01*
X52142Y560095D01*
X52149Y560197D01*
X52149Y564944D01*
X52137Y565073D01*
X52135Y565203D01*
X52117Y565286D01*
X52109Y565369D01*
X52073Y565494D01*
X52047Y565621D01*
X52014Y565699D01*
X51991Y565780D01*
X51932Y565896D01*
X51882Y566016D01*
X51836Y566086D01*
X51798Y566161D01*
X51719Y566264D01*
X51648Y566373D01*
X51589Y566433D01*
X51538Y566500D01*
X51441Y566586D01*
X51351Y566679D01*
X51282Y566728D01*
X51219Y566784D01*
X51108Y566851D01*
X51002Y566926D01*
X50925Y566961D01*
X50853Y567004D01*
X50732Y567049D01*
X50613Y567103D01*
X50532Y567123D01*
X50453Y567152D01*
X50325Y567174D01*
X50198Y567205D01*
X50097Y567212D01*
X50032Y567223D01*
X49966Y567222D01*
X49864Y567229D01*
X47727Y567229D01*
X45393Y568196D01*
X43462Y570127D01*
X43425Y570183D01*
X43352Y570258D01*
X43287Y570340D01*
X43204Y570411D01*
X43128Y570489D01*
X43043Y570550D01*
X42963Y570618D01*
X42869Y570673D01*
X42779Y570736D01*
X42684Y570779D01*
X42593Y570832D01*
X42490Y570868D01*
X42391Y570913D01*
X42289Y570938D01*
X42190Y570972D01*
X42082Y570989D01*
X41976Y571015D01*
X41844Y571024D01*
X41768Y571036D01*
X41716Y571034D01*
X41641Y571039D01*
X38655Y571039D01*
X38009Y571212D01*
X37430Y571547D01*
X36957Y572020D01*
X36622Y572599D01*
X36449Y573245D01*
X36449Y574295D01*
X40354Y574295D01*
X40483Y574307D01*
X40613Y574309D01*
X40696Y574327D01*
X40779Y574334D01*
X40904Y574371D01*
X41031Y574397D01*
X41109Y574430D01*
X41190Y574453D01*
X41306Y574512D01*
X41426Y574561D01*
X41496Y574608D01*
X41571Y574645D01*
X41674Y574725D01*
X41783Y574796D01*
X41843Y574854D01*
X41910Y574906D01*
X41996Y575003D01*
X42089Y575093D01*
X42138Y575162D01*
X42194Y575224D01*
X42261Y575336D01*
X42336Y575442D01*
X42371Y575518D01*
X42414Y575590D01*
X42459Y575712D01*
X42513Y575831D01*
X42533Y575912D01*
X42562Y575991D01*
X42584Y576119D01*
X42615Y576245D01*
X42622Y576347D01*
X42633Y576412D01*
X42632Y576478D01*
X42639Y576580D01*
X42627Y576709D01*
X42625Y576839D01*
X42607Y576922D01*
X42599Y577005D01*
X42563Y577130D01*
X42537Y577257D01*
X42504Y577335D01*
X42481Y577416D01*
X42422Y577532D01*
X42372Y577652D01*
X42326Y577722D01*
X42288Y577797D01*
X42209Y577900D01*
X42138Y578009D01*
X42079Y578069D01*
X42028Y578136D01*
X41931Y578222D01*
X41841Y578316D01*
X41772Y578364D01*
X41709Y578420D01*
X41598Y578487D01*
X41492Y578562D01*
X41415Y578597D01*
X41343Y578640D01*
X41222Y578685D01*
X41103Y578739D01*
X41022Y578759D01*
X40943Y578788D01*
X40815Y578810D01*
X40688Y578841D01*
X40587Y578848D01*
X40522Y578859D01*
X40456Y578858D01*
X40354Y578865D01*
X36449Y578865D01*
X36449Y579915D01*
X36622Y580561D01*
X36957Y581140D01*
X37430Y581613D01*
X38009Y581948D01*
X38655Y582121D01*
X41641Y582121D01*
X41750Y582131D01*
X41860Y582131D01*
X41962Y582151D01*
X42067Y582161D01*
X42172Y582191D01*
X42279Y582211D01*
X42377Y582250D01*
X42477Y582279D01*
X42575Y582328D01*
X42676Y582368D01*
X42765Y582424D01*
X42858Y582472D01*
X42945Y582538D01*
X43037Y582597D01*
X43114Y582668D01*
X43197Y582732D01*
X43270Y582814D01*
X43350Y582888D01*
X43412Y582972D01*
X43481Y583051D01*
X43485Y583056D01*
X45393Y584964D01*
X47727Y585931D01*
X49864Y585931D01*
X49993Y585943D01*
X50123Y585945D01*
X50206Y585963D01*
X50289Y585971D01*
X50414Y586007D01*
X50541Y586033D01*
X50619Y586066D01*
X50700Y586089D01*
X50816Y586148D01*
X50936Y586198D01*
X51006Y586244D01*
X51081Y586282D01*
X51184Y586361D01*
X51293Y586432D01*
X51353Y586491D01*
X51420Y586542D01*
X51506Y586639D01*
X51599Y586729D01*
X51648Y586798D01*
X51704Y586861D01*
X51771Y586972D01*
X51846Y587078D01*
X51881Y587155D01*
X51924Y587227D01*
X51969Y587348D01*
X52023Y587467D01*
X52043Y587548D01*
X52072Y587627D01*
X52094Y587755D01*
X52125Y587882D01*
X52132Y587983D01*
X52143Y588048D01*
X52142Y588106D01*
X52143Y588112D01*
X52143Y588128D01*
X52149Y588216D01*
X52149Y595213D01*
X52617Y596342D01*
X52649Y596446D01*
X52691Y596547D01*
X52712Y596650D01*
X52743Y596750D01*
X52755Y596859D01*
X52777Y596965D01*
X52779Y597070D01*
X52790Y597174D01*
X52782Y597283D01*
X52784Y597392D01*
X52766Y597496D01*
X52758Y597600D01*
X52730Y597706D01*
X52711Y597813D01*
X52675Y597911D01*
X52647Y598013D01*
X52600Y598111D01*
X52562Y598213D01*
X52507Y598303D01*
X52462Y598398D01*
X52397Y598485D01*
X52340Y598579D01*
X52254Y598679D01*
X52208Y598741D01*
X52170Y598776D01*
X52128Y598824D01*
X50085Y603757D01*
X50085Y609093D01*
X52128Y614024D01*
X55901Y617797D01*
X60832Y619840D01*
X66168Y619840D01*
X67650Y619226D01*
X67754Y619194D01*
X67855Y619152D01*
X67958Y619131D01*
X68058Y619100D01*
X68166Y619088D01*
X68273Y619066D01*
X68378Y619064D01*
X68482Y619053D01*
X68591Y619061D01*
X68700Y619059D01*
X68803Y619077D01*
X68908Y619085D01*
X69014Y619113D01*
X69121Y619131D01*
X69219Y619168D01*
X69321Y619195D01*
X69419Y619243D01*
X69521Y619281D01*
X69611Y619335D01*
X69705Y619381D01*
X69793Y619446D01*
X69886Y619502D01*
X69987Y619589D01*
X70049Y619635D01*
X70084Y619673D01*
X70140Y619722D01*
X70403Y619984D01*
X72737Y620951D01*
X84362Y620951D01*
X84384Y620944D01*
X84471Y620934D01*
X84557Y620915D01*
X84683Y620910D01*
X84808Y620896D01*
X84896Y620903D01*
X84984Y620900D01*
X85108Y620919D01*
X85234Y620928D01*
X85317Y620951D01*
X97062Y620951D01*
X97084Y620944D01*
X97171Y620934D01*
X97257Y620915D01*
X97383Y620910D01*
X97508Y620896D01*
X97596Y620903D01*
X97684Y620900D01*
X97808Y620919D01*
X97934Y620928D01*
X98017Y620951D01*
X109762Y620951D01*
X109784Y620944D01*
X109871Y620934D01*
X109957Y620915D01*
X110083Y620910D01*
X110208Y620896D01*
X110296Y620903D01*
X110384Y620900D01*
X110508Y620919D01*
X110634Y620928D01*
X110717Y620951D01*
X122462Y620951D01*
X122484Y620944D01*
X122571Y620934D01*
X122657Y620915D01*
X122783Y620910D01*
X122908Y620896D01*
X122996Y620903D01*
X123084Y620900D01*
X123208Y620919D01*
X123334Y620928D01*
X123417Y620951D01*
X135162Y620951D01*
X135184Y620944D01*
X135271Y620934D01*
X135357Y620915D01*
X135483Y620910D01*
X135608Y620896D01*
X135696Y620903D01*
X135784Y620900D01*
X135908Y620919D01*
X136034Y620928D01*
X136117Y620951D01*
X139875Y620951D01*
X140004Y620963D01*
X140134Y620965D01*
X140217Y620983D01*
X140300Y620991D01*
X140425Y621027D01*
X140552Y621053D01*
X140630Y621086D01*
X140711Y621109D01*
X140827Y621168D01*
X140947Y621218D01*
X141017Y621264D01*
X141092Y621302D01*
X141195Y621381D01*
X141304Y621452D01*
X141364Y621511D01*
X141431Y621562D01*
X141517Y621659D01*
X141610Y621749D01*
X141659Y621818D01*
X141715Y621881D01*
X141782Y621992D01*
X141857Y622098D01*
X141892Y622175D01*
X141935Y622247D01*
X141980Y622368D01*
X142034Y622487D01*
X142054Y622568D01*
X142083Y622647D01*
X142105Y622775D01*
X142136Y622902D01*
X142143Y623003D01*
X142154Y623068D01*
X142153Y623134D01*
X142160Y623236D01*
X142160Y628143D01*
X144203Y633074D01*
X147976Y636847D01*
X152907Y638890D01*
X158243Y638890D01*
X163174Y636847D01*
X165240Y634781D01*
X165308Y634725D01*
X165369Y634662D01*
X165472Y634589D01*
X165569Y634509D01*
X165646Y634466D01*
X165718Y634415D01*
X165833Y634363D01*
X165943Y634302D01*
X166027Y634275D01*
X166107Y634238D01*
X166229Y634208D01*
X166349Y634169D01*
X166436Y634157D01*
X166522Y634136D01*
X166692Y634124D01*
X166772Y634113D01*
X166808Y634115D01*
X166856Y634112D01*
X198269Y634112D01*
X198357Y634120D01*
X198445Y634119D01*
X198569Y634140D01*
X198694Y634152D01*
X198779Y634176D01*
X198866Y634191D01*
X198983Y634235D01*
X199105Y634270D01*
X199183Y634310D01*
X199266Y634341D01*
X199373Y634406D01*
X199486Y634463D01*
X199555Y634516D01*
X199631Y634562D01*
X199760Y634673D01*
X199824Y634723D01*
X199848Y634749D01*
X199885Y634781D01*
X201951Y636847D01*
X206882Y638890D01*
X212218Y638890D01*
X217149Y636847D01*
X218230Y635767D01*
X218346Y635670D01*
X218457Y635568D01*
X218510Y635534D01*
X218559Y635494D01*
X218691Y635421D01*
X218819Y635341D01*
X218877Y635318D01*
X218932Y635288D01*
X219076Y635240D01*
X219216Y635186D01*
X219278Y635174D01*
X219338Y635154D01*
X219488Y635135D01*
X219636Y635107D01*
X219699Y635107D01*
X219762Y635099D01*
X219913Y635107D01*
X220063Y635108D01*
X220125Y635119D01*
X220188Y635123D01*
X220335Y635159D01*
X220483Y635188D01*
X220541Y635211D01*
X220603Y635226D01*
X220740Y635289D01*
X220880Y635345D01*
X220933Y635378D01*
X220991Y635405D01*
X221113Y635492D01*
X221241Y635573D01*
X221287Y635616D01*
X221339Y635652D01*
X221443Y635761D01*
X221554Y635864D01*
X221591Y635915D01*
X221634Y635960D01*
X221717Y636087D01*
X221806Y636208D01*
X221840Y636275D01*
X221868Y636318D01*
X221897Y636389D01*
X221957Y636508D01*
X222056Y636747D01*
X223843Y638534D01*
X226177Y639501D01*
X237203Y639501D01*
X239537Y638534D01*
X241468Y636603D01*
X241505Y636547D01*
X241542Y636509D01*
X241586Y636450D01*
X241602Y636434D01*
X241616Y636417D01*
X241637Y636398D01*
X241643Y636390D01*
X241710Y636332D01*
X241729Y636315D01*
X241802Y636241D01*
X241841Y636213D01*
X241899Y636159D01*
X241918Y636147D01*
X241935Y636132D01*
X241963Y636115D01*
X241967Y636112D01*
X242010Y636087D01*
X242073Y636049D01*
X242151Y635994D01*
X242190Y635976D01*
X242260Y635932D01*
X242281Y635924D01*
X242301Y635912D01*
X242335Y635900D01*
X242337Y635898D01*
X242355Y635892D01*
X242460Y635853D01*
X242539Y635817D01*
X242577Y635808D01*
X242658Y635776D01*
X242680Y635772D01*
X242701Y635764D01*
X242876Y635734D01*
X242954Y635715D01*
X242995Y635712D01*
X243078Y635697D01*
X243100Y635697D01*
X243122Y635693D01*
X243229Y635695D01*
X243289Y635691D01*
X247875Y635691D01*
X248521Y635518D01*
X249100Y635183D01*
X249573Y634710D01*
X249908Y634131D01*
X250081Y633485D01*
X250081Y630935D01*
X244576Y630935D01*
X244447Y630923D01*
X244317Y630921D01*
X244234Y630903D01*
X244151Y630895D01*
X244026Y630859D01*
X243899Y630833D01*
X243821Y630800D01*
X243740Y630777D01*
X243624Y630718D01*
X243504Y630669D01*
X243434Y630622D01*
X243359Y630584D01*
X243256Y630505D01*
X243147Y630434D01*
X243087Y630375D01*
X243020Y630324D01*
X242934Y630227D01*
X242841Y630137D01*
X242792Y630068D01*
X242736Y630006D01*
X242669Y629894D01*
X242594Y629788D01*
X242559Y629711D01*
X242516Y629640D01*
X242471Y629518D01*
X242417Y629399D01*
X242397Y629318D01*
X242368Y629239D01*
X242346Y629111D01*
X242315Y628985D01*
X242308Y628883D01*
X242297Y628818D01*
X242298Y628785D01*
X242298Y628752D01*
X242291Y628650D01*
X242303Y628521D01*
X242305Y628390D01*
X242323Y628308D01*
X242331Y628225D01*
X242367Y628100D01*
X242393Y627973D01*
X242426Y627895D01*
X242449Y627814D01*
X242508Y627698D01*
X242558Y627578D01*
X242604Y627508D01*
X242642Y627433D01*
X242721Y627330D01*
X242792Y627221D01*
X242851Y627161D01*
X242902Y627094D01*
X242999Y627008D01*
X243089Y626914D01*
X243158Y626866D01*
X243221Y626810D01*
X243332Y626743D01*
X243438Y626668D01*
X243515Y626633D01*
X243587Y626590D01*
X243708Y626545D01*
X243827Y626491D01*
X243908Y626471D01*
X243987Y626442D01*
X244115Y626420D01*
X244242Y626389D01*
X244343Y626382D01*
X244408Y626371D01*
X244474Y626372D01*
X244576Y626365D01*
X250081Y626365D01*
X250081Y623815D01*
X249908Y623169D01*
X249573Y622590D01*
X249100Y622117D01*
X248521Y621782D01*
X247964Y621633D01*
X247844Y621589D01*
X247720Y621553D01*
X247644Y621514D01*
X247564Y621485D01*
X247454Y621418D01*
X247339Y621360D01*
X247271Y621308D01*
X247198Y621264D01*
X247102Y621179D01*
X247000Y621100D01*
X246943Y621036D01*
X246880Y620980D01*
X246802Y620878D01*
X246716Y620781D01*
X246672Y620708D01*
X246620Y620641D01*
X246562Y620526D01*
X246496Y620415D01*
X246466Y620335D01*
X246428Y620259D01*
X246392Y620136D01*
X246348Y620015D01*
X246333Y619931D01*
X246310Y619849D01*
X246298Y619721D01*
X246277Y619594D01*
X246278Y619508D01*
X246271Y619423D01*
X246283Y619295D01*
X246285Y619167D01*
X246303Y619083D01*
X246311Y618998D01*
X246347Y618875D01*
X246373Y618749D01*
X246406Y618670D01*
X246430Y618588D01*
X246488Y618473D01*
X246537Y618354D01*
X246584Y618283D01*
X246623Y618207D01*
X246701Y618105D01*
X246772Y617997D01*
X246831Y617936D01*
X246883Y617869D01*
X246980Y617783D01*
X247069Y617691D01*
X247139Y617641D01*
X247202Y617585D01*
X247313Y617518D01*
X247418Y617444D01*
X247496Y617409D01*
X247569Y617365D01*
X247689Y617320D01*
X247807Y617267D01*
X247890Y617247D01*
X247970Y617217D01*
X248096Y617196D01*
X248221Y617165D01*
X248325Y617158D01*
X248391Y617147D01*
X248411Y617147D01*
X249081Y616968D01*
X249660Y616633D01*
X250133Y616160D01*
X250468Y615581D01*
X250641Y614935D01*
X250641Y609385D01*
X244036Y609385D01*
X243907Y609373D01*
X243777Y609371D01*
X243694Y609353D01*
X243611Y609345D01*
X243486Y609309D01*
X243359Y609283D01*
X243281Y609250D01*
X243200Y609227D01*
X243084Y609168D01*
X242964Y609119D01*
X242894Y609072D01*
X242819Y609034D01*
X242716Y608955D01*
X242607Y608884D01*
X242547Y608825D01*
X242480Y608774D01*
X242394Y608677D01*
X242301Y608587D01*
X242252Y608518D01*
X242196Y608456D01*
X242129Y608344D01*
X242054Y608238D01*
X242019Y608161D01*
X241976Y608090D01*
X241931Y607968D01*
X241877Y607849D01*
X241857Y607768D01*
X241828Y607689D01*
X241806Y607561D01*
X241775Y607435D01*
X241768Y607333D01*
X241757Y607268D01*
X241757Y607239D01*
X241758Y607202D01*
X241751Y607100D01*
X241763Y606971D01*
X241765Y606840D01*
X241783Y606758D01*
X241791Y606675D01*
X241827Y606550D01*
X241853Y606423D01*
X241886Y606345D01*
X241909Y606264D01*
X241968Y606148D01*
X242018Y606028D01*
X242064Y605958D01*
X242102Y605883D01*
X242181Y605780D01*
X242252Y605671D01*
X242311Y605611D01*
X242362Y605544D01*
X242459Y605458D01*
X242549Y605364D01*
X242618Y605316D01*
X242681Y605260D01*
X242792Y605193D01*
X242898Y605118D01*
X242975Y605083D01*
X243047Y605040D01*
X243168Y604995D01*
X243287Y604941D01*
X243368Y604921D01*
X243447Y604892D01*
X243575Y604870D01*
X243702Y604839D01*
X243803Y604832D01*
X243868Y604821D01*
X243934Y604822D01*
X244036Y604815D01*
X250641Y604815D01*
X250641Y599265D01*
X250468Y598619D01*
X250133Y598040D01*
X249660Y597567D01*
X249081Y597232D01*
X248435Y597059D01*
X245864Y597059D01*
X245863Y597065D01*
X245845Y597255D01*
X245839Y597277D01*
X245837Y597299D01*
X245780Y597482D01*
X245727Y597666D01*
X245717Y597686D01*
X245710Y597707D01*
X245621Y597876D01*
X245534Y598047D01*
X245521Y598065D01*
X245510Y598085D01*
X245391Y598234D01*
X245274Y598386D01*
X245257Y598401D01*
X245243Y598418D01*
X245099Y598542D01*
X244956Y598670D01*
X244936Y598682D01*
X244919Y598696D01*
X244754Y598791D01*
X244590Y598890D01*
X244568Y598898D01*
X244549Y598909D01*
X244369Y598972D01*
X244189Y599038D01*
X244167Y599042D01*
X244146Y599049D01*
X243957Y599077D01*
X243768Y599109D01*
X243745Y599109D01*
X243723Y599112D01*
X243532Y599104D01*
X243341Y599101D01*
X243319Y599096D01*
X243296Y599095D01*
X243110Y599052D01*
X242923Y599013D01*
X242902Y599004D01*
X242880Y598999D01*
X242705Y598922D01*
X242529Y598848D01*
X242510Y598836D01*
X242489Y598827D01*
X242331Y598719D01*
X242172Y598614D01*
X242155Y598598D01*
X242137Y598585D01*
X242002Y598450D01*
X241865Y598317D01*
X241852Y598298D01*
X241836Y598282D01*
X241729Y598124D01*
X241618Y597968D01*
X241609Y597948D01*
X241596Y597929D01*
X241457Y597624D01*
X241457Y597623D01*
X241451Y597600D01*
X241441Y597579D01*
X241441Y597578D01*
X241396Y597394D01*
X241347Y597210D01*
X241345Y597187D01*
X241339Y597164D01*
X241315Y596829D01*
X241315Y596548D01*
X241276Y596512D01*
X241193Y596448D01*
X241120Y596366D01*
X241040Y596292D01*
X240978Y596208D01*
X240909Y596129D01*
X240905Y596124D01*
X238997Y594216D01*
X236663Y593249D01*
X226822Y593249D01*
X226693Y593237D01*
X226563Y593235D01*
X226480Y593217D01*
X226397Y593209D01*
X226272Y593173D01*
X226145Y593147D01*
X226067Y593114D01*
X225986Y593091D01*
X225870Y593032D01*
X225750Y592982D01*
X225680Y592936D01*
X225605Y592898D01*
X225502Y592819D01*
X225393Y592748D01*
X225333Y592689D01*
X225266Y592638D01*
X225180Y592541D01*
X225087Y592451D01*
X225038Y592382D01*
X224982Y592319D01*
X224915Y592208D01*
X224840Y592102D01*
X224805Y592025D01*
X224762Y591953D01*
X224717Y591832D01*
X224663Y591713D01*
X224643Y591632D01*
X224614Y591553D01*
X224592Y591425D01*
X224561Y591298D01*
X224554Y591197D01*
X224543Y591132D01*
X224544Y591066D01*
X224537Y590964D01*
X224537Y563432D01*
X223222Y560258D01*
X220792Y557828D01*
X217618Y556513D01*
X189594Y556513D01*
X189593Y556513D01*
X189591Y556513D01*
X189380Y556493D01*
X189169Y556473D01*
X189167Y556473D01*
X189166Y556473D01*
X188959Y556413D01*
X188758Y556355D01*
X188757Y556354D01*
X188756Y556354D01*
X188556Y556253D01*
X188377Y556162D01*
X188376Y556162D01*
X188375Y556161D01*
X188194Y556021D01*
X188038Y555902D01*
X188038Y555901D01*
X188036Y555900D01*
X187897Y555744D01*
X187754Y555583D01*
X187753Y555582D01*
X187752Y555581D01*
X187644Y555400D01*
X187534Y555217D01*
X187534Y555216D01*
X187533Y555215D01*
X187458Y555013D01*
X187386Y554817D01*
X187386Y554815D01*
X187385Y554814D01*
X187348Y554590D01*
X187315Y554396D01*
X187315Y554394D01*
X187315Y554393D01*
X187319Y554179D01*
X187323Y553969D01*
X187324Y553967D01*
X187324Y553966D01*
X187387Y553636D01*
X187441Y553434D01*
X187441Y550885D01*
X180400Y550885D01*
X166400Y550885D01*
X152400Y550885D01*
X145359Y550885D01*
X145359Y552273D01*
X145351Y552361D01*
X145352Y552449D01*
X145331Y552573D01*
X145319Y552698D01*
X145295Y552783D01*
X145280Y552870D01*
X145236Y552988D01*
X145201Y553108D01*
X145161Y553187D01*
X145130Y553270D01*
X145065Y553377D01*
X145008Y553490D01*
X144955Y553560D01*
X144909Y553635D01*
X144798Y553764D01*
X144748Y553828D01*
X144722Y553852D01*
X144690Y553889D01*
X141028Y557551D01*
X138985Y562482D01*
X138985Y567818D01*
X141028Y572749D01*
X144801Y576522D01*
X149732Y578565D01*
X155068Y578565D01*
X159999Y576522D01*
X162065Y574456D01*
X162133Y574400D01*
X162194Y574337D01*
X162297Y574264D01*
X162394Y574184D01*
X162471Y574141D01*
X162543Y574090D01*
X162658Y574038D01*
X162768Y573977D01*
X162852Y573950D01*
X162932Y573913D01*
X163054Y573883D01*
X163174Y573844D01*
X163261Y573832D01*
X163347Y573811D01*
X163517Y573799D01*
X163597Y573788D01*
X163633Y573790D01*
X163681Y573787D01*
X204978Y573787D01*
X205107Y573799D01*
X205237Y573801D01*
X205320Y573819D01*
X205403Y573827D01*
X205528Y573863D01*
X205655Y573889D01*
X205733Y573922D01*
X205814Y573945D01*
X205930Y574004D01*
X206050Y574054D01*
X206120Y574100D01*
X206195Y574138D01*
X206298Y574217D01*
X206407Y574288D01*
X206467Y574347D01*
X206534Y574398D01*
X206620Y574495D01*
X206713Y574585D01*
X206762Y574654D01*
X206818Y574717D01*
X206885Y574828D01*
X206960Y574934D01*
X206995Y575011D01*
X207038Y575083D01*
X207083Y575204D01*
X207137Y575323D01*
X207157Y575404D01*
X207186Y575483D01*
X207208Y575611D01*
X207239Y575738D01*
X207246Y575839D01*
X207257Y575904D01*
X207256Y575970D01*
X207263Y576072D01*
X207263Y590964D01*
X207251Y591093D01*
X207249Y591223D01*
X207231Y591306D01*
X207223Y591389D01*
X207187Y591514D01*
X207161Y591641D01*
X207128Y591719D01*
X207105Y591800D01*
X207046Y591916D01*
X206996Y592036D01*
X206950Y592106D01*
X206912Y592181D01*
X206833Y592284D01*
X206762Y592393D01*
X206703Y592453D01*
X206652Y592520D01*
X206555Y592606D01*
X206465Y592699D01*
X206396Y592748D01*
X206333Y592804D01*
X206222Y592871D01*
X206116Y592946D01*
X206039Y592981D01*
X205967Y593024D01*
X205846Y593069D01*
X205727Y593123D01*
X205646Y593143D01*
X205567Y593172D01*
X205439Y593194D01*
X205312Y593225D01*
X205211Y593232D01*
X205146Y593243D01*
X205080Y593242D01*
X204978Y593249D01*
X199638Y593249D01*
X199617Y593256D01*
X199529Y593266D01*
X199442Y593285D01*
X199317Y593290D01*
X199193Y593304D01*
X199104Y593297D01*
X199016Y593300D01*
X198892Y593281D01*
X198767Y593272D01*
X198683Y593249D01*
X186938Y593249D01*
X186917Y593256D01*
X186829Y593266D01*
X186742Y593285D01*
X186617Y593290D01*
X186493Y593304D01*
X186404Y593297D01*
X186316Y593300D01*
X186192Y593281D01*
X186067Y593272D01*
X185983Y593249D01*
X174238Y593249D01*
X174217Y593256D01*
X174129Y593266D01*
X174042Y593285D01*
X173917Y593290D01*
X173793Y593304D01*
X173704Y593297D01*
X173616Y593300D01*
X173492Y593281D01*
X173367Y593272D01*
X173283Y593249D01*
X161538Y593249D01*
X161517Y593256D01*
X161429Y593266D01*
X161342Y593285D01*
X161217Y593290D01*
X161093Y593304D01*
X161004Y593297D01*
X160916Y593300D01*
X160792Y593281D01*
X160667Y593272D01*
X160583Y593249D01*
X148838Y593249D01*
X148817Y593256D01*
X148729Y593266D01*
X148642Y593285D01*
X148517Y593290D01*
X148393Y593304D01*
X148304Y593297D01*
X148216Y593300D01*
X148092Y593281D01*
X147967Y593272D01*
X147883Y593249D01*
X136138Y593249D01*
X136117Y593256D01*
X136029Y593266D01*
X135943Y593285D01*
X135817Y593290D01*
X135692Y593304D01*
X135604Y593297D01*
X135516Y593300D01*
X135392Y593281D01*
X135266Y593272D01*
X135183Y593249D01*
X123438Y593249D01*
X123417Y593256D01*
X123329Y593266D01*
X123243Y593285D01*
X123117Y593290D01*
X122992Y593304D01*
X122904Y593297D01*
X122816Y593300D01*
X122692Y593281D01*
X122566Y593272D01*
X122483Y593249D01*
X110738Y593249D01*
X110717Y593256D01*
X110629Y593266D01*
X110543Y593285D01*
X110417Y593290D01*
X110292Y593304D01*
X110204Y593297D01*
X110116Y593300D01*
X109992Y593281D01*
X109866Y593272D01*
X109783Y593249D01*
X101232Y593249D01*
X101081Y593235D01*
X100931Y593229D01*
X100869Y593215D01*
X100807Y593209D01*
X100661Y593167D01*
X100514Y593134D01*
X100457Y593108D01*
X100396Y593091D01*
X100262Y593023D01*
X100123Y592962D01*
X100071Y592927D01*
X100015Y592898D01*
X99895Y592806D01*
X99771Y592721D01*
X99726Y592677D01*
X99676Y592638D01*
X99576Y592525D01*
X99469Y592419D01*
X99434Y592367D01*
X99392Y592319D01*
X99314Y592190D01*
X99229Y592065D01*
X99204Y592007D01*
X99172Y591953D01*
X99120Y591812D01*
X99060Y591673D01*
X99046Y591612D01*
X99024Y591553D01*
X98999Y591404D01*
X98965Y591257D01*
X98963Y591194D01*
X98953Y591132D01*
X98956Y590981D01*
X98951Y590830D01*
X98960Y590768D01*
X98961Y590705D01*
X98993Y590557D01*
X99015Y590408D01*
X99039Y590337D01*
X99049Y590287D01*
X99079Y590216D01*
X99121Y590089D01*
X99140Y590043D01*
X99140Y584707D01*
X97097Y579776D01*
X93324Y576003D01*
X88393Y573960D01*
X83057Y573960D01*
X83011Y573979D01*
X82866Y574024D01*
X82725Y574076D01*
X82663Y574087D01*
X82602Y574105D01*
X82453Y574122D01*
X82304Y574147D01*
X82241Y574146D01*
X82178Y574153D01*
X82028Y574142D01*
X81877Y574139D01*
X81815Y574126D01*
X81752Y574121D01*
X81606Y574082D01*
X81459Y574051D01*
X81401Y574027D01*
X81340Y574010D01*
X81203Y573944D01*
X81064Y573887D01*
X81012Y573852D01*
X80955Y573825D01*
X80834Y573735D01*
X80707Y573652D01*
X80662Y573608D01*
X80612Y573571D01*
X80509Y573460D01*
X80401Y573355D01*
X80364Y573303D01*
X80321Y573257D01*
X80241Y573129D01*
X80154Y573006D01*
X80128Y572949D01*
X80095Y572895D01*
X80040Y572755D01*
X79977Y572617D01*
X79962Y572556D01*
X79939Y572498D01*
X79911Y572349D01*
X79875Y572203D01*
X79870Y572128D01*
X79860Y572078D01*
X79860Y572001D01*
X79851Y571868D01*
X79851Y570888D01*
X79844Y570867D01*
X79834Y570779D01*
X79815Y570693D01*
X79810Y570567D01*
X79796Y570442D01*
X79803Y570354D01*
X79800Y570266D01*
X79819Y570142D01*
X79828Y570016D01*
X79851Y569933D01*
X79851Y558188D01*
X79844Y558167D01*
X79834Y558079D01*
X79815Y557993D01*
X79810Y557867D01*
X79796Y557742D01*
X79803Y557654D01*
X79800Y557566D01*
X79819Y557442D01*
X79828Y557316D01*
X79851Y557233D01*
X79851Y545488D01*
X79844Y545467D01*
X79834Y545379D01*
X79815Y545293D01*
X79810Y545167D01*
X79796Y545042D01*
X79803Y544954D01*
X79800Y544866D01*
X79819Y544742D01*
X79828Y544616D01*
X79851Y544533D01*
X79851Y537972D01*
X79863Y537843D01*
X79865Y537713D01*
X79883Y537630D01*
X79891Y537547D01*
X79927Y537422D01*
X79953Y537295D01*
X79986Y537217D01*
X80009Y537136D01*
X80068Y537020D01*
X80118Y536900D01*
X80164Y536830D01*
X80202Y536755D01*
X80281Y536652D01*
X80352Y536543D01*
X80411Y536483D01*
X80462Y536416D01*
X80559Y536330D01*
X80649Y536237D01*
X80718Y536188D01*
X80781Y536132D01*
X80892Y536065D01*
X80998Y535990D01*
X81075Y535955D01*
X81147Y535912D01*
X81268Y535867D01*
X81387Y535813D01*
X81468Y535793D01*
X81547Y535764D01*
X81675Y535742D01*
X81802Y535711D01*
X81903Y535704D01*
X81968Y535693D01*
X82034Y535694D01*
X82136Y535687D01*
X87144Y535687D01*
X87232Y535695D01*
X87320Y535694D01*
X87444Y535715D01*
X87569Y535727D01*
X87654Y535751D01*
X87741Y535766D01*
X87859Y535810D01*
X87979Y535845D01*
X88058Y535885D01*
X88141Y535916D01*
X88249Y535981D01*
X88361Y536038D01*
X88430Y536091D01*
X88506Y536137D01*
X88635Y536248D01*
X88699Y536298D01*
X88721Y536322D01*
X88732Y536330D01*
X88738Y536338D01*
X88760Y536356D01*
X90826Y538422D01*
X95757Y540465D01*
X101093Y540465D01*
X106024Y538422D01*
X109797Y534649D01*
X111840Y529718D01*
X111840Y524382D01*
X111519Y523607D01*
X111474Y523462D01*
X111422Y523321D01*
X111411Y523259D01*
X111393Y523198D01*
X111376Y523048D01*
X111351Y522900D01*
X111352Y522837D01*
X111345Y522774D01*
X111356Y522623D01*
X111359Y522473D01*
X111372Y522411D01*
X111377Y522348D01*
X111416Y522202D01*
X111447Y522055D01*
X111472Y521996D01*
X111488Y521936D01*
X111554Y521800D01*
X111612Y521660D01*
X111646Y521608D01*
X111674Y521551D01*
X111763Y521429D01*
X111846Y521303D01*
X111890Y521258D01*
X111928Y521207D01*
X112038Y521105D01*
X112143Y520997D01*
X112195Y520960D01*
X112241Y520917D01*
X112369Y520837D01*
X112492Y520750D01*
X112549Y520724D01*
X112603Y520691D01*
X112743Y520636D01*
X112881Y520573D01*
X112942Y520558D01*
X113001Y520535D01*
X113149Y520507D01*
X113296Y520471D01*
X113370Y520466D01*
X113420Y520456D01*
X113497Y520456D01*
X113630Y520447D01*
X129621Y520447D01*
X129709Y520455D01*
X129797Y520454D01*
X129921Y520475D01*
X130046Y520487D01*
X130131Y520511D01*
X130218Y520526D01*
X130336Y520570D01*
X130457Y520605D01*
X130535Y520645D01*
X130618Y520676D01*
X130726Y520741D01*
X130838Y520798D01*
X130908Y520851D01*
X130983Y520897D01*
X131112Y521008D01*
X131176Y521058D01*
X131200Y521084D01*
X131237Y521116D01*
X131770Y521649D01*
X136718Y523699D01*
X142074Y523699D01*
X142205Y523644D01*
X142268Y523625D01*
X142328Y523597D01*
X142471Y523562D01*
X142613Y523518D01*
X142679Y523511D01*
X142742Y523495D01*
X142890Y523487D01*
X143037Y523471D01*
X143103Y523476D01*
X143169Y523472D01*
X143315Y523492D01*
X143463Y523503D01*
X143527Y523520D01*
X143592Y523528D01*
X143733Y523575D01*
X143876Y523613D01*
X143935Y523642D01*
X143998Y523663D01*
X144127Y523735D01*
X144260Y523799D01*
X144313Y523838D01*
X144371Y523870D01*
X144485Y523965D01*
X144604Y524053D01*
X144649Y524101D01*
X144699Y524143D01*
X144793Y524258D01*
X144894Y524366D01*
X144929Y524422D01*
X144971Y524473D01*
X145042Y524603D01*
X145121Y524728D01*
X145145Y524790D01*
X145177Y524847D01*
X145252Y525063D01*
X145276Y525126D01*
X145279Y525143D01*
X145287Y525164D01*
X145508Y525989D01*
X145508Y525990D01*
X145532Y526081D01*
X145750Y526457D01*
X145822Y526614D01*
X145900Y526769D01*
X145911Y526809D01*
X145928Y526846D01*
X145970Y527014D01*
X146017Y527180D01*
X146021Y527221D01*
X146031Y527260D01*
X146040Y527433D01*
X146056Y527605D01*
X146052Y527646D01*
X146054Y527687D01*
X146032Y527858D01*
X146015Y528031D01*
X146004Y528070D01*
X145998Y528110D01*
X145944Y528274D01*
X145896Y528441D01*
X145875Y528483D01*
X145865Y528516D01*
X145825Y528587D01*
X145750Y528743D01*
X145532Y529119D01*
X145359Y529765D01*
X145359Y532315D01*
X150115Y532315D01*
X150115Y520600D01*
X150127Y520471D01*
X150129Y520341D01*
X150147Y520259D01*
X150154Y520175D01*
X150191Y520050D01*
X150217Y519923D01*
X150250Y519846D01*
X150273Y519765D01*
X150332Y519649D01*
X150381Y519529D01*
X150428Y519458D01*
X150465Y519384D01*
X150545Y519281D01*
X150616Y519172D01*
X150675Y519111D01*
X150726Y519045D01*
X150726Y519044D01*
X150823Y518958D01*
X150913Y518865D01*
X150914Y518864D01*
X150982Y518816D01*
X151045Y518760D01*
X151156Y518693D01*
X151262Y518618D01*
X151339Y518583D01*
X151411Y518540D01*
X151533Y518495D01*
X151651Y518441D01*
X151733Y518421D01*
X151811Y518392D01*
X151940Y518370D01*
X152066Y518339D01*
X152168Y518332D01*
X152233Y518321D01*
X152299Y518322D01*
X152400Y518315D01*
X164115Y518315D01*
X164115Y513559D01*
X161565Y513559D01*
X160919Y513732D01*
X160543Y513950D01*
X160385Y514022D01*
X160231Y514100D01*
X160191Y514111D01*
X160154Y514128D01*
X159986Y514170D01*
X159820Y514217D01*
X159779Y514221D01*
X159740Y514231D01*
X159567Y514240D01*
X159395Y514256D01*
X159354Y514252D01*
X159313Y514254D01*
X159142Y514232D01*
X158969Y514215D01*
X158930Y514204D01*
X158890Y514198D01*
X158725Y514144D01*
X158559Y514096D01*
X158517Y514075D01*
X158484Y514065D01*
X158413Y514025D01*
X158257Y513950D01*
X157881Y513732D01*
X157235Y513559D01*
X155144Y513559D01*
X155014Y513547D01*
X154884Y513545D01*
X154802Y513527D01*
X154719Y513519D01*
X154594Y513483D01*
X154466Y513457D01*
X154389Y513424D01*
X154308Y513401D01*
X154192Y513342D01*
X154072Y513292D01*
X154002Y513246D01*
X153927Y513208D01*
X153824Y513129D01*
X153715Y513058D01*
X153655Y512999D01*
X153588Y512948D01*
X153502Y512851D01*
X153408Y512761D01*
X153360Y512692D01*
X153304Y512629D01*
X153237Y512518D01*
X153162Y512412D01*
X153127Y512335D01*
X153084Y512263D01*
X153039Y512142D01*
X152985Y512023D01*
X152965Y511942D01*
X152936Y511863D01*
X152914Y511735D01*
X152883Y511608D01*
X152876Y511507D01*
X152865Y511442D01*
X152866Y511376D01*
X152859Y511274D01*
X152859Y507558D01*
X150809Y502610D01*
X147022Y498823D01*
X142074Y496773D01*
X136718Y496773D01*
X131770Y498823D01*
X128088Y502504D01*
X128021Y502560D01*
X127959Y502623D01*
X127856Y502696D01*
X127760Y502776D01*
X127683Y502819D01*
X127610Y502870D01*
X127496Y502922D01*
X127386Y502983D01*
X127302Y503010D01*
X127222Y503047D01*
X127099Y503077D01*
X126980Y503116D01*
X126893Y503128D01*
X126807Y503149D01*
X126637Y503161D01*
X126556Y503172D01*
X126521Y503170D01*
X126473Y503173D01*
X113831Y503173D01*
X113722Y503163D01*
X113613Y503163D01*
X113510Y503143D01*
X113405Y503133D01*
X113301Y503103D01*
X113194Y503083D01*
X113096Y503044D01*
X112995Y503015D01*
X112898Y502966D01*
X112796Y502926D01*
X112708Y502870D01*
X112614Y502822D01*
X112527Y502756D01*
X112435Y502698D01*
X112358Y502626D01*
X112275Y502562D01*
X112203Y502481D01*
X112123Y502406D01*
X112061Y502322D01*
X111991Y502243D01*
X111935Y502150D01*
X111870Y502062D01*
X111810Y501943D01*
X111771Y501877D01*
X111753Y501829D01*
X111719Y501763D01*
X110092Y497834D01*
X106305Y494047D01*
X101357Y491997D01*
X96001Y491997D01*
X91053Y494047D01*
X87266Y497834D01*
X85216Y502782D01*
X85216Y508138D01*
X87266Y513086D01*
X88692Y514512D01*
X88802Y514644D01*
X88916Y514773D01*
X88938Y514809D01*
X88964Y514841D01*
X89048Y514991D01*
X89136Y515139D01*
X89151Y515178D01*
X89171Y515215D01*
X89225Y515378D01*
X89284Y515539D01*
X89291Y515581D01*
X89304Y515621D01*
X89327Y515791D01*
X89355Y515960D01*
X89354Y516002D01*
X89360Y516044D01*
X89350Y516216D01*
X89347Y516387D01*
X89338Y516429D01*
X89335Y516471D01*
X89294Y516637D01*
X89259Y516805D01*
X89242Y516844D01*
X89232Y516885D01*
X89160Y517041D01*
X89094Y517200D01*
X89071Y517235D01*
X89054Y517273D01*
X88954Y517413D01*
X88860Y517557D01*
X88831Y517587D01*
X88806Y517621D01*
X88682Y517740D01*
X88563Y517863D01*
X88528Y517888D01*
X88498Y517917D01*
X88355Y518010D01*
X88214Y518110D01*
X88176Y518127D01*
X88140Y518150D01*
X87982Y518216D01*
X87825Y518287D01*
X87784Y518297D01*
X87746Y518313D01*
X87578Y518348D01*
X87410Y518389D01*
X87362Y518392D01*
X87327Y518399D01*
X87246Y518401D01*
X87076Y518413D01*
X82136Y518413D01*
X82007Y518401D01*
X81877Y518399D01*
X81794Y518381D01*
X81711Y518373D01*
X81586Y518337D01*
X81459Y518311D01*
X81381Y518278D01*
X81300Y518255D01*
X81184Y518196D01*
X81064Y518146D01*
X80994Y518100D01*
X80919Y518062D01*
X80816Y517983D01*
X80707Y517912D01*
X80647Y517853D01*
X80580Y517802D01*
X80494Y517705D01*
X80401Y517615D01*
X80352Y517546D01*
X80296Y517483D01*
X80229Y517372D01*
X80154Y517266D01*
X80119Y517189D01*
X80076Y517117D01*
X80031Y516996D01*
X79977Y516877D01*
X79957Y516796D01*
X79928Y516717D01*
X79906Y516589D01*
X79875Y516462D01*
X79868Y516361D01*
X79857Y516296D01*
X79858Y516230D01*
X79851Y516128D01*
X79851Y507388D01*
X79844Y507367D01*
X79834Y507279D01*
X79815Y507193D01*
X79810Y507067D01*
X79796Y506942D01*
X79803Y506854D01*
X79800Y506766D01*
X79819Y506642D01*
X79828Y506516D01*
X79851Y506433D01*
X79851Y494688D01*
X79844Y494667D01*
X79834Y494579D01*
X79815Y494493D01*
X79810Y494367D01*
X79796Y494242D01*
X79803Y494154D01*
X79800Y494066D01*
X79819Y493942D01*
X79828Y493816D01*
X79851Y493733D01*
X79851Y481988D01*
X79844Y481967D01*
X79834Y481879D01*
X79815Y481793D01*
X79810Y481667D01*
X79796Y481542D01*
X79803Y481454D01*
X79800Y481366D01*
X79819Y481242D01*
X79828Y481116D01*
X79851Y481033D01*
X79851Y469288D01*
X79844Y469267D01*
X79834Y469179D01*
X79815Y469093D01*
X79810Y468967D01*
X79796Y468842D01*
X79803Y468754D01*
X79800Y468666D01*
X79819Y468542D01*
X79828Y468416D01*
X79851Y468333D01*
X79851Y458010D01*
X79863Y457878D01*
X79865Y457761D01*
X79869Y457743D01*
X79871Y457709D01*
X79885Y457648D01*
X79891Y457585D01*
X79933Y457440D01*
X79940Y457407D01*
X79953Y457343D01*
X79956Y457337D01*
X79966Y457293D01*
X79991Y457235D01*
X80009Y457175D01*
X80077Y457040D01*
X80138Y456902D01*
X80173Y456850D01*
X80202Y456793D01*
X80294Y456674D01*
X80379Y456549D01*
X80423Y456505D01*
X80462Y456455D01*
X80575Y456354D01*
X80681Y456248D01*
X80733Y456212D01*
X80781Y456170D01*
X80910Y456093D01*
X81035Y456008D01*
X81093Y455983D01*
X81147Y455950D01*
X81288Y455898D01*
X81427Y455838D01*
X81488Y455824D01*
X81547Y455802D01*
X81696Y455777D01*
X81843Y455744D01*
X81906Y455742D01*
X81968Y455731D01*
X82119Y455734D01*
X82270Y455729D01*
X82332Y455738D01*
X82395Y455740D01*
X82543Y455771D01*
X82551Y455772D01*
X82587Y455775D01*
X82602Y455780D01*
X82692Y455794D01*
X82763Y455817D01*
X82813Y455828D01*
X82884Y455857D01*
X82980Y455889D01*
X82997Y455894D01*
X83001Y455896D01*
X83011Y455899D01*
X84007Y456312D01*
X90726Y456312D01*
X90814Y456320D01*
X90902Y456319D01*
X91026Y456340D01*
X91151Y456352D01*
X91236Y456376D01*
X91323Y456391D01*
X91441Y456435D01*
X91562Y456470D01*
X91640Y456510D01*
X91723Y456541D01*
X91831Y456606D01*
X91943Y456663D01*
X92013Y456716D01*
X92088Y456762D01*
X92217Y456873D01*
X92281Y456923D01*
X92305Y456949D01*
X92342Y456981D01*
X109741Y474380D01*
X109797Y474448D01*
X109860Y474509D01*
X109933Y474612D01*
X110013Y474709D01*
X110056Y474786D01*
X110107Y474858D01*
X110159Y474973D01*
X110220Y475083D01*
X110247Y475166D01*
X110284Y475247D01*
X110314Y475369D01*
X110353Y475489D01*
X110365Y475576D01*
X110386Y475662D01*
X110398Y475832D01*
X110409Y475912D01*
X110407Y475948D01*
X110410Y475996D01*
X110410Y478918D01*
X112453Y483849D01*
X116226Y487622D01*
X121157Y489665D01*
X126493Y489665D01*
X131424Y487622D01*
X135197Y483849D01*
X137240Y478918D01*
X137240Y473582D01*
X135197Y468651D01*
X131424Y464878D01*
X126493Y462835D01*
X123571Y462835D01*
X123483Y462827D01*
X123395Y462828D01*
X123271Y462807D01*
X123146Y462795D01*
X123061Y462771D01*
X122974Y462756D01*
X122856Y462712D01*
X122735Y462677D01*
X122657Y462637D01*
X122574Y462606D01*
X122467Y462541D01*
X122354Y462484D01*
X122284Y462431D01*
X122209Y462385D01*
X122080Y462274D01*
X122016Y462224D01*
X121992Y462198D01*
X121955Y462166D01*
X109641Y449852D01*
X109532Y449720D01*
X109417Y449591D01*
X109395Y449555D01*
X109369Y449523D01*
X109286Y449373D01*
X109197Y449225D01*
X109182Y449186D01*
X109162Y449149D01*
X109109Y448986D01*
X109049Y448825D01*
X109042Y448783D01*
X109029Y448743D01*
X109006Y448573D01*
X108978Y448404D01*
X108979Y448362D01*
X108973Y448320D01*
X108983Y448148D01*
X108986Y447977D01*
X108995Y447935D01*
X108998Y447893D01*
X109039Y447727D01*
X109074Y447559D01*
X109091Y447520D01*
X109101Y447479D01*
X109173Y447323D01*
X109239Y447164D01*
X109262Y447129D01*
X109279Y447091D01*
X109379Y446951D01*
X109473Y446807D01*
X109502Y446777D01*
X109527Y446743D01*
X109651Y446624D01*
X109770Y446501D01*
X109805Y446476D01*
X109835Y446447D01*
X109979Y446353D01*
X110119Y446254D01*
X110157Y446237D01*
X110193Y446214D01*
X110351Y446148D01*
X110508Y446077D01*
X110549Y446067D01*
X110587Y446051D01*
X110755Y446016D01*
X110923Y445975D01*
X110971Y445972D01*
X111006Y445965D01*
X111087Y445963D01*
X111257Y445951D01*
X122462Y445951D01*
X122483Y445944D01*
X122571Y445934D01*
X122657Y445915D01*
X122783Y445910D01*
X122908Y445896D01*
X122996Y445903D01*
X123084Y445900D01*
X123208Y445919D01*
X123334Y445928D01*
X123417Y445951D01*
X135162Y445951D01*
X135183Y445944D01*
X135271Y445934D01*
X135357Y445915D01*
X135483Y445910D01*
X135608Y445896D01*
X135696Y445903D01*
X135784Y445900D01*
X135908Y445919D01*
X136034Y445928D01*
X136117Y445951D01*
X147862Y445951D01*
X147883Y445944D01*
X147971Y445934D01*
X148057Y445915D01*
X148183Y445910D01*
X148308Y445896D01*
X148396Y445903D01*
X148484Y445900D01*
X148608Y445919D01*
X148734Y445928D01*
X148817Y445951D01*
X160562Y445951D01*
X160583Y445944D01*
X160671Y445934D01*
X160757Y445915D01*
X160883Y445910D01*
X161008Y445896D01*
X161096Y445903D01*
X161184Y445900D01*
X161308Y445919D01*
X161434Y445928D01*
X161517Y445951D01*
X173262Y445951D01*
X173284Y445944D01*
X173371Y445934D01*
X173457Y445915D01*
X173583Y445910D01*
X173708Y445896D01*
X173796Y445903D01*
X173884Y445900D01*
X174008Y445919D01*
X174134Y445928D01*
X174217Y445951D01*
X185962Y445951D01*
X185983Y445944D01*
X186071Y445934D01*
X186158Y445915D01*
X186283Y445910D01*
X186407Y445896D01*
X186496Y445903D01*
X186584Y445900D01*
X186708Y445919D01*
X186833Y445928D01*
X186917Y445951D01*
X198662Y445951D01*
X198683Y445944D01*
X198771Y445934D01*
X198858Y445915D01*
X198983Y445910D01*
X199107Y445896D01*
X199196Y445903D01*
X199284Y445900D01*
X199408Y445919D01*
X199533Y445928D01*
X199617Y445951D01*
X211362Y445951D01*
X211383Y445944D01*
X211471Y445934D01*
X211558Y445915D01*
X211683Y445910D01*
X211807Y445896D01*
X211896Y445903D01*
X211984Y445900D01*
X212108Y445919D01*
X212233Y445928D01*
X212317Y445951D01*
X224062Y445951D01*
X224083Y445944D01*
X224171Y445934D01*
X224258Y445915D01*
X224383Y445910D01*
X224507Y445896D01*
X224596Y445903D01*
X224684Y445900D01*
X224808Y445919D01*
X224933Y445928D01*
X225017Y445951D01*
X236663Y445951D01*
X238997Y444984D01*
X240928Y443053D01*
X240965Y442997D01*
X241038Y442922D01*
X241103Y442840D01*
X241186Y442769D01*
X241262Y442691D01*
X241315Y442653D01*
X241315Y442371D01*
X241318Y442333D01*
X241316Y442295D01*
X241338Y442120D01*
X241354Y441946D01*
X241365Y441909D01*
X241370Y441871D01*
X241467Y441550D01*
X241471Y441543D01*
X241473Y441535D01*
X241473Y441534D01*
X241565Y441352D01*
X241657Y441167D01*
X241662Y441160D01*
X241666Y441153D01*
X241790Y440991D01*
X241915Y440826D01*
X241921Y440821D01*
X241926Y440814D01*
X242081Y440676D01*
X242232Y440540D01*
X242238Y440536D01*
X242245Y440530D01*
X242422Y440423D01*
X242596Y440317D01*
X242604Y440314D01*
X242611Y440310D01*
X242804Y440239D01*
X242996Y440166D01*
X243004Y440165D01*
X243011Y440162D01*
X243214Y440128D01*
X243416Y440092D01*
X243424Y440092D01*
X243432Y440091D01*
X243638Y440095D01*
X243843Y440098D01*
X243851Y440099D01*
X243859Y440099D01*
X244061Y440142D01*
X244262Y440183D01*
X244269Y440186D01*
X244277Y440187D01*
X244467Y440266D01*
X244657Y440344D01*
X244664Y440348D01*
X244672Y440352D01*
X244845Y440465D01*
X245016Y440576D01*
X245022Y440582D01*
X245029Y440586D01*
X245178Y440730D01*
X245325Y440871D01*
X245330Y440877D01*
X245336Y440883D01*
X245455Y441053D01*
X245574Y441218D01*
X245577Y441225D01*
X245582Y441232D01*
X245668Y441421D01*
X245754Y441605D01*
X245756Y441613D01*
X245759Y441621D01*
X245808Y441822D01*
X245858Y442019D01*
X245859Y442027D01*
X245861Y442036D01*
X245869Y442141D01*
X248435Y442141D01*
X249081Y441968D01*
X249660Y441633D01*
X250133Y441160D01*
X250468Y440581D01*
X250641Y439935D01*
X250641Y434385D01*
X244036Y434385D01*
X243907Y434373D01*
X243777Y434371D01*
X243694Y434353D01*
X243611Y434345D01*
X243486Y434309D01*
X243359Y434283D01*
X243281Y434250D01*
X243200Y434227D01*
X243084Y434168D01*
X242964Y434119D01*
X242894Y434072D01*
X242819Y434034D01*
X242716Y433955D01*
X242607Y433884D01*
X242547Y433825D01*
X242480Y433774D01*
X242394Y433677D01*
X242301Y433587D01*
X242252Y433518D01*
X242196Y433456D01*
X242129Y433344D01*
X242054Y433238D01*
X242019Y433161D01*
X241976Y433090D01*
X241931Y432968D01*
X241877Y432849D01*
X241857Y432768D01*
X241828Y432689D01*
X241806Y432561D01*
X241775Y432435D01*
X241768Y432333D01*
X241757Y432268D01*
X241757Y432257D01*
X241758Y432202D01*
X241751Y432100D01*
X241763Y431971D01*
X241765Y431840D01*
X241783Y431758D01*
X241791Y431675D01*
X241827Y431550D01*
X241853Y431423D01*
X241886Y431345D01*
X241909Y431264D01*
X241968Y431148D01*
X242018Y431028D01*
X242064Y430958D01*
X242102Y430883D01*
X242181Y430780D01*
X242252Y430671D01*
X242311Y430611D01*
X242362Y430544D01*
X242459Y430458D01*
X242549Y430364D01*
X242618Y430316D01*
X242681Y430260D01*
X242792Y430193D01*
X242898Y430118D01*
X242975Y430083D01*
X243047Y430040D01*
X243168Y429995D01*
X243287Y429941D01*
X243368Y429921D01*
X243447Y429892D01*
X243575Y429870D01*
X243702Y429839D01*
X243803Y429832D01*
X243868Y429821D01*
X243934Y429822D01*
X244036Y429815D01*
X250641Y429815D01*
X250641Y424266D01*
X250577Y424026D01*
X250573Y424004D01*
X250565Y423983D01*
X250537Y423793D01*
X250505Y423605D01*
X250505Y423583D01*
X250502Y423560D01*
X250509Y423369D01*
X250513Y423178D01*
X250518Y423156D01*
X250519Y423134D01*
X250561Y422947D01*
X250601Y422760D01*
X250609Y422739D01*
X250614Y422717D01*
X250691Y422542D01*
X250764Y422365D01*
X250777Y422347D01*
X250786Y422326D01*
X250893Y422169D01*
X250998Y422008D01*
X251014Y421992D01*
X251027Y421974D01*
X251162Y421839D01*
X251295Y421701D01*
X251313Y421688D01*
X251329Y421672D01*
X251488Y421565D01*
X251644Y421454D01*
X251664Y421445D01*
X251683Y421432D01*
X251858Y421356D01*
X252032Y421277D01*
X252054Y421271D01*
X252074Y421262D01*
X252261Y421220D01*
X252447Y421174D01*
X252469Y421173D01*
X252491Y421168D01*
X252683Y421161D01*
X252873Y421151D01*
X252895Y421154D01*
X252918Y421153D01*
X253106Y421182D01*
X253297Y421208D01*
X253318Y421215D01*
X253340Y421218D01*
X253658Y421323D01*
X257682Y422990D01*
X263018Y422990D01*
X267949Y420947D01*
X271722Y417174D01*
X271836Y416899D01*
X271868Y416839D01*
X271891Y416777D01*
X271967Y416651D01*
X272036Y416521D01*
X272078Y416469D01*
X272113Y416411D01*
X272259Y416242D01*
X272302Y416187D01*
X272316Y416176D01*
X272332Y416157D01*
X274022Y414467D01*
X275337Y411293D01*
X275337Y404338D01*
X275347Y404229D01*
X275347Y404120D01*
X275367Y404018D01*
X275377Y403913D01*
X275407Y403808D01*
X275427Y403701D01*
X275466Y403603D01*
X275495Y403503D01*
X275544Y403405D01*
X275584Y403304D01*
X275640Y403215D01*
X275688Y403121D01*
X275754Y403035D01*
X275812Y402943D01*
X275884Y402866D01*
X275948Y402783D01*
X276029Y402710D01*
X276104Y402630D01*
X276188Y402568D01*
X276267Y402498D01*
X276360Y402442D01*
X276448Y402378D01*
X276500Y402351D01*
X278324Y400527D01*
X279300Y398170D01*
X279303Y398143D01*
X279305Y398013D01*
X279323Y397930D01*
X279331Y397847D01*
X279367Y397722D01*
X279393Y397595D01*
X279426Y397517D01*
X279449Y397436D01*
X279508Y397320D01*
X279558Y397200D01*
X279604Y397130D01*
X279642Y397055D01*
X279721Y396952D01*
X279792Y396843D01*
X279851Y396783D01*
X279902Y396716D01*
X279999Y396630D01*
X280089Y396537D01*
X280158Y396488D01*
X280221Y396432D01*
X280332Y396365D01*
X280438Y396290D01*
X280515Y396255D01*
X280587Y396212D01*
X280708Y396167D01*
X280827Y396113D01*
X280908Y396093D01*
X280987Y396064D01*
X281115Y396042D01*
X281242Y396011D01*
X281343Y396004D01*
X281408Y395993D01*
X281474Y395994D01*
X281576Y395987D01*
X297053Y395987D01*
X297182Y395999D01*
X297312Y396001D01*
X297395Y396019D01*
X297478Y396027D01*
X297603Y396063D01*
X297730Y396089D01*
X297808Y396122D01*
X297889Y396145D01*
X298005Y396204D01*
X298125Y396254D01*
X298195Y396300D01*
X298270Y396338D01*
X298373Y396417D01*
X298482Y396488D01*
X298542Y396547D01*
X298609Y396598D01*
X298695Y396695D01*
X298788Y396785D01*
X298837Y396854D01*
X298893Y396917D01*
X298960Y397028D01*
X299035Y397134D01*
X299070Y397211D01*
X299113Y397283D01*
X299158Y397404D01*
X299212Y397523D01*
X299232Y397604D01*
X299261Y397683D01*
X299283Y397811D01*
X299314Y397938D01*
X299321Y398039D01*
X299332Y398104D01*
X299331Y398170D01*
X299338Y398272D01*
X299338Y458978D01*
X299326Y459107D01*
X299324Y459237D01*
X299306Y459320D01*
X299298Y459403D01*
X299262Y459528D01*
X299236Y459655D01*
X299203Y459733D01*
X299180Y459814D01*
X299121Y459930D01*
X299071Y460050D01*
X299025Y460120D01*
X298987Y460195D01*
X298908Y460298D01*
X298837Y460407D01*
X298778Y460467D01*
X298727Y460534D01*
X298630Y460620D01*
X298540Y460713D01*
X298471Y460762D01*
X298408Y460818D01*
X298297Y460885D01*
X298191Y460960D01*
X298114Y460995D01*
X298042Y461038D01*
X297921Y461083D01*
X297802Y461137D01*
X297721Y461157D01*
X297642Y461186D01*
X297514Y461208D01*
X297387Y461239D01*
X297286Y461246D01*
X297221Y461257D01*
X297155Y461256D01*
X297053Y461263D01*
X192256Y461263D01*
X192168Y461255D01*
X192080Y461256D01*
X191956Y461235D01*
X191831Y461223D01*
X191746Y461199D01*
X191659Y461184D01*
X191541Y461140D01*
X191421Y461105D01*
X191342Y461065D01*
X191259Y461034D01*
X191151Y460969D01*
X191039Y460912D01*
X190970Y460859D01*
X190894Y460813D01*
X190765Y460702D01*
X190701Y460652D01*
X190677Y460626D01*
X190640Y460594D01*
X188574Y458528D01*
X183643Y456485D01*
X178307Y456485D01*
X173376Y458528D01*
X169603Y462301D01*
X167560Y467232D01*
X167560Y472568D01*
X169603Y477499D01*
X173376Y481272D01*
X178307Y483315D01*
X183643Y483315D01*
X188574Y481272D01*
X190640Y479206D01*
X190700Y479157D01*
X190718Y479138D01*
X190723Y479134D01*
X190769Y479087D01*
X190872Y479014D01*
X190969Y478934D01*
X191046Y478891D01*
X191118Y478840D01*
X191233Y478788D01*
X191343Y478727D01*
X191427Y478700D01*
X191507Y478663D01*
X191629Y478633D01*
X191749Y478594D01*
X191836Y478582D01*
X191922Y478561D01*
X192092Y478549D01*
X192172Y478538D01*
X192208Y478540D01*
X192256Y478537D01*
X309693Y478537D01*
X312867Y477222D01*
X315297Y474792D01*
X316612Y471618D01*
X316612Y344357D01*
X315297Y341183D01*
X300167Y326053D01*
X296993Y324738D01*
X270188Y324738D01*
X270135Y324733D01*
X270057Y324735D01*
X268614Y324652D01*
X268567Y324663D01*
X268364Y324713D01*
X268362Y324713D01*
X268361Y324714D01*
X268185Y324727D01*
X266859Y325276D01*
X266808Y325292D01*
X266737Y325323D01*
X266658Y325350D01*
X265360Y325802D01*
X265349Y325810D01*
X265195Y325923D01*
X265175Y325933D01*
X265157Y325946D01*
X264982Y326025D01*
X264810Y326108D01*
X264789Y326114D01*
X264768Y326123D01*
X264581Y326169D01*
X264398Y326218D01*
X264375Y326219D01*
X264353Y326225D01*
X264019Y326249D01*
X260987Y326249D01*
X258653Y327216D01*
X256866Y329003D01*
X255899Y331337D01*
X255899Y334590D01*
X255899Y334591D01*
X255899Y334593D01*
X255879Y334807D01*
X255859Y335015D01*
X255859Y335016D01*
X255859Y335018D01*
X255803Y335209D01*
X255741Y335425D01*
X255740Y335427D01*
X255740Y335428D01*
X255642Y335622D01*
X255548Y335807D01*
X255548Y335808D01*
X255547Y335809D01*
X255421Y335973D01*
X255288Y336145D01*
X255287Y336146D01*
X255286Y336147D01*
X255134Y336283D01*
X254969Y336430D01*
X254968Y336430D01*
X254967Y336431D01*
X254795Y336535D01*
X254603Y336650D01*
X254602Y336650D01*
X254601Y336651D01*
X254404Y336724D01*
X254203Y336798D01*
X254201Y336798D01*
X254200Y336799D01*
X253998Y336832D01*
X253782Y336869D01*
X253780Y336869D01*
X253779Y336869D01*
X253572Y336865D01*
X253355Y336860D01*
X253353Y336860D01*
X253352Y336860D01*
X253023Y336797D01*
X252135Y336559D01*
X245871Y336559D01*
X245871Y353314D01*
X245859Y353443D01*
X245856Y353573D01*
X245839Y353655D01*
X245831Y353739D01*
X245795Y353864D01*
X245768Y353991D01*
X245736Y354069D01*
X245713Y354150D01*
X245654Y354266D01*
X245604Y354386D01*
X245558Y354456D01*
X245520Y354531D01*
X245441Y354634D01*
X245370Y354742D01*
X245311Y354803D01*
X245260Y354869D01*
X245163Y354956D01*
X245073Y355049D01*
X245004Y355098D01*
X244941Y355154D01*
X244830Y355221D01*
X244724Y355296D01*
X244647Y355331D01*
X244575Y355374D01*
X244454Y355419D01*
X244335Y355473D01*
X244254Y355493D01*
X244175Y355522D01*
X244047Y355544D01*
X243920Y355575D01*
X243819Y355582D01*
X243754Y355593D01*
X243688Y355592D01*
X243586Y355599D01*
X239014Y355599D01*
X238885Y355587D01*
X238755Y355584D01*
X238672Y355567D01*
X238589Y355559D01*
X238464Y355523D01*
X238337Y355496D01*
X238259Y355464D01*
X238178Y355441D01*
X238062Y355382D01*
X237942Y355332D01*
X237872Y355286D01*
X237797Y355248D01*
X237694Y355169D01*
X237586Y355098D01*
X237525Y355039D01*
X237459Y354988D01*
X237372Y354891D01*
X237279Y354801D01*
X237230Y354732D01*
X237174Y354669D01*
X237107Y354558D01*
X237032Y354452D01*
X236997Y354375D01*
X236954Y354303D01*
X236909Y354182D01*
X236855Y354063D01*
X236835Y353982D01*
X236806Y353903D01*
X236784Y353775D01*
X236753Y353648D01*
X236746Y353547D01*
X236735Y353482D01*
X236736Y353416D01*
X236729Y353314D01*
X236729Y336559D01*
X230465Y336559D01*
X229577Y336797D01*
X229576Y336797D01*
X229575Y336798D01*
X229352Y336835D01*
X229156Y336869D01*
X229155Y336869D01*
X229154Y336869D01*
X228923Y336864D01*
X228729Y336861D01*
X228728Y336860D01*
X228727Y336860D01*
X228514Y336816D01*
X228311Y336773D01*
X228310Y336773D01*
X228309Y336772D01*
X228118Y336693D01*
X227917Y336610D01*
X227916Y336609D01*
X227914Y336608D01*
X227744Y336496D01*
X227560Y336375D01*
X227559Y336374D01*
X227557Y336374D01*
X227404Y336225D01*
X227252Y336079D01*
X227252Y336078D01*
X227251Y336077D01*
X227121Y335894D01*
X227006Y335730D01*
X227005Y335729D01*
X227004Y335728D01*
X226914Y335529D01*
X226828Y335342D01*
X226828Y335340D01*
X226827Y335339D01*
X226774Y335124D01*
X226726Y334927D01*
X226726Y334926D01*
X226725Y334924D01*
X226701Y334590D01*
X226701Y331337D01*
X225734Y329003D01*
X223947Y327216D01*
X221613Y326249D01*
X205987Y326249D01*
X203653Y327216D01*
X201866Y329003D01*
X200899Y331337D01*
X200899Y335153D01*
X200887Y335282D01*
X200885Y335412D01*
X200867Y335495D01*
X200859Y335578D01*
X200823Y335703D01*
X200797Y335830D01*
X200764Y335908D01*
X200741Y335989D01*
X200682Y336105D01*
X200632Y336225D01*
X200586Y336295D01*
X200548Y336370D01*
X200469Y336473D01*
X200398Y336582D01*
X200339Y336642D01*
X200288Y336709D01*
X200191Y336795D01*
X200101Y336888D01*
X200032Y336937D01*
X199969Y336993D01*
X199858Y337060D01*
X199752Y337135D01*
X199675Y337170D01*
X199603Y337213D01*
X199482Y337258D01*
X199363Y337312D01*
X199282Y337332D01*
X199203Y337361D01*
X199075Y337383D01*
X198948Y337414D01*
X198847Y337421D01*
X198782Y337432D01*
X198716Y337431D01*
X198614Y337438D01*
X191957Y337438D01*
X189761Y338348D01*
X189722Y338360D01*
X189686Y338378D01*
X189518Y338423D01*
X189352Y338474D01*
X189312Y338478D01*
X189273Y338489D01*
X189100Y338502D01*
X188928Y338522D01*
X188888Y338519D01*
X188847Y338522D01*
X188675Y338503D01*
X188502Y338490D01*
X188463Y338479D01*
X188423Y338475D01*
X188257Y338424D01*
X188090Y338379D01*
X188053Y338361D01*
X188015Y338349D01*
X187861Y338268D01*
X187705Y338193D01*
X187672Y338169D01*
X187637Y338150D01*
X187501Y338042D01*
X187362Y337939D01*
X187334Y337909D01*
X187302Y337884D01*
X187189Y337753D01*
X187071Y337626D01*
X187050Y337592D01*
X187023Y337561D01*
X186850Y337274D01*
X186833Y337242D01*
X185834Y335867D01*
X184633Y334666D01*
X183258Y333667D01*
X181744Y332895D01*
X180128Y332370D01*
X179885Y332332D01*
X179885Y340615D01*
X181404Y340615D01*
X181575Y340631D01*
X181747Y340640D01*
X181788Y340651D01*
X181829Y340654D01*
X181994Y340702D01*
X182161Y340744D01*
X182199Y340761D01*
X182240Y340773D01*
X182393Y340850D01*
X182549Y340922D01*
X182584Y340947D01*
X182621Y340965D01*
X182757Y341070D01*
X182897Y341170D01*
X182926Y341200D01*
X182960Y341226D01*
X183074Y341354D01*
X183193Y341478D01*
X183216Y341513D01*
X183244Y341544D01*
X183333Y341692D01*
X183426Y341835D01*
X183442Y341874D01*
X183464Y341910D01*
X183524Y342072D01*
X183589Y342230D01*
X183598Y342271D01*
X183612Y342311D01*
X183641Y342481D01*
X183676Y342649D01*
X183676Y342691D01*
X183683Y342732D01*
X183680Y342904D01*
X183683Y343076D01*
X183676Y343117D01*
X183675Y343159D01*
X183639Y343327D01*
X183610Y343497D01*
X183595Y343536D01*
X183587Y343577D01*
X183521Y343735D01*
X183461Y343897D01*
X183439Y343933D01*
X183423Y343971D01*
X183328Y344115D01*
X183239Y344262D01*
X183207Y344299D01*
X183188Y344328D01*
X183131Y344387D01*
X183020Y344516D01*
X182952Y344572D01*
X182891Y344635D01*
X182891Y344636D01*
X182788Y344708D01*
X182691Y344789D01*
X182614Y344831D01*
X182542Y344882D01*
X182427Y344934D01*
X182317Y344995D01*
X182233Y345022D01*
X182153Y345059D01*
X182031Y345089D01*
X181911Y345128D01*
X181824Y345140D01*
X181738Y345161D01*
X181568Y345173D01*
X181488Y345184D01*
X181452Y345182D01*
X181404Y345185D01*
X177600Y345185D01*
X177471Y345173D01*
X177341Y345171D01*
X177259Y345153D01*
X177175Y345145D01*
X177050Y345109D01*
X176923Y345083D01*
X176846Y345050D01*
X176765Y345027D01*
X176649Y344968D01*
X176529Y344919D01*
X176458Y344872D01*
X176384Y344834D01*
X176281Y344755D01*
X176172Y344684D01*
X176171Y344683D01*
X176111Y344625D01*
X176045Y344574D01*
X176044Y344574D01*
X175958Y344477D01*
X175864Y344386D01*
X175816Y344318D01*
X175760Y344255D01*
X175693Y344144D01*
X175618Y344038D01*
X175583Y343961D01*
X175540Y343889D01*
X175495Y343767D01*
X175441Y343649D01*
X175421Y343567D01*
X175392Y343489D01*
X175370Y343360D01*
X175339Y343234D01*
X175332Y343132D01*
X175321Y343067D01*
X175322Y343001D01*
X175315Y342900D01*
X175315Y332332D01*
X175072Y332370D01*
X173456Y332895D01*
X171942Y333667D01*
X170737Y334542D01*
X170578Y334636D01*
X170421Y334734D01*
X170394Y334745D01*
X170370Y334759D01*
X170196Y334823D01*
X170023Y334890D01*
X169995Y334895D01*
X169968Y334905D01*
X169785Y334935D01*
X169603Y334969D01*
X169575Y334969D01*
X169547Y334973D01*
X169362Y334968D01*
X169176Y334968D01*
X169148Y334963D01*
X169120Y334962D01*
X168939Y334922D01*
X168757Y334888D01*
X168730Y334877D01*
X168702Y334871D01*
X168532Y334799D01*
X168360Y334731D01*
X168335Y334715D01*
X168309Y334704D01*
X168155Y334602D01*
X167998Y334503D01*
X167978Y334483D01*
X167954Y334467D01*
X167822Y334338D01*
X167686Y334211D01*
X167669Y334188D01*
X167649Y334168D01*
X167543Y334017D01*
X167433Y333867D01*
X167419Y333838D01*
X167405Y333818D01*
X167373Y333748D01*
X167283Y333568D01*
X166239Y331048D01*
X164452Y329261D01*
X162118Y328294D01*
X143082Y328294D01*
X140748Y329261D01*
X138961Y331048D01*
X137994Y333382D01*
X137994Y352418D01*
X138961Y354752D01*
X140748Y356539D01*
X143082Y357506D01*
X150316Y357506D01*
X150466Y357520D01*
X150617Y357526D01*
X150678Y357540D01*
X150741Y357546D01*
X150886Y357587D01*
X151033Y357621D01*
X151091Y357646D01*
X151152Y357664D01*
X151286Y357732D01*
X151424Y357793D01*
X151477Y357828D01*
X151533Y357857D01*
X151652Y357948D01*
X151777Y358034D01*
X151821Y358078D01*
X151871Y358117D01*
X151972Y358230D01*
X152078Y358336D01*
X152114Y358388D01*
X152156Y358436D01*
X152234Y358565D01*
X152318Y358690D01*
X152343Y358748D01*
X152376Y358802D01*
X152428Y358943D01*
X152488Y359082D01*
X152502Y359143D01*
X152524Y359202D01*
X152549Y359351D01*
X152582Y359498D01*
X152585Y359561D01*
X152595Y359623D01*
X152592Y359774D01*
X152597Y359925D01*
X152588Y359987D01*
X152586Y360050D01*
X152555Y360198D01*
X152532Y360347D01*
X152509Y360418D01*
X152498Y360468D01*
X152469Y360539D01*
X152427Y360666D01*
X151685Y362457D01*
X151685Y366903D01*
X151673Y367032D01*
X151671Y367162D01*
X151653Y367245D01*
X151645Y367328D01*
X151609Y367453D01*
X151583Y367580D01*
X151550Y367658D01*
X151527Y367739D01*
X151468Y367855D01*
X151418Y367975D01*
X151372Y368045D01*
X151334Y368120D01*
X151255Y368223D01*
X151184Y368332D01*
X151125Y368392D01*
X151074Y368459D01*
X150977Y368545D01*
X150887Y368638D01*
X150818Y368687D01*
X150755Y368743D01*
X150644Y368810D01*
X150538Y368885D01*
X150461Y368920D01*
X150389Y368963D01*
X150268Y369008D01*
X150149Y369062D01*
X150068Y369082D01*
X149989Y369111D01*
X149861Y369133D01*
X149734Y369164D01*
X149633Y369171D01*
X149568Y369182D01*
X149502Y369181D01*
X149400Y369188D01*
X126825Y369188D01*
X126696Y369176D01*
X126566Y369174D01*
X126483Y369156D01*
X126400Y369148D01*
X126275Y369112D01*
X126148Y369086D01*
X126070Y369053D01*
X125989Y369030D01*
X125873Y368971D01*
X125753Y368921D01*
X125683Y368875D01*
X125608Y368837D01*
X125505Y368758D01*
X125396Y368687D01*
X125336Y368628D01*
X125269Y368577D01*
X125183Y368480D01*
X125090Y368390D01*
X125041Y368321D01*
X124985Y368258D01*
X124918Y368147D01*
X124843Y368041D01*
X124808Y367964D01*
X124765Y367892D01*
X124720Y367771D01*
X124666Y367652D01*
X124646Y367571D01*
X124617Y367492D01*
X124595Y367364D01*
X124564Y367237D01*
X124557Y367136D01*
X124546Y367071D01*
X124547Y367005D01*
X124540Y366903D01*
X124540Y362457D01*
X122497Y357526D01*
X120431Y355460D01*
X120375Y355392D01*
X120312Y355331D01*
X120239Y355228D01*
X120159Y355131D01*
X120116Y355054D01*
X120065Y354982D01*
X120013Y354867D01*
X119952Y354757D01*
X119925Y354673D01*
X119888Y354593D01*
X119858Y354471D01*
X119819Y354351D01*
X119807Y354264D01*
X119786Y354178D01*
X119774Y354008D01*
X119763Y353928D01*
X119765Y353892D01*
X119762Y353844D01*
X119762Y303082D01*
X119428Y302276D01*
X119408Y302212D01*
X119380Y302150D01*
X119345Y302008D01*
X119302Y301868D01*
X119294Y301801D01*
X119278Y301736D01*
X119262Y301513D01*
X119254Y301443D01*
X119255Y301425D01*
X119254Y301401D01*
X119254Y297187D01*
X118280Y294835D01*
X118234Y294779D01*
X118131Y294668D01*
X118097Y294615D01*
X118057Y294566D01*
X117984Y294434D01*
X117904Y294306D01*
X117881Y294248D01*
X117851Y294193D01*
X117804Y294049D01*
X117749Y293909D01*
X117737Y293847D01*
X117717Y293787D01*
X117698Y293637D01*
X117670Y293489D01*
X117670Y293426D01*
X117662Y293363D01*
X117670Y293213D01*
X117671Y293062D01*
X117682Y293000D01*
X117686Y292937D01*
X117723Y292790D01*
X117751Y292642D01*
X117774Y292584D01*
X117789Y292522D01*
X117852Y292385D01*
X117908Y292245D01*
X117941Y292192D01*
X117968Y292134D01*
X118055Y292011D01*
X118136Y291884D01*
X118179Y291838D01*
X118215Y291786D01*
X118324Y291682D01*
X118427Y291572D01*
X118478Y291534D01*
X118523Y291491D01*
X118650Y291408D01*
X118771Y291319D01*
X118838Y291285D01*
X118881Y291257D01*
X118952Y291228D01*
X119071Y291168D01*
X123221Y289449D01*
X127651Y285019D01*
X130049Y279231D01*
X130049Y277622D01*
X130061Y277493D01*
X130063Y277363D01*
X130081Y277280D01*
X130089Y277197D01*
X130125Y277072D01*
X130151Y276945D01*
X130184Y276867D01*
X130207Y276786D01*
X130266Y276670D01*
X130316Y276550D01*
X130362Y276480D01*
X130400Y276405D01*
X130479Y276302D01*
X130550Y276193D01*
X130609Y276133D01*
X130660Y276066D01*
X130757Y275980D01*
X130847Y275887D01*
X130916Y275838D01*
X130979Y275782D01*
X131090Y275715D01*
X131196Y275640D01*
X131273Y275605D01*
X131345Y275562D01*
X131466Y275517D01*
X131585Y275463D01*
X131666Y275443D01*
X131745Y275414D01*
X131873Y275392D01*
X132000Y275361D01*
X132101Y275354D01*
X132166Y275343D01*
X132232Y275344D01*
X132334Y275337D01*
X140881Y275337D01*
X140990Y275347D01*
X141099Y275347D01*
X141202Y275367D01*
X141307Y275377D01*
X141411Y275407D01*
X141518Y275427D01*
X141616Y275466D01*
X141717Y275495D01*
X141814Y275544D01*
X141916Y275584D01*
X142004Y275640D01*
X142098Y275688D01*
X142185Y275754D01*
X142277Y275812D01*
X142354Y275884D01*
X142437Y275948D01*
X142509Y276029D01*
X142589Y276104D01*
X142651Y276188D01*
X142721Y276267D01*
X142777Y276360D01*
X142842Y276448D01*
X142902Y276567D01*
X142941Y276633D01*
X142959Y276681D01*
X142993Y276747D01*
X143096Y276997D01*
X144883Y278784D01*
X146410Y279416D01*
X146429Y279427D01*
X146450Y279434D01*
X146617Y279526D01*
X146787Y279616D01*
X146804Y279630D01*
X146824Y279640D01*
X146971Y279763D01*
X147121Y279882D01*
X147135Y279899D01*
X147152Y279913D01*
X147274Y280060D01*
X147399Y280206D01*
X147411Y280225D01*
X147425Y280242D01*
X147517Y280410D01*
X147613Y280576D01*
X147620Y280597D01*
X147631Y280616D01*
X147690Y280799D01*
X147754Y280979D01*
X147757Y281001D01*
X147764Y281022D01*
X147788Y281212D01*
X147817Y281402D01*
X147816Y281424D01*
X147819Y281446D01*
X147808Y281637D01*
X147800Y281829D01*
X147795Y281850D01*
X147794Y281872D01*
X147748Y282058D01*
X147705Y282245D01*
X147696Y282265D01*
X147691Y282287D01*
X147610Y282461D01*
X147533Y282636D01*
X147521Y282654D01*
X147512Y282674D01*
X147400Y282831D01*
X147292Y282989D01*
X147277Y283004D01*
X147264Y283022D01*
X147164Y283118D01*
X147133Y283154D01*
X146447Y283840D01*
X146112Y284419D01*
X145939Y285065D01*
X145939Y289401D01*
X155766Y289401D01*
X155895Y289413D01*
X156025Y289415D01*
X156107Y289433D01*
X156191Y289441D01*
X156316Y289477D01*
X156443Y289503D01*
X156521Y289536D01*
X156601Y289559D01*
X156718Y289618D01*
X156837Y289668D01*
X156908Y289714D01*
X156983Y289752D01*
X157086Y289831D01*
X157194Y289902D01*
X157255Y289961D01*
X157321Y290012D01*
X157408Y290109D01*
X157482Y290180D01*
X157520Y290130D01*
X157617Y290044D01*
X157707Y289950D01*
X157776Y289902D01*
X157839Y289846D01*
X157950Y289779D01*
X158056Y289704D01*
X158133Y289669D01*
X158205Y289626D01*
X158327Y289581D01*
X158445Y289527D01*
X158527Y289507D01*
X158605Y289478D01*
X158734Y289456D01*
X158860Y289425D01*
X158962Y289418D01*
X159027Y289407D01*
X159092Y289408D01*
X159194Y289401D01*
X169984Y289401D01*
X170101Y289330D01*
X170249Y289235D01*
X170284Y289220D01*
X170317Y289201D01*
X170481Y289140D01*
X170644Y289073D01*
X170681Y289066D01*
X170717Y289052D01*
X170890Y289023D01*
X171063Y288988D01*
X171101Y288988D01*
X171138Y288981D01*
X171314Y288985D01*
X171490Y288983D01*
X171527Y288989D01*
X171565Y288990D01*
X171737Y289026D01*
X171848Y289046D01*
X171867Y289048D01*
X171869Y289049D01*
X171910Y289057D01*
X171946Y289070D01*
X171983Y289078D01*
X172090Y289122D01*
X172185Y289154D01*
X175196Y290401D01*
X181990Y290401D01*
X182078Y290409D01*
X182166Y290408D01*
X182290Y290429D01*
X182415Y290441D01*
X182500Y290465D01*
X182587Y290480D01*
X182705Y290524D01*
X182826Y290559D01*
X182904Y290599D01*
X182987Y290630D01*
X183095Y290695D01*
X183207Y290752D01*
X183277Y290805D01*
X183352Y290851D01*
X183481Y290962D01*
X183545Y291012D01*
X183569Y291038D01*
X183606Y291070D01*
X183744Y291208D01*
X183853Y291340D01*
X183968Y291469D01*
X183990Y291505D01*
X184016Y291537D01*
X184099Y291687D01*
X184188Y291835D01*
X184203Y291874D01*
X184223Y291911D01*
X184276Y292074D01*
X184336Y292235D01*
X184343Y292277D01*
X184356Y292317D01*
X184379Y292487D01*
X184407Y292656D01*
X184406Y292698D01*
X184412Y292740D01*
X184402Y292912D01*
X184399Y293083D01*
X184390Y293125D01*
X184387Y293167D01*
X184346Y293333D01*
X184311Y293501D01*
X184294Y293540D01*
X184284Y293581D01*
X184212Y293737D01*
X184146Y293896D01*
X184123Y293931D01*
X184106Y293969D01*
X184006Y294109D01*
X183912Y294253D01*
X183883Y294283D01*
X183858Y294317D01*
X183734Y294436D01*
X183615Y294559D01*
X183580Y294584D01*
X183550Y294613D01*
X183406Y294707D01*
X183266Y294806D01*
X183228Y294823D01*
X183192Y294846D01*
X183034Y294912D01*
X182877Y294983D01*
X182836Y294993D01*
X182798Y295009D01*
X182630Y295044D01*
X182462Y295085D01*
X182414Y295088D01*
X182379Y295095D01*
X182298Y295097D01*
X182128Y295109D01*
X176171Y295109D01*
X175348Y295330D01*
X174609Y295756D01*
X174006Y296359D01*
X173580Y297098D01*
X173513Y297346D01*
X173469Y297467D01*
X173433Y297590D01*
X173394Y297667D01*
X173365Y297747D01*
X173298Y297857D01*
X173240Y297972D01*
X173188Y298039D01*
X173144Y298112D01*
X173058Y298208D01*
X172980Y298310D01*
X172916Y298367D01*
X172860Y298431D01*
X172757Y298509D01*
X172661Y298595D01*
X172588Y298639D01*
X172521Y298691D01*
X172406Y298748D01*
X172295Y298815D01*
X172215Y298844D01*
X172139Y298883D01*
X172015Y298918D01*
X171895Y298963D01*
X171811Y298977D01*
X171729Y299001D01*
X171600Y299012D01*
X171474Y299034D01*
X171388Y299032D01*
X171303Y299040D01*
X171175Y299028D01*
X171047Y299025D01*
X170963Y299008D01*
X170878Y299000D01*
X170754Y298964D01*
X170629Y298937D01*
X170550Y298905D01*
X170468Y298881D01*
X170353Y298823D01*
X170234Y298773D01*
X170163Y298726D01*
X170087Y298688D01*
X169985Y298609D01*
X169877Y298538D01*
X169816Y298479D01*
X169748Y298427D01*
X169663Y298331D01*
X169570Y298242D01*
X169521Y298172D01*
X169465Y298108D01*
X169398Y297998D01*
X169324Y297893D01*
X169289Y297815D01*
X169245Y297742D01*
X169200Y297621D01*
X169147Y297504D01*
X169127Y297421D01*
X169119Y297399D01*
X161479Y297399D01*
X161479Y303941D01*
X166815Y303941D01*
X167461Y303768D01*
X168040Y303433D01*
X168513Y302960D01*
X168848Y302381D01*
X168867Y302310D01*
X168911Y302189D01*
X168947Y302065D01*
X168985Y301989D01*
X169015Y301909D01*
X169082Y301799D01*
X169140Y301684D01*
X169192Y301617D01*
X169236Y301543D01*
X169322Y301447D01*
X169400Y301346D01*
X169463Y301289D01*
X169520Y301225D01*
X169622Y301147D01*
X169719Y301061D01*
X169792Y301017D01*
X169859Y300965D01*
X169974Y300907D01*
X170085Y300841D01*
X170165Y300811D01*
X170241Y300773D01*
X170364Y300738D01*
X170485Y300693D01*
X170569Y300679D01*
X170651Y300655D01*
X170779Y300643D01*
X170906Y300622D01*
X170992Y300624D01*
X171077Y300616D01*
X171205Y300628D01*
X171333Y300631D01*
X171417Y300648D01*
X171502Y300656D01*
X171625Y300692D01*
X171751Y300718D01*
X171830Y300751D01*
X171912Y300775D01*
X172027Y300833D01*
X172146Y300883D01*
X172217Y300929D01*
X172293Y300968D01*
X172395Y301047D01*
X172503Y301117D01*
X172564Y301177D01*
X172631Y301229D01*
X172717Y301325D01*
X172809Y301414D01*
X172859Y301484D01*
X172915Y301548D01*
X172982Y301658D01*
X173056Y301763D01*
X173091Y301841D01*
X173135Y301914D01*
X173180Y302035D01*
X173233Y302152D01*
X173253Y302235D01*
X173283Y302315D01*
X173304Y302442D01*
X173335Y302567D01*
X173342Y302670D01*
X173353Y302736D01*
X173352Y302801D01*
X173359Y302901D01*
X173359Y306679D01*
X173580Y307502D01*
X174006Y308241D01*
X174609Y308844D01*
X175348Y309270D01*
X176171Y309491D01*
X180126Y309491D01*
X180126Y302339D01*
X180138Y302210D01*
X180140Y302080D01*
X180158Y301998D01*
X180166Y301914D01*
X180202Y301789D01*
X180228Y301662D01*
X180261Y301584D01*
X180284Y301504D01*
X180343Y301387D01*
X180393Y301268D01*
X180439Y301197D01*
X180477Y301122D01*
X180556Y301019D01*
X180627Y300911D01*
X180686Y300850D01*
X180737Y300784D01*
X180834Y300697D01*
X180924Y300604D01*
X180993Y300555D01*
X181055Y300499D01*
X181167Y300432D01*
X181273Y300357D01*
X181350Y300323D01*
X181422Y300279D01*
X181543Y300234D01*
X181662Y300180D01*
X181743Y300160D01*
X181822Y300131D01*
X181950Y300110D01*
X182077Y300079D01*
X182178Y300071D01*
X182243Y300060D01*
X182309Y300061D01*
X182317Y300061D01*
X182321Y300060D01*
X182326Y300060D01*
X182411Y300054D01*
X182489Y300054D01*
X182618Y300066D01*
X182748Y300069D01*
X182831Y300086D01*
X182914Y300094D01*
X183039Y300130D01*
X183166Y300157D01*
X183244Y300189D01*
X183325Y300212D01*
X183441Y300271D01*
X183561Y300321D01*
X183631Y300367D01*
X183706Y300405D01*
X183809Y300484D01*
X183918Y300555D01*
X183978Y300614D01*
X184045Y300665D01*
X184131Y300762D01*
X184224Y300852D01*
X184273Y300921D01*
X184329Y300984D01*
X184396Y301095D01*
X184471Y301201D01*
X184506Y301278D01*
X184549Y301350D01*
X184594Y301472D01*
X184648Y301590D01*
X184668Y301672D01*
X184697Y301750D01*
X184719Y301879D01*
X184750Y302005D01*
X184757Y302107D01*
X184768Y302172D01*
X184767Y302237D01*
X184774Y302339D01*
X184774Y309491D01*
X188729Y309491D01*
X189552Y309270D01*
X190291Y308844D01*
X190894Y308241D01*
X191320Y307502D01*
X191541Y306679D01*
X191541Y302669D01*
X191555Y302519D01*
X191561Y302368D01*
X191575Y302307D01*
X191581Y302244D01*
X191622Y302099D01*
X191656Y301952D01*
X191681Y301894D01*
X191699Y301834D01*
X191767Y301699D01*
X191828Y301561D01*
X191863Y301509D01*
X191892Y301452D01*
X191983Y301333D01*
X192069Y301208D01*
X192113Y301164D01*
X192152Y301114D01*
X192265Y301013D01*
X192371Y300907D01*
X192423Y300871D01*
X192471Y300829D01*
X192600Y300751D01*
X192725Y300667D01*
X192783Y300642D01*
X192837Y300609D01*
X192978Y300557D01*
X193117Y300497D01*
X193178Y300483D01*
X193237Y300461D01*
X193386Y300436D01*
X193533Y300403D01*
X193596Y300401D01*
X193658Y300390D01*
X193809Y300393D01*
X193960Y300388D01*
X194022Y300397D01*
X194085Y300399D01*
X194233Y300430D01*
X194382Y300453D01*
X194453Y300476D01*
X194503Y300487D01*
X194574Y300516D01*
X194701Y300558D01*
X195132Y300737D01*
X217990Y300737D01*
X218099Y300747D01*
X218208Y300747D01*
X218311Y300767D01*
X218416Y300777D01*
X218521Y300807D01*
X218628Y300827D01*
X218725Y300866D01*
X218826Y300895D01*
X218923Y300944D01*
X219025Y300984D01*
X219114Y301040D01*
X219207Y301088D01*
X219294Y301154D01*
X219386Y301212D01*
X219463Y301284D01*
X219546Y301348D01*
X219619Y301429D01*
X219698Y301504D01*
X219760Y301588D01*
X219830Y301667D01*
X219887Y301760D01*
X219951Y301848D01*
X220011Y301967D01*
X220050Y302033D01*
X220068Y302081D01*
X220102Y302147D01*
X220403Y302874D01*
X224176Y306647D01*
X229107Y308690D01*
X234443Y308690D01*
X239374Y306647D01*
X243401Y302620D01*
X243469Y302564D01*
X243530Y302501D01*
X243633Y302428D01*
X243730Y302348D01*
X243807Y302305D01*
X243879Y302254D01*
X243994Y302202D01*
X244104Y302141D01*
X244188Y302114D01*
X244268Y302077D01*
X244390Y302047D01*
X244510Y302008D01*
X244597Y301996D01*
X244683Y301975D01*
X244853Y301963D01*
X244933Y301952D01*
X244969Y301954D01*
X245017Y301951D01*
X256376Y301951D01*
X259071Y300834D01*
X259676Y300230D01*
X259744Y300174D01*
X259805Y300110D01*
X259908Y300038D01*
X260005Y299958D01*
X260082Y299915D01*
X260154Y299864D01*
X260268Y299812D01*
X260378Y299751D01*
X260462Y299724D01*
X260542Y299687D01*
X260665Y299657D01*
X260784Y299618D01*
X260872Y299606D01*
X260957Y299585D01*
X261127Y299573D01*
X261208Y299562D01*
X261243Y299564D01*
X261292Y299561D01*
X271336Y299561D01*
X271465Y299573D01*
X271595Y299575D01*
X271677Y299593D01*
X271761Y299601D01*
X271886Y299637D01*
X272013Y299663D01*
X272091Y299696D01*
X272171Y299719D01*
X272288Y299778D01*
X272407Y299828D01*
X272478Y299874D01*
X272553Y299912D01*
X272656Y299991D01*
X272764Y300062D01*
X272825Y300121D01*
X272891Y300172D01*
X272978Y300269D01*
X273052Y300340D01*
X273090Y300290D01*
X273187Y300204D01*
X273277Y300110D01*
X273346Y300062D01*
X273409Y300006D01*
X273520Y299939D01*
X273626Y299864D01*
X273703Y299829D01*
X273775Y299786D01*
X273897Y299741D01*
X274015Y299687D01*
X274097Y299667D01*
X274175Y299638D01*
X274304Y299616D01*
X274430Y299585D01*
X274532Y299578D01*
X274597Y299567D01*
X274662Y299568D01*
X274764Y299561D01*
X284591Y299561D01*
X284591Y295225D01*
X284418Y294579D01*
X284083Y294000D01*
X283481Y293398D01*
X283470Y293390D01*
X283434Y293351D01*
X283397Y293314D01*
X283374Y293286D01*
X283341Y293250D01*
X283208Y293113D01*
X283196Y293094D01*
X283180Y293077D01*
X283079Y292915D01*
X282974Y292755D01*
X282966Y292734D01*
X282953Y292715D01*
X282884Y292537D01*
X282811Y292361D01*
X282806Y292338D01*
X282798Y292317D01*
X282763Y292130D01*
X282724Y291943D01*
X282724Y291920D01*
X282719Y291897D01*
X282720Y291706D01*
X282716Y291516D01*
X282720Y291493D01*
X282720Y291470D01*
X282756Y291282D01*
X282788Y291094D01*
X282796Y291073D01*
X282800Y291051D01*
X282870Y290873D01*
X282937Y290694D01*
X282949Y290675D01*
X282957Y290653D01*
X283059Y290491D01*
X283158Y290329D01*
X283173Y290311D01*
X283185Y290292D01*
X283315Y290153D01*
X283443Y290010D01*
X283461Y289996D01*
X283477Y289980D01*
X283630Y289867D01*
X283782Y289751D01*
X283802Y289741D01*
X283821Y289727D01*
X284120Y289576D01*
X285647Y288944D01*
X287434Y287157D01*
X288401Y284823D01*
X288401Y266297D01*
X287434Y263963D01*
X285647Y262176D01*
X283313Y261209D01*
X263150Y261209D01*
X263042Y261199D01*
X262932Y261199D01*
X262829Y261179D01*
X262725Y261169D01*
X262620Y261139D01*
X262513Y261119D01*
X262416Y261080D01*
X262315Y261051D01*
X262217Y261002D01*
X262116Y260962D01*
X262027Y260906D01*
X261934Y260858D01*
X261847Y260792D01*
X261755Y260734D01*
X261678Y260662D01*
X261595Y260598D01*
X261522Y260517D01*
X261442Y260442D01*
X261380Y260358D01*
X261310Y260279D01*
X261254Y260186D01*
X261190Y260098D01*
X261175Y260070D01*
X259072Y257966D01*
X256376Y256849D01*
X242324Y256849D01*
X239628Y257966D01*
X237566Y260028D01*
X236449Y262724D01*
X236449Y277440D01*
X236441Y277528D01*
X236442Y277616D01*
X236421Y277740D01*
X236409Y277865D01*
X236385Y277950D01*
X236370Y278037D01*
X236326Y278155D01*
X236291Y278276D01*
X236251Y278354D01*
X236220Y278437D01*
X236155Y278545D01*
X236098Y278657D01*
X236045Y278727D01*
X235999Y278802D01*
X235888Y278931D01*
X235838Y278995D01*
X235812Y279019D01*
X235780Y279056D01*
X233645Y281191D01*
X233577Y281247D01*
X233516Y281310D01*
X233413Y281383D01*
X233316Y281463D01*
X233239Y281506D01*
X233167Y281557D01*
X233052Y281609D01*
X232942Y281670D01*
X232859Y281697D01*
X232778Y281734D01*
X232656Y281764D01*
X232536Y281803D01*
X232449Y281815D01*
X232363Y281836D01*
X232193Y281848D01*
X232113Y281859D01*
X232077Y281857D01*
X232029Y281860D01*
X229107Y281860D01*
X225657Y283289D01*
X225593Y283309D01*
X225531Y283337D01*
X225389Y283372D01*
X225248Y283415D01*
X225182Y283423D01*
X225117Y283439D01*
X224894Y283455D01*
X224824Y283463D01*
X224806Y283462D01*
X224782Y283463D01*
X201374Y283463D01*
X201286Y283455D01*
X201198Y283456D01*
X201074Y283435D01*
X200949Y283423D01*
X200864Y283399D01*
X200777Y283384D01*
X200659Y283340D01*
X200538Y283305D01*
X200460Y283265D01*
X200377Y283234D01*
X200269Y283169D01*
X200157Y283112D01*
X200087Y283059D01*
X200012Y283013D01*
X199883Y282902D01*
X199819Y282852D01*
X199795Y282826D01*
X199758Y282794D01*
X196020Y279056D01*
X195964Y278988D01*
X195901Y278927D01*
X195828Y278824D01*
X195748Y278727D01*
X195705Y278650D01*
X195654Y278578D01*
X195602Y278463D01*
X195541Y278353D01*
X195514Y278270D01*
X195477Y278189D01*
X195447Y278067D01*
X195408Y277947D01*
X195396Y277860D01*
X195375Y277774D01*
X195363Y277604D01*
X195352Y277524D01*
X195354Y277488D01*
X195351Y277440D01*
X195351Y274046D01*
X194278Y271455D01*
X192389Y269566D01*
X192306Y269466D01*
X192216Y269372D01*
X192170Y269302D01*
X192116Y269237D01*
X192053Y269123D01*
X191982Y269014D01*
X191950Y268937D01*
X191910Y268863D01*
X191869Y268740D01*
X191820Y268620D01*
X191803Y268537D01*
X191776Y268457D01*
X191759Y268328D01*
X191733Y268201D01*
X191732Y268117D01*
X191721Y268034D01*
X191728Y267904D01*
X191726Y267774D01*
X191740Y267691D01*
X191745Y267608D01*
X191777Y267481D01*
X191799Y267353D01*
X191828Y267275D01*
X191848Y267193D01*
X191903Y267075D01*
X191948Y266953D01*
X191992Y266881D01*
X192027Y266805D01*
X192102Y266699D01*
X192170Y266588D01*
X192236Y266511D01*
X192274Y266457D01*
X192322Y266411D01*
X192389Y266334D01*
X194278Y264445D01*
X195351Y261854D01*
X195351Y251146D01*
X195265Y250938D01*
X195220Y250793D01*
X195168Y250652D01*
X195157Y250590D01*
X195139Y250529D01*
X195122Y250379D01*
X195097Y250231D01*
X195098Y250168D01*
X195091Y250105D01*
X195102Y249955D01*
X195105Y249804D01*
X195118Y249742D01*
X195123Y249679D01*
X195162Y249533D01*
X195193Y249386D01*
X195217Y249328D01*
X195234Y249267D01*
X195300Y249130D01*
X195357Y248991D01*
X195392Y248939D01*
X195419Y248882D01*
X195509Y248761D01*
X195592Y248634D01*
X195636Y248589D01*
X195673Y248538D01*
X195784Y248436D01*
X195889Y248328D01*
X195941Y248291D01*
X195987Y248248D01*
X196115Y248168D01*
X196238Y248081D01*
X196295Y248055D01*
X196349Y248022D01*
X196489Y247967D01*
X196627Y247904D01*
X196688Y247889D01*
X196747Y247866D01*
X196895Y247838D01*
X197041Y247802D01*
X197116Y247797D01*
X197166Y247787D01*
X197243Y247787D01*
X197376Y247778D01*
X338963Y247778D01*
X339051Y247786D01*
G37*
G36*
X25851Y247780D02*
X25851Y247780D01*
X25878Y247778D01*
X26064Y247800D01*
X26250Y247818D01*
X26276Y247825D01*
X26302Y247828D01*
X26481Y247884D01*
X26660Y247936D01*
X26684Y247948D01*
X26710Y247956D01*
X26875Y248045D01*
X27041Y248129D01*
X27063Y248145D01*
X27086Y248158D01*
X27232Y248275D01*
X27380Y248389D01*
X27398Y248409D01*
X27419Y248426D01*
X27540Y248568D01*
X27664Y248708D01*
X27678Y248731D01*
X27696Y248751D01*
X27788Y248913D01*
X27884Y249074D01*
X27894Y249099D01*
X27907Y249122D01*
X27968Y249298D01*
X28033Y249474D01*
X28037Y249501D01*
X28046Y249526D01*
X28072Y249711D01*
X28104Y249895D01*
X28103Y249922D01*
X28107Y249949D01*
X28099Y250135D01*
X28095Y250322D01*
X28089Y250349D01*
X28088Y250376D01*
X28046Y250557D01*
X28007Y250740D01*
X27997Y250765D01*
X27991Y250791D01*
X27861Y251100D01*
X27036Y252719D01*
X26455Y254506D01*
X26161Y256362D01*
X26161Y263907D01*
X37592Y263907D01*
X37721Y263919D01*
X37851Y263921D01*
X37933Y263939D01*
X38017Y263947D01*
X38142Y263983D01*
X38269Y264009D01*
X38347Y264042D01*
X38427Y264065D01*
X38543Y264124D01*
X38663Y264174D01*
X38734Y264220D01*
X38809Y264258D01*
X38912Y264337D01*
X39020Y264408D01*
X39081Y264467D01*
X39147Y264518D01*
X39234Y264615D01*
X39327Y264705D01*
X39376Y264774D01*
X39432Y264836D01*
X39499Y264948D01*
X39574Y265054D01*
X39608Y265131D01*
X39632Y265170D01*
X39680Y265190D01*
X39750Y265236D01*
X39825Y265274D01*
X39928Y265353D01*
X40037Y265424D01*
X40097Y265483D01*
X40164Y265534D01*
X40250Y265631D01*
X40343Y265721D01*
X40392Y265790D01*
X40448Y265853D01*
X40515Y265964D01*
X40590Y266070D01*
X40625Y266147D01*
X40668Y266219D01*
X40713Y266341D01*
X40767Y266459D01*
X40787Y266541D01*
X40816Y266619D01*
X40838Y266748D01*
X40869Y266874D01*
X40876Y266976D01*
X40887Y267041D01*
X40886Y267106D01*
X40893Y267208D01*
X40893Y287743D01*
X40896Y287743D01*
X42683Y287162D01*
X44357Y286309D01*
X45878Y285204D01*
X46534Y284548D01*
X46650Y284452D01*
X46761Y284349D01*
X46814Y284316D01*
X46863Y284276D01*
X46995Y284203D01*
X47123Y284123D01*
X47181Y284100D01*
X47236Y284069D01*
X47380Y284022D01*
X47520Y283967D01*
X47582Y283956D01*
X47642Y283936D01*
X47792Y283916D01*
X47940Y283888D01*
X48003Y283889D01*
X48066Y283880D01*
X48216Y283889D01*
X48367Y283889D01*
X48429Y283901D01*
X48492Y283905D01*
X48638Y283941D01*
X48787Y283969D01*
X48846Y283993D01*
X48907Y284008D01*
X49044Y284071D01*
X49184Y284126D01*
X49237Y284160D01*
X49295Y284186D01*
X49418Y284274D01*
X49545Y284354D01*
X49591Y284397D01*
X49643Y284434D01*
X49747Y284543D01*
X49857Y284646D01*
X49895Y284696D01*
X49938Y284742D01*
X50021Y284869D01*
X50083Y284954D01*
X53328Y288198D01*
X53437Y288330D01*
X53552Y288459D01*
X53574Y288495D01*
X53600Y288527D01*
X53683Y288677D01*
X53772Y288825D01*
X53787Y288864D01*
X53807Y288901D01*
X53861Y289064D01*
X53920Y289225D01*
X53927Y289267D01*
X53940Y289307D01*
X53963Y289477D01*
X53991Y289646D01*
X53990Y289688D01*
X53996Y289730D01*
X53986Y289901D01*
X53983Y290073D01*
X53974Y290115D01*
X53972Y290157D01*
X53930Y290323D01*
X53895Y290491D01*
X53879Y290530D01*
X53868Y290571D01*
X53796Y290727D01*
X53731Y290886D01*
X53707Y290921D01*
X53690Y290959D01*
X53590Y291099D01*
X53496Y291243D01*
X53467Y291273D01*
X53442Y291307D01*
X53318Y291426D01*
X53199Y291549D01*
X53165Y291574D01*
X53134Y291603D01*
X52990Y291697D01*
X52850Y291796D01*
X52812Y291813D01*
X52776Y291836D01*
X52618Y291902D01*
X52461Y291973D01*
X52420Y291983D01*
X52382Y291999D01*
X52214Y292034D01*
X52047Y292075D01*
X51998Y292078D01*
X51963Y292085D01*
X51882Y292087D01*
X51712Y292099D01*
X50934Y292099D01*
X48600Y293066D01*
X46813Y294853D01*
X45846Y297187D01*
X45846Y301401D01*
X45840Y301468D01*
X45842Y301535D01*
X45820Y301680D01*
X45806Y301826D01*
X45788Y301891D01*
X45778Y301957D01*
X45708Y302169D01*
X45688Y302237D01*
X45680Y302253D01*
X45672Y302276D01*
X45338Y303082D01*
X45338Y389068D01*
X46653Y392242D01*
X49083Y394672D01*
X52257Y395987D01*
X113792Y395987D01*
X113921Y395999D01*
X114051Y396001D01*
X114134Y396019D01*
X114217Y396027D01*
X114342Y396063D01*
X114469Y396089D01*
X114547Y396122D01*
X114628Y396145D01*
X114744Y396204D01*
X114864Y396254D01*
X114934Y396300D01*
X115009Y396338D01*
X115112Y396417D01*
X115221Y396488D01*
X115281Y396547D01*
X115348Y396598D01*
X115434Y396695D01*
X115527Y396785D01*
X115576Y396854D01*
X115632Y396917D01*
X115699Y397028D01*
X115774Y397134D01*
X115809Y397211D01*
X115852Y397283D01*
X115897Y397404D01*
X115951Y397523D01*
X115971Y397604D01*
X116000Y397683D01*
X116022Y397811D01*
X116053Y397938D01*
X116060Y398039D01*
X116071Y398104D01*
X116070Y398170D01*
X116077Y398272D01*
X116077Y402728D01*
X118127Y407676D01*
X120234Y409783D01*
X120290Y409851D01*
X120353Y409912D01*
X120426Y410015D01*
X120506Y410112D01*
X120549Y410189D01*
X120600Y410261D01*
X120652Y410376D01*
X120713Y410486D01*
X120740Y410569D01*
X120777Y410650D01*
X120807Y410772D01*
X120846Y410892D01*
X120858Y410979D01*
X120879Y411065D01*
X120891Y411235D01*
X120902Y411315D01*
X120900Y411351D01*
X120903Y411399D01*
X120903Y415964D01*
X120891Y416093D01*
X120889Y416223D01*
X120871Y416306D01*
X120863Y416389D01*
X120827Y416514D01*
X120801Y416641D01*
X120768Y416719D01*
X120745Y416800D01*
X120686Y416916D01*
X120636Y417036D01*
X120590Y417106D01*
X120552Y417181D01*
X120473Y417284D01*
X120402Y417393D01*
X120343Y417453D01*
X120292Y417520D01*
X120195Y417606D01*
X120105Y417699D01*
X120036Y417748D01*
X119973Y417804D01*
X119862Y417871D01*
X119756Y417946D01*
X119679Y417981D01*
X119607Y418024D01*
X119486Y418069D01*
X119367Y418123D01*
X119286Y418143D01*
X119207Y418172D01*
X119079Y418194D01*
X118952Y418225D01*
X118851Y418232D01*
X118786Y418243D01*
X118720Y418242D01*
X118618Y418249D01*
X110738Y418249D01*
X110716Y418256D01*
X110629Y418266D01*
X110543Y418285D01*
X110417Y418290D01*
X110292Y418304D01*
X110204Y418297D01*
X110116Y418300D01*
X109992Y418281D01*
X109866Y418272D01*
X109783Y418249D01*
X98038Y418249D01*
X98016Y418256D01*
X97929Y418266D01*
X97843Y418285D01*
X97717Y418290D01*
X97592Y418304D01*
X97504Y418297D01*
X97416Y418300D01*
X97292Y418281D01*
X97166Y418272D01*
X97083Y418249D01*
X85338Y418249D01*
X85316Y418256D01*
X85229Y418266D01*
X85143Y418285D01*
X85017Y418290D01*
X84892Y418304D01*
X84804Y418297D01*
X84716Y418300D01*
X84592Y418281D01*
X84466Y418272D01*
X84383Y418249D01*
X72737Y418249D01*
X70403Y419216D01*
X68616Y421003D01*
X67649Y423337D01*
X67649Y436614D01*
X67637Y436743D01*
X67635Y436873D01*
X67617Y436956D01*
X67609Y437039D01*
X67573Y437164D01*
X67547Y437291D01*
X67514Y437369D01*
X67491Y437450D01*
X67432Y437566D01*
X67382Y437686D01*
X67336Y437756D01*
X67298Y437831D01*
X67219Y437934D01*
X67148Y438043D01*
X67089Y438103D01*
X67038Y438170D01*
X66941Y438256D01*
X66851Y438349D01*
X66782Y438398D01*
X66719Y438454D01*
X66608Y438521D01*
X66502Y438596D01*
X66425Y438631D01*
X66353Y438674D01*
X66232Y438719D01*
X66113Y438773D01*
X66032Y438793D01*
X65953Y438822D01*
X65825Y438844D01*
X65698Y438875D01*
X65597Y438882D01*
X65532Y438893D01*
X65466Y438892D01*
X65364Y438899D01*
X58626Y438899D01*
X58497Y438887D01*
X58367Y438885D01*
X58284Y438867D01*
X58201Y438859D01*
X58076Y438823D01*
X57949Y438797D01*
X57871Y438764D01*
X57790Y438741D01*
X57674Y438682D01*
X57554Y438632D01*
X57484Y438586D01*
X57409Y438548D01*
X57306Y438469D01*
X57197Y438398D01*
X57137Y438339D01*
X57070Y438288D01*
X56984Y438191D01*
X56891Y438101D01*
X56842Y438032D01*
X56786Y437969D01*
X56719Y437858D01*
X56644Y437752D01*
X56609Y437675D01*
X56566Y437603D01*
X56521Y437482D01*
X56467Y437363D01*
X56447Y437282D01*
X56418Y437203D01*
X56396Y437075D01*
X56365Y436948D01*
X56358Y436847D01*
X56347Y436782D01*
X56348Y436716D01*
X56341Y436614D01*
X56341Y436165D01*
X56231Y435758D01*
X56231Y435757D01*
X56168Y435519D01*
X55833Y434940D01*
X55360Y434467D01*
X54781Y434132D01*
X54135Y433959D01*
X53085Y433959D01*
X53085Y437864D01*
X53073Y437993D01*
X53071Y438123D01*
X53053Y438206D01*
X53045Y438289D01*
X53009Y438414D01*
X52983Y438541D01*
X52950Y438619D01*
X52927Y438700D01*
X52868Y438816D01*
X52819Y438936D01*
X52772Y439006D01*
X52734Y439081D01*
X52655Y439184D01*
X52584Y439293D01*
X52525Y439353D01*
X52474Y439420D01*
X52377Y439506D01*
X52287Y439599D01*
X52218Y439648D01*
X52156Y439704D01*
X52044Y439771D01*
X51938Y439846D01*
X51861Y439881D01*
X51790Y439924D01*
X51668Y439969D01*
X51549Y440023D01*
X51468Y440043D01*
X51389Y440072D01*
X51261Y440094D01*
X51135Y440125D01*
X51033Y440132D01*
X50968Y440143D01*
X50967Y440143D01*
X50902Y440142D01*
X50800Y440149D01*
X50671Y440137D01*
X50540Y440135D01*
X50458Y440117D01*
X50375Y440109D01*
X50250Y440073D01*
X50123Y440047D01*
X50045Y440014D01*
X49964Y439991D01*
X49848Y439932D01*
X49728Y439882D01*
X49658Y439836D01*
X49583Y439798D01*
X49480Y439719D01*
X49371Y439648D01*
X49311Y439589D01*
X49244Y439538D01*
X49158Y439441D01*
X49064Y439351D01*
X49016Y439282D01*
X48960Y439219D01*
X48893Y439108D01*
X48818Y439002D01*
X48783Y438925D01*
X48740Y438853D01*
X48695Y438732D01*
X48641Y438613D01*
X48621Y438532D01*
X48592Y438453D01*
X48570Y438325D01*
X48539Y438198D01*
X48532Y438097D01*
X48521Y438032D01*
X48522Y437966D01*
X48515Y437864D01*
X48515Y433959D01*
X47465Y433959D01*
X46819Y434132D01*
X46240Y434467D01*
X45767Y434940D01*
X45432Y435519D01*
X45259Y436165D01*
X45259Y439151D01*
X45249Y439260D01*
X45249Y439370D01*
X45229Y439472D01*
X45219Y439577D01*
X45189Y439682D01*
X45169Y439789D01*
X45130Y439887D01*
X45101Y439987D01*
X45052Y440085D01*
X45012Y440186D01*
X44956Y440275D01*
X44908Y440368D01*
X44842Y440455D01*
X44783Y440547D01*
X44712Y440624D01*
X44648Y440707D01*
X44566Y440780D01*
X44492Y440860D01*
X44408Y440922D01*
X44329Y440991D01*
X44324Y440995D01*
X42416Y442903D01*
X41449Y445237D01*
X41449Y453763D01*
X42416Y456097D01*
X44203Y457884D01*
X46537Y458851D01*
X47092Y458851D01*
X47159Y458857D01*
X47226Y458855D01*
X47371Y458877D01*
X47517Y458891D01*
X47582Y458909D01*
X47648Y458919D01*
X47860Y458989D01*
X47928Y459009D01*
X47944Y459017D01*
X47967Y459025D01*
X49082Y459487D01*
X49864Y459487D01*
X49993Y459499D01*
X50123Y459501D01*
X50206Y459519D01*
X50289Y459527D01*
X50414Y459563D01*
X50541Y459589D01*
X50619Y459622D01*
X50700Y459645D01*
X50816Y459704D01*
X50936Y459754D01*
X51006Y459800D01*
X51081Y459838D01*
X51184Y459917D01*
X51293Y459988D01*
X51353Y460047D01*
X51420Y460098D01*
X51506Y460195D01*
X51599Y460285D01*
X51648Y460354D01*
X51704Y460417D01*
X51771Y460528D01*
X51846Y460634D01*
X51881Y460711D01*
X51924Y460783D01*
X51969Y460904D01*
X52023Y461023D01*
X52043Y461104D01*
X52072Y461183D01*
X52094Y461311D01*
X52125Y461438D01*
X52132Y461539D01*
X52143Y461604D01*
X52142Y461670D01*
X52149Y461772D01*
X52149Y468312D01*
X52156Y468334D01*
X52166Y468421D01*
X52185Y468507D01*
X52190Y468633D01*
X52204Y468758D01*
X52197Y468846D01*
X52200Y468934D01*
X52181Y469058D01*
X52172Y469184D01*
X52149Y469267D01*
X52149Y481012D01*
X52156Y481034D01*
X52166Y481121D01*
X52185Y481207D01*
X52190Y481333D01*
X52204Y481458D01*
X52197Y481546D01*
X52200Y481634D01*
X52181Y481758D01*
X52172Y481884D01*
X52149Y481967D01*
X52149Y493712D01*
X52156Y493734D01*
X52166Y493821D01*
X52185Y493907D01*
X52190Y494033D01*
X52204Y494158D01*
X52197Y494246D01*
X52200Y494334D01*
X52181Y494458D01*
X52172Y494584D01*
X52149Y494667D01*
X52149Y497968D01*
X52133Y498139D01*
X52123Y498311D01*
X52113Y498351D01*
X52109Y498393D01*
X52062Y498558D01*
X52020Y498725D01*
X52003Y498763D01*
X51991Y498804D01*
X51914Y498957D01*
X51842Y499113D01*
X51817Y499147D01*
X51798Y499185D01*
X51694Y499321D01*
X51594Y499461D01*
X51564Y499490D01*
X51538Y499524D01*
X51410Y499638D01*
X51286Y499757D01*
X51251Y499780D01*
X51219Y499808D01*
X51072Y499896D01*
X50928Y499990D01*
X50889Y500006D01*
X50853Y500028D01*
X50692Y500088D01*
X50534Y500153D01*
X50492Y500161D01*
X50453Y500176D01*
X50283Y500205D01*
X50115Y500239D01*
X50073Y500240D01*
X50032Y500247D01*
X49860Y500244D01*
X49688Y500246D01*
X49647Y500239D01*
X49605Y500239D01*
X49437Y500203D01*
X49267Y500174D01*
X49228Y500159D01*
X49187Y500151D01*
X49029Y500085D01*
X48867Y500024D01*
X48831Y500003D01*
X48792Y499986D01*
X48649Y499892D01*
X48502Y499803D01*
X48465Y499771D01*
X48436Y499752D01*
X48377Y499695D01*
X48248Y499584D01*
X12516Y463852D01*
X12446Y463768D01*
X12369Y463691D01*
X12310Y463604D01*
X12244Y463523D01*
X12191Y463427D01*
X12130Y463337D01*
X12088Y463241D01*
X12037Y463149D01*
X12003Y463045D01*
X11960Y462945D01*
X11936Y462843D01*
X11904Y462743D01*
X11889Y462635D01*
X11865Y462529D01*
X11862Y462424D01*
X11848Y462320D01*
X11854Y462211D01*
X11851Y462102D01*
X11866Y461998D01*
X11872Y461893D01*
X11899Y461787D01*
X11915Y461680D01*
X11957Y461554D01*
X11976Y461479D01*
X11997Y461432D01*
X12021Y461361D01*
X12447Y460333D01*
X12447Y454067D01*
X10049Y448279D01*
X7886Y446116D01*
X7803Y446016D01*
X7713Y445922D01*
X7667Y445852D01*
X7614Y445787D01*
X7551Y445673D01*
X7480Y445564D01*
X7448Y445487D01*
X7407Y445413D01*
X7366Y445290D01*
X7317Y445170D01*
X7300Y445087D01*
X7274Y445007D01*
X7257Y444878D01*
X7231Y444751D01*
X7229Y444667D01*
X7218Y444584D01*
X7226Y444454D01*
X7223Y444324D01*
X7238Y444241D01*
X7242Y444158D01*
X7274Y444031D01*
X7296Y443903D01*
X7325Y443825D01*
X7346Y443743D01*
X7400Y443625D01*
X7446Y443503D01*
X7489Y443431D01*
X7524Y443355D01*
X7599Y443249D01*
X7667Y443138D01*
X7734Y443061D01*
X7772Y443007D01*
X7819Y442961D01*
X7886Y442884D01*
X10049Y440721D01*
X12447Y434933D01*
X12447Y428667D01*
X10886Y424899D01*
X10872Y424853D01*
X10851Y424809D01*
X10809Y424649D01*
X10760Y424491D01*
X10755Y424443D01*
X10742Y424396D01*
X10731Y424231D01*
X10712Y424066D01*
X10716Y424018D01*
X10712Y423970D01*
X10732Y423806D01*
X10744Y423640D01*
X10757Y423594D01*
X10763Y423546D01*
X10812Y423388D01*
X10855Y423228D01*
X10876Y423184D01*
X10891Y423138D01*
X10969Y422992D01*
X11041Y422843D01*
X11069Y422804D01*
X11092Y422762D01*
X11196Y422633D01*
X11295Y422500D01*
X11330Y422467D01*
X11360Y422429D01*
X11487Y422322D01*
X11608Y422210D01*
X11649Y422184D01*
X11686Y422153D01*
X11830Y422071D01*
X11970Y421983D01*
X12015Y421965D01*
X12057Y421941D01*
X12098Y421926D01*
X19301Y416487D01*
X24021Y408864D01*
X25669Y400050D01*
X24021Y391236D01*
X23597Y390552D01*
X23528Y390412D01*
X23451Y390275D01*
X23433Y390221D01*
X23407Y390169D01*
X23365Y390019D01*
X23315Y389871D01*
X23307Y389813D01*
X23292Y389758D01*
X23278Y389602D01*
X23257Y389448D01*
X23260Y389390D01*
X23255Y389332D01*
X23271Y389177D01*
X23278Y389021D01*
X23292Y388965D01*
X23298Y388907D01*
X23342Y388758D01*
X23379Y388606D01*
X23403Y388553D01*
X23419Y388498D01*
X23491Y388359D01*
X23555Y388217D01*
X23588Y388169D01*
X23614Y388118D01*
X23710Y387995D01*
X23800Y387867D01*
X23842Y387827D01*
X23877Y387781D01*
X23994Y387678D01*
X24106Y387569D01*
X24154Y387537D01*
X24198Y387499D01*
X24332Y387419D01*
X24462Y387333D01*
X24516Y387311D01*
X24565Y387282D01*
X24712Y387229D01*
X24856Y387168D01*
X24922Y387153D01*
X24967Y387136D01*
X25045Y387124D01*
X25183Y387091D01*
X25402Y387057D01*
X27189Y386476D01*
X28863Y385623D01*
X30384Y384518D01*
X31712Y383190D01*
X32817Y381669D01*
X33670Y379995D01*
X34251Y378208D01*
X34291Y377951D01*
X22860Y377951D01*
X22731Y377939D01*
X22601Y377937D01*
X22519Y377919D01*
X22435Y377911D01*
X22310Y377875D01*
X22183Y377849D01*
X22105Y377816D01*
X22025Y377793D01*
X21908Y377734D01*
X21789Y377684D01*
X21718Y377638D01*
X21643Y377600D01*
X21540Y377521D01*
X21432Y377450D01*
X21371Y377391D01*
X21305Y377340D01*
X21218Y377243D01*
X21125Y377153D01*
X21076Y377084D01*
X21020Y377021D01*
X21004Y376995D01*
X20923Y376942D01*
X20863Y376883D01*
X20796Y376832D01*
X20710Y376735D01*
X20616Y376645D01*
X20568Y376576D01*
X20512Y376513D01*
X20445Y376402D01*
X20370Y376296D01*
X20335Y376219D01*
X20292Y376147D01*
X20247Y376025D01*
X20193Y375907D01*
X20173Y375825D01*
X20144Y375747D01*
X20122Y375618D01*
X20091Y375492D01*
X20084Y375390D01*
X20073Y375325D01*
X20074Y375260D01*
X20067Y375158D01*
X20067Y363727D01*
X19810Y363767D01*
X18023Y364348D01*
X16349Y365201D01*
X14828Y366306D01*
X13500Y367634D01*
X12395Y369155D01*
X11542Y370829D01*
X10961Y372616D01*
X10667Y374472D01*
X10667Y374763D01*
X10665Y374781D01*
X10667Y374800D01*
X10646Y374993D01*
X10627Y375188D01*
X10622Y375206D01*
X10620Y375225D01*
X10563Y375411D01*
X10509Y375598D01*
X10500Y375615D01*
X10495Y375633D01*
X10404Y375806D01*
X10316Y375979D01*
X10305Y375994D01*
X10296Y376011D01*
X10174Y376164D01*
X10056Y376318D01*
X10042Y376331D01*
X10030Y376346D01*
X9883Y376473D01*
X9737Y376602D01*
X9721Y376612D01*
X9707Y376625D01*
X9539Y376722D01*
X9371Y376822D01*
X9354Y376829D01*
X9337Y376839D01*
X9153Y376903D01*
X8971Y376971D01*
X8952Y376974D01*
X8934Y376980D01*
X8742Y377009D01*
X8550Y377042D01*
X8531Y377041D01*
X8512Y377044D01*
X8318Y377037D01*
X8123Y377033D01*
X8104Y377029D01*
X8085Y377028D01*
X7757Y376961D01*
X3521Y375755D01*
X-2810Y376342D01*
X-2873Y376342D01*
X-2937Y376350D01*
X-3087Y376342D01*
X-3237Y376342D01*
X-3299Y376330D01*
X-3363Y376326D01*
X-3509Y376290D01*
X-3656Y376262D01*
X-3716Y376238D01*
X-3778Y376223D01*
X-3914Y376160D01*
X-4054Y376105D01*
X-4108Y376071D01*
X-4166Y376044D01*
X-4288Y375957D01*
X-4415Y375877D01*
X-4462Y375834D01*
X-4514Y375797D01*
X-4618Y375688D01*
X-4728Y375586D01*
X-4765Y375535D01*
X-4809Y375489D01*
X-4892Y375363D01*
X-4980Y375242D01*
X-5008Y375184D01*
X-5043Y375131D01*
X-5100Y374992D01*
X-5165Y374857D01*
X-5181Y374795D01*
X-5206Y374736D01*
X-5236Y374589D01*
X-5274Y374444D01*
X-5279Y374380D01*
X-5292Y374318D01*
X-5294Y374168D01*
X-5305Y374018D01*
X-5298Y373955D01*
X-5299Y373891D01*
X-5274Y373743D01*
X-5256Y373594D01*
X-5237Y373533D01*
X-5227Y373470D01*
X-5174Y373329D01*
X-5129Y373186D01*
X-5099Y373130D01*
X-5077Y373070D01*
X-4999Y372941D01*
X-4929Y372809D01*
X-4889Y372759D01*
X-4856Y372705D01*
X-4702Y372527D01*
X-4661Y372476D01*
X-4649Y372466D01*
X-4636Y372451D01*
X14222Y353592D01*
X15537Y350418D01*
X15537Y327926D01*
X15551Y327776D01*
X15557Y327625D01*
X15571Y327564D01*
X15577Y327501D01*
X15619Y327356D01*
X15652Y327209D01*
X15677Y327151D01*
X15695Y327091D01*
X15763Y326956D01*
X15824Y326818D01*
X15859Y326766D01*
X15888Y326709D01*
X15980Y326590D01*
X16065Y326465D01*
X16109Y326421D01*
X16148Y326371D01*
X16261Y326270D01*
X16367Y326164D01*
X16419Y326128D01*
X16467Y326086D01*
X16596Y326009D01*
X16721Y325924D01*
X16779Y325899D01*
X16833Y325866D01*
X16974Y325814D01*
X17113Y325754D01*
X17174Y325740D01*
X17233Y325718D01*
X17382Y325693D01*
X17529Y325660D01*
X17592Y325658D01*
X17654Y325647D01*
X17805Y325650D01*
X17956Y325645D01*
X18018Y325654D01*
X18081Y325656D01*
X18229Y325687D01*
X18378Y325710D01*
X18449Y325733D01*
X18499Y325744D01*
X18570Y325773D01*
X18697Y325815D01*
X19473Y326137D01*
X25739Y326137D01*
X31527Y323739D01*
X35957Y319309D01*
X38355Y313521D01*
X38355Y307255D01*
X35957Y301467D01*
X31527Y297037D01*
X25739Y294639D01*
X19473Y294639D01*
X18697Y294961D01*
X18552Y295006D01*
X18411Y295058D01*
X18349Y295068D01*
X18288Y295087D01*
X18138Y295104D01*
X17990Y295129D01*
X17927Y295128D01*
X17864Y295135D01*
X17713Y295123D01*
X17563Y295120D01*
X17501Y295107D01*
X17438Y295103D01*
X17292Y295063D01*
X17145Y295032D01*
X17086Y295008D01*
X17026Y294992D01*
X16890Y294926D01*
X16750Y294868D01*
X16698Y294834D01*
X16641Y294806D01*
X16519Y294716D01*
X16393Y294634D01*
X16348Y294590D01*
X16297Y294552D01*
X16195Y294441D01*
X16087Y294337D01*
X16050Y294285D01*
X16007Y294239D01*
X15927Y294111D01*
X15840Y293988D01*
X15814Y293930D01*
X15781Y293877D01*
X15726Y293736D01*
X15663Y293599D01*
X15648Y293538D01*
X15625Y293479D01*
X15597Y293330D01*
X15561Y293184D01*
X15556Y293110D01*
X15546Y293059D01*
X15546Y292982D01*
X15537Y292850D01*
X15537Y289441D01*
X15545Y289353D01*
X15544Y289265D01*
X15565Y289141D01*
X15577Y289016D01*
X15601Y288931D01*
X15616Y288844D01*
X15660Y288726D01*
X15695Y288605D01*
X15735Y288527D01*
X15766Y288444D01*
X15831Y288337D01*
X15888Y288224D01*
X15941Y288155D01*
X15987Y288079D01*
X16098Y287950D01*
X16148Y287886D01*
X16174Y287862D01*
X16206Y287825D01*
X16678Y287353D01*
X16715Y287297D01*
X16752Y287259D01*
X16796Y287200D01*
X16812Y287184D01*
X16826Y287167D01*
X16847Y287148D01*
X16853Y287140D01*
X16920Y287082D01*
X16939Y287065D01*
X17012Y286991D01*
X17051Y286963D01*
X17109Y286909D01*
X17128Y286897D01*
X17145Y286882D01*
X17173Y286865D01*
X17177Y286862D01*
X17220Y286837D01*
X17283Y286799D01*
X17361Y286744D01*
X17400Y286726D01*
X17470Y286682D01*
X17491Y286674D01*
X17511Y286662D01*
X17545Y286650D01*
X17547Y286648D01*
X17565Y286642D01*
X17670Y286603D01*
X17749Y286567D01*
X17787Y286558D01*
X17868Y286526D01*
X17890Y286522D01*
X17911Y286514D01*
X18086Y286484D01*
X18164Y286465D01*
X18205Y286462D01*
X18288Y286447D01*
X18310Y286447D01*
X18332Y286443D01*
X18439Y286445D01*
X18499Y286441D01*
X23085Y286441D01*
X23731Y286268D01*
X24310Y285933D01*
X24783Y285460D01*
X25118Y284881D01*
X25125Y284854D01*
X25155Y284773D01*
X25176Y284689D01*
X25229Y284573D01*
X25273Y284454D01*
X25318Y284380D01*
X25354Y284301D01*
X25428Y284197D01*
X25494Y284088D01*
X25552Y284023D01*
X25602Y283953D01*
X25694Y283865D01*
X25779Y283770D01*
X25848Y283717D01*
X25910Y283657D01*
X26016Y283588D01*
X26118Y283510D01*
X26195Y283471D01*
X26268Y283424D01*
X26385Y283375D01*
X26499Y283318D01*
X26582Y283294D01*
X26663Y283261D01*
X26787Y283235D01*
X26909Y283200D01*
X26996Y283192D01*
X27081Y283174D01*
X27208Y283172D01*
X27335Y283161D01*
X27421Y283169D01*
X27508Y283167D01*
X27633Y283189D01*
X27760Y283201D01*
X27843Y283225D01*
X27929Y283240D01*
X28048Y283284D01*
X28170Y283320D01*
X28248Y283359D01*
X28329Y283389D01*
X28437Y283455D01*
X28551Y283513D01*
X28620Y283566D01*
X28694Y283611D01*
X28825Y283724D01*
X28890Y283773D01*
X28913Y283799D01*
X28948Y283830D01*
X30323Y285204D01*
X31843Y286309D01*
X33517Y287162D01*
X35304Y287743D01*
X35307Y287743D01*
X35307Y269493D01*
X26161Y269493D01*
X26161Y270206D01*
X26161Y270207D01*
X26161Y270208D01*
X26142Y270412D01*
X26121Y270631D01*
X26121Y270632D01*
X26121Y270634D01*
X26065Y270826D01*
X26003Y271041D01*
X26002Y271042D01*
X26002Y271044D01*
X25906Y271233D01*
X25810Y271422D01*
X25810Y271423D01*
X25809Y271425D01*
X25681Y271591D01*
X25550Y271761D01*
X25549Y271762D01*
X25548Y271763D01*
X25398Y271896D01*
X25231Y272045D01*
X25230Y272046D01*
X25229Y272047D01*
X25050Y272155D01*
X24865Y272265D01*
X24864Y272266D01*
X24863Y272267D01*
X24669Y272338D01*
X24465Y272414D01*
X24463Y272414D01*
X24462Y272414D01*
X24256Y272449D01*
X24044Y272485D01*
X24042Y272485D01*
X24041Y272485D01*
X23831Y272480D01*
X23617Y272476D01*
X23615Y272476D01*
X23614Y272476D01*
X23284Y272413D01*
X23084Y272359D01*
X18627Y272359D01*
X18623Y272360D01*
X18607Y272359D01*
X18500Y272359D01*
X18499Y272359D01*
X18423Y272352D01*
X18241Y272348D01*
X18219Y272344D01*
X18196Y272343D01*
X18108Y272323D01*
X18073Y272319D01*
X17995Y272297D01*
X17823Y272261D01*
X17802Y272252D01*
X17780Y272247D01*
X17700Y272212D01*
X17663Y272201D01*
X17584Y272161D01*
X17488Y272121D01*
X17464Y272112D01*
X17462Y272110D01*
X17429Y272096D01*
X17410Y272084D01*
X17389Y272075D01*
X17321Y272028D01*
X17282Y272008D01*
X17205Y271950D01*
X17153Y271915D01*
X17103Y271884D01*
X17098Y271879D01*
X17072Y271862D01*
X17055Y271846D01*
X17037Y271833D01*
X16982Y271778D01*
X16943Y271748D01*
X16872Y271669D01*
X16862Y271658D01*
X16791Y271592D01*
X16784Y271584D01*
X16765Y271565D01*
X16752Y271546D01*
X16736Y271530D01*
X16695Y271470D01*
X16659Y271429D01*
X16655Y271424D01*
X14747Y269516D01*
X12413Y268549D01*
X1387Y268549D01*
X-947Y269516D01*
X-2734Y271303D01*
X-3701Y273637D01*
X-3701Y285163D01*
X-2734Y287497D01*
X-2406Y287825D01*
X-2350Y287893D01*
X-2287Y287954D01*
X-2214Y288057D01*
X-2134Y288154D01*
X-2091Y288231D01*
X-2040Y288303D01*
X-1988Y288418D01*
X-1927Y288528D01*
X-1900Y288612D01*
X-1863Y288692D01*
X-1833Y288814D01*
X-1794Y288934D01*
X-1782Y289021D01*
X-1761Y289107D01*
X-1749Y289277D01*
X-1738Y289357D01*
X-1740Y289393D01*
X-1737Y289441D01*
X-1737Y344176D01*
X-1745Y344264D01*
X-1744Y344352D01*
X-1765Y344476D01*
X-1777Y344601D01*
X-1801Y344686D01*
X-1816Y344773D01*
X-1860Y344891D01*
X-1895Y345012D01*
X-1935Y345090D01*
X-1966Y345173D01*
X-2031Y345281D01*
X-2088Y345393D01*
X-2141Y345463D01*
X-2187Y345538D01*
X-2298Y345667D01*
X-2348Y345731D01*
X-2374Y345755D01*
X-2406Y345792D01*
X-16134Y359520D01*
X-16218Y359589D01*
X-16295Y359666D01*
X-16382Y359725D01*
X-16463Y359792D01*
X-16558Y359845D01*
X-16648Y359906D01*
X-16745Y359948D01*
X-16837Y359999D01*
X-16940Y360033D01*
X-17040Y360076D01*
X-17143Y360099D01*
X-17242Y360132D01*
X-17351Y360146D01*
X-17457Y360170D01*
X-17562Y360174D01*
X-17666Y360187D01*
X-17775Y360181D01*
X-17884Y360185D01*
X-17987Y360169D01*
X-18092Y360163D01*
X-18198Y360137D01*
X-18306Y360120D01*
X-18432Y360079D01*
X-18507Y360060D01*
X-18554Y360038D01*
X-18624Y360015D01*
X-19473Y359663D01*
X-25739Y359663D01*
X-28462Y360792D01*
X-28607Y360836D01*
X-28748Y360888D01*
X-28810Y360899D01*
X-28871Y360917D01*
X-29021Y360934D01*
X-29169Y360959D01*
X-29232Y360958D01*
X-29295Y360965D01*
X-29446Y360954D01*
X-29596Y360951D01*
X-29658Y360938D01*
X-29721Y360933D01*
X-29867Y360894D01*
X-30014Y360863D01*
X-30073Y360839D01*
X-30133Y360822D01*
X-30269Y360757D01*
X-30409Y360699D01*
X-30461Y360664D01*
X-30518Y360637D01*
X-30640Y360547D01*
X-30766Y360464D01*
X-30811Y360420D01*
X-30862Y360383D01*
X-30964Y360272D01*
X-31072Y360167D01*
X-31109Y360115D01*
X-31152Y360069D01*
X-31232Y359942D01*
X-31319Y359818D01*
X-31345Y359761D01*
X-31378Y359707D01*
X-31433Y359567D01*
X-31496Y359429D01*
X-31511Y359368D01*
X-31534Y359310D01*
X-31562Y359161D01*
X-31598Y359015D01*
X-31603Y358940D01*
X-31613Y358890D01*
X-31613Y358813D01*
X-31622Y358680D01*
X-31622Y327120D01*
X-31608Y326970D01*
X-31602Y326819D01*
X-31588Y326757D01*
X-31582Y326695D01*
X-31541Y326550D01*
X-31507Y326402D01*
X-31481Y326345D01*
X-31464Y326284D01*
X-31396Y326150D01*
X-31335Y326011D01*
X-31300Y325959D01*
X-31271Y325903D01*
X-31179Y325783D01*
X-31094Y325659D01*
X-31050Y325614D01*
X-31011Y325564D01*
X-30899Y325464D01*
X-30792Y325357D01*
X-30740Y325322D01*
X-30692Y325280D01*
X-30563Y325202D01*
X-30438Y325117D01*
X-30380Y325092D01*
X-30326Y325060D01*
X-30185Y325007D01*
X-30046Y324947D01*
X-29985Y324934D01*
X-29926Y324912D01*
X-29777Y324887D01*
X-29630Y324853D01*
X-29567Y324851D01*
X-29505Y324841D01*
X-29354Y324844D01*
X-29203Y324838D01*
X-29141Y324848D01*
X-29078Y324849D01*
X-28930Y324880D01*
X-28781Y324903D01*
X-28710Y324927D01*
X-28660Y324937D01*
X-28589Y324967D01*
X-28462Y325008D01*
X-25739Y326137D01*
X-19473Y326137D01*
X-13685Y323739D01*
X-9255Y319309D01*
X-6857Y313521D01*
X-6857Y307255D01*
X-9255Y301467D01*
X-13685Y297037D01*
X-19473Y294639D01*
X-25739Y294639D01*
X-28462Y295768D01*
X-28607Y295812D01*
X-28748Y295864D01*
X-28810Y295875D01*
X-28871Y295893D01*
X-29021Y295910D01*
X-29169Y295935D01*
X-29232Y295934D01*
X-29295Y295941D01*
X-29446Y295930D01*
X-29596Y295927D01*
X-29658Y295914D01*
X-29721Y295909D01*
X-29867Y295870D01*
X-30014Y295839D01*
X-30073Y295815D01*
X-30133Y295798D01*
X-30269Y295733D01*
X-30409Y295675D01*
X-30461Y295640D01*
X-30518Y295613D01*
X-30640Y295523D01*
X-30766Y295440D01*
X-30811Y295396D01*
X-30862Y295359D01*
X-30964Y295248D01*
X-31072Y295143D01*
X-31109Y295091D01*
X-31152Y295045D01*
X-31232Y294918D01*
X-31319Y294794D01*
X-31345Y294737D01*
X-31378Y294683D01*
X-31433Y294543D01*
X-31496Y294405D01*
X-31511Y294344D01*
X-31534Y294286D01*
X-31562Y294137D01*
X-31598Y293991D01*
X-31603Y293916D01*
X-31613Y293866D01*
X-31613Y293789D01*
X-31622Y293656D01*
X-31622Y257937D01*
X-31614Y257849D01*
X-31615Y257761D01*
X-31594Y257637D01*
X-31582Y257512D01*
X-31558Y257427D01*
X-31543Y257340D01*
X-31499Y257222D01*
X-31464Y257101D01*
X-31424Y257023D01*
X-31393Y256940D01*
X-31328Y256832D01*
X-31271Y256720D01*
X-31218Y256650D01*
X-31172Y256575D01*
X-31061Y256446D01*
X-31011Y256382D01*
X-30985Y256358D01*
X-30953Y256321D01*
X-23079Y248447D01*
X-23011Y248391D01*
X-22950Y248328D01*
X-22847Y248255D01*
X-22750Y248175D01*
X-22673Y248132D01*
X-22601Y248081D01*
X-22486Y248029D01*
X-22376Y247968D01*
X-22293Y247941D01*
X-22212Y247904D01*
X-22090Y247874D01*
X-21970Y247835D01*
X-21883Y247823D01*
X-21797Y247802D01*
X-21627Y247790D01*
X-21547Y247779D01*
X-21511Y247781D01*
X-21463Y247778D01*
X25825Y247778D01*
X25851Y247780D01*
G37*
%LPC*%
G36*
X323523Y268633D02*
X323523Y268633D01*
X315496Y272629D01*
X309456Y279256D01*
X306217Y287617D01*
X306217Y296583D01*
X309456Y304944D01*
X315496Y311571D01*
X323523Y315567D01*
X332451Y316395D01*
X341075Y313941D01*
X348231Y308537D01*
X352951Y300914D01*
X354599Y292100D01*
X352951Y283286D01*
X348231Y275663D01*
X341075Y270259D01*
X332451Y267805D01*
X323523Y268633D01*
G37*
%LPD*%
%LPC*%
G36*
X168685Y536885D02*
X168685Y536885D01*
X168685Y546315D01*
X178115Y546315D01*
X178115Y536885D01*
X168685Y536885D01*
G37*
%LPD*%
%LPC*%
G36*
X154685Y536885D02*
X154685Y536885D01*
X154685Y546315D01*
X164115Y546315D01*
X164115Y536885D01*
X154685Y536885D01*
G37*
%LPD*%
%LPC*%
G36*
X154685Y522885D02*
X154685Y522885D01*
X154685Y532315D01*
X164115Y532315D01*
X164115Y522885D01*
X154685Y522885D01*
G37*
%LPD*%
%LPC*%
G36*
X168685Y522885D02*
X168685Y522885D01*
X168685Y532315D01*
X178115Y532315D01*
X178115Y522885D01*
X168685Y522885D01*
G37*
%LPD*%
%LPC*%
G36*
X25145Y372873D02*
X25145Y372873D01*
X34291Y372873D01*
X34251Y372616D01*
X33670Y370829D01*
X32817Y369155D01*
X31712Y367634D01*
X30384Y366306D01*
X28863Y365201D01*
X27189Y364348D01*
X25402Y363767D01*
X25145Y363727D01*
X25145Y372873D01*
G37*
%LPD*%
%LPC*%
G36*
X277049Y307559D02*
X277049Y307559D01*
X277049Y314101D01*
X282385Y314101D01*
X283031Y313928D01*
X283610Y313593D01*
X284083Y313120D01*
X284418Y312541D01*
X284591Y311895D01*
X284591Y307559D01*
X277049Y307559D01*
G37*
%LPD*%
%LPC*%
G36*
X145939Y297399D02*
X145939Y297399D01*
X145939Y301735D01*
X146020Y302035D01*
X146112Y302381D01*
X146447Y302960D01*
X146920Y303433D01*
X147499Y303768D01*
X148145Y303941D01*
X153481Y303941D01*
X153481Y297399D01*
X145939Y297399D01*
G37*
%LPD*%
%LPC*%
G36*
X261509Y307559D02*
X261509Y307559D01*
X261509Y311895D01*
X261682Y312541D01*
X262017Y313120D01*
X262490Y313593D01*
X263069Y313928D01*
X263715Y314101D01*
X269051Y314101D01*
X269051Y307559D01*
X261509Y307559D01*
G37*
%LPD*%
%LPC*%
G36*
X182685Y522885D02*
X182685Y522885D01*
X182685Y532315D01*
X187441Y532315D01*
X187441Y529765D01*
X187357Y529453D01*
X187357Y529452D01*
X187268Y529119D01*
X187050Y528743D01*
X186978Y528585D01*
X186900Y528431D01*
X186889Y528391D01*
X186872Y528354D01*
X186830Y528186D01*
X186783Y528020D01*
X186779Y527979D01*
X186769Y527940D01*
X186760Y527767D01*
X186744Y527595D01*
X186748Y527554D01*
X186746Y527513D01*
X186768Y527342D01*
X186785Y527169D01*
X186796Y527130D01*
X186802Y527090D01*
X186856Y526925D01*
X186904Y526759D01*
X186925Y526717D01*
X186935Y526684D01*
X186975Y526613D01*
X187050Y526457D01*
X187268Y526081D01*
X187441Y525435D01*
X187441Y522885D01*
X182685Y522885D01*
G37*
%LPD*%
%LPC*%
G36*
X182685Y536885D02*
X182685Y536885D01*
X182685Y546315D01*
X187441Y546315D01*
X187441Y543765D01*
X187280Y543164D01*
X187279Y543164D01*
X187279Y543163D01*
X187268Y543119D01*
X187050Y542743D01*
X186978Y542585D01*
X186900Y542431D01*
X186889Y542391D01*
X186872Y542354D01*
X186830Y542186D01*
X186783Y542020D01*
X186779Y541979D01*
X186769Y541940D01*
X186760Y541767D01*
X186744Y541595D01*
X186748Y541554D01*
X186746Y541513D01*
X186768Y541342D01*
X186785Y541169D01*
X186796Y541130D01*
X186802Y541090D01*
X186856Y540925D01*
X186904Y540759D01*
X186925Y540717D01*
X186935Y540684D01*
X186975Y540613D01*
X187050Y540457D01*
X187268Y540081D01*
X187441Y539435D01*
X187441Y536885D01*
X182685Y536885D01*
G37*
%LPD*%
%LPC*%
G36*
X145359Y536885D02*
X145359Y536885D01*
X145359Y539435D01*
X145431Y539701D01*
X145532Y540081D01*
X145750Y540457D01*
X145822Y540614D01*
X145900Y540769D01*
X145911Y540809D01*
X145928Y540846D01*
X145970Y541014D01*
X146017Y541180D01*
X146021Y541221D01*
X146031Y541260D01*
X146040Y541433D01*
X146056Y541605D01*
X146052Y541646D01*
X146054Y541687D01*
X146032Y541858D01*
X146015Y542031D01*
X146004Y542070D01*
X145998Y542110D01*
X145944Y542274D01*
X145896Y542441D01*
X145875Y542483D01*
X145865Y542516D01*
X145825Y542587D01*
X145750Y542743D01*
X145532Y543119D01*
X145359Y543765D01*
X145359Y546315D01*
X150115Y546315D01*
X150115Y536885D01*
X145359Y536885D01*
G37*
%LPD*%
%LPC*%
G36*
X175565Y513559D02*
X175565Y513559D01*
X174919Y513732D01*
X174543Y513950D01*
X174386Y514022D01*
X174231Y514100D01*
X174191Y514111D01*
X174154Y514128D01*
X173986Y514170D01*
X173820Y514217D01*
X173779Y514221D01*
X173740Y514231D01*
X173567Y514240D01*
X173395Y514256D01*
X173354Y514252D01*
X173313Y514254D01*
X173142Y514232D01*
X172969Y514215D01*
X172930Y514204D01*
X172890Y514198D01*
X172726Y514144D01*
X172559Y514096D01*
X172517Y514075D01*
X172484Y514065D01*
X172413Y514025D01*
X172257Y513950D01*
X171881Y513732D01*
X171235Y513559D01*
X168685Y513559D01*
X168685Y518315D01*
X178115Y518315D01*
X178115Y513559D01*
X175565Y513559D01*
G37*
%LPD*%
%LPC*%
G36*
X182685Y513559D02*
X182685Y513559D01*
X182685Y518315D01*
X187441Y518315D01*
X187441Y515765D01*
X187434Y515741D01*
X187268Y515119D01*
X186933Y514540D01*
X186460Y514067D01*
X185881Y513732D01*
X185235Y513559D01*
X182685Y513559D01*
G37*
%LPD*%
D10*
X257090Y392430D03*
X268690Y392430D03*
D11*
X273050Y275560D03*
X273050Y303560D03*
X157480Y265400D03*
X157480Y293400D03*
D10*
X243290Y628650D03*
X231690Y628650D03*
D12*
X-3302Y609600D02*
X-22098Y609600D01*
X-22098Y584200D02*
X-3302Y584200D01*
X-3302Y558800D02*
X-22098Y558800D01*
X-22098Y533400D02*
X-3302Y533400D01*
X-3302Y508000D02*
X-22098Y508000D01*
X-22098Y482600D02*
X-3302Y482600D01*
X-3302Y457200D02*
X-22098Y457200D01*
X-22098Y431800D02*
X-3302Y431800D01*
D13*
X213360Y410130D03*
X213360Y400130D03*
X193040Y415210D03*
X193040Y405210D03*
X50800Y449500D03*
X50800Y439500D03*
X51990Y576580D03*
X41990Y576580D03*
D14*
X78500Y607100D03*
X243600Y607100D03*
X230900Y607100D03*
X218200Y607100D03*
X205500Y607100D03*
X192800Y607100D03*
X180100Y607100D03*
X167400Y607100D03*
X154700Y607100D03*
X142000Y607100D03*
X129300Y607100D03*
X116600Y607100D03*
X103900Y607100D03*
X91200Y607100D03*
D15*
X66000Y589450D03*
X66000Y576750D03*
X66000Y564050D03*
X66000Y551350D03*
X66000Y538650D03*
X66000Y525950D03*
X66000Y513250D03*
X66000Y500550D03*
X66000Y487850D03*
X66000Y475150D03*
X66000Y462450D03*
X66000Y449750D03*
D14*
X78500Y432100D03*
X91200Y432100D03*
X103900Y432100D03*
X116600Y432100D03*
X129300Y432100D03*
X142000Y432100D03*
X154700Y432100D03*
X167400Y432100D03*
X180100Y432100D03*
X192800Y432100D03*
X205500Y432100D03*
X218200Y432100D03*
X230900Y432100D03*
X243600Y432100D03*
D16*
X180400Y548600D03*
X180400Y534600D03*
X180400Y520600D03*
X166400Y548600D03*
X166400Y534600D03*
X166400Y520600D03*
X152400Y548600D03*
X152400Y534600D03*
X152400Y520600D03*
D17*
X213800Y375600D03*
X213800Y365600D03*
X213800Y355600D03*
X213800Y345600D03*
X213800Y335600D03*
X268800Y335600D03*
X268800Y345600D03*
X268800Y355600D03*
X268800Y365600D03*
X268800Y375600D03*
D18*
X241300Y355600D03*
D19*
X176597Y306253D02*
X176597Y298347D01*
X176597Y306253D02*
X188303Y306253D01*
X188303Y298347D01*
X176597Y298347D01*
X176597Y299672D02*
X188303Y299672D01*
X188303Y300997D02*
X176597Y300997D01*
X176597Y302322D02*
X188303Y302322D01*
X188303Y303647D02*
X176597Y303647D01*
X176597Y304972D02*
X188303Y304972D01*
X176597Y283353D02*
X176597Y275447D01*
X176597Y283353D02*
X188303Y283353D01*
X188303Y275447D01*
X176597Y275447D01*
X176597Y276772D02*
X188303Y276772D01*
X188303Y278097D02*
X176597Y278097D01*
X176597Y279422D02*
X188303Y279422D01*
X188303Y280747D02*
X176597Y280747D01*
X176597Y282072D02*
X188303Y282072D01*
X176597Y260453D02*
X176597Y252547D01*
X176597Y260453D02*
X188303Y260453D01*
X188303Y252547D01*
X176597Y252547D01*
X176597Y253872D02*
X188303Y253872D01*
X188303Y255197D02*
X176597Y255197D01*
X176597Y256522D02*
X188303Y256522D01*
X188303Y257847D02*
X176597Y257847D01*
X176597Y259172D02*
X188303Y259172D01*
D20*
X243782Y264182D02*
X243782Y294618D01*
X254918Y294618D01*
X254918Y264182D01*
X243782Y264182D01*
X243782Y266049D02*
X254918Y266049D01*
X254918Y267916D02*
X243782Y267916D01*
X243782Y269783D02*
X254918Y269783D01*
X254918Y271650D02*
X243782Y271650D01*
X243782Y273517D02*
X254918Y273517D01*
X254918Y275384D02*
X243782Y275384D01*
X243782Y277251D02*
X254918Y277251D01*
X254918Y279118D02*
X243782Y279118D01*
X243782Y280985D02*
X254918Y280985D01*
X254918Y282852D02*
X243782Y282852D01*
X243782Y284719D02*
X254918Y284719D01*
X254918Y286586D02*
X243782Y286586D01*
X243782Y288453D02*
X254918Y288453D01*
X254918Y290320D02*
X243782Y290320D01*
X243782Y292187D02*
X254918Y292187D01*
X254918Y294054D02*
X243782Y294054D01*
D12*
X38100Y276098D02*
X38100Y257302D01*
X63500Y257302D02*
X63500Y276098D01*
X88900Y276098D02*
X88900Y257302D01*
X114300Y257302D02*
X114300Y276098D01*
D21*
X177600Y342900D03*
D22*
X152600Y342900D03*
D23*
X93472Y304800D03*
X101600Y304800D03*
X109728Y304800D03*
X55372Y304800D03*
X63500Y304800D03*
X71628Y304800D03*
D24*
X22606Y375412D03*
X22606Y310388D03*
X-22606Y375412D03*
X-22606Y310388D03*
D10*
X6900Y279400D03*
X18500Y279400D03*
D13*
X135970Y412750D03*
X145970Y412750D03*
D25*
X25400Y558800D02*
X41275Y574675D01*
X25400Y558800D02*
X-12700Y558800D01*
X41275Y574675D02*
X41990Y576580D01*
X244475Y609600D02*
X244475Y628650D01*
X243290Y628650D01*
X244475Y609600D02*
X243600Y607100D01*
X177800Y533400D02*
X168275Y533400D01*
X166400Y534600D01*
X177800Y533400D02*
X180400Y534600D01*
X177800Y549275D02*
X168275Y549275D01*
X166400Y548600D01*
X177800Y549275D02*
X180400Y548600D01*
X165100Y546100D02*
X165100Y536575D01*
X166400Y534600D01*
X165100Y546100D02*
X166400Y548600D01*
X168275Y520700D02*
X177800Y520700D01*
X168275Y520700D02*
X166400Y520600D01*
X177800Y520700D02*
X180400Y520600D01*
X152400Y520700D02*
X152400Y533400D01*
X152400Y534600D02*
X152400Y548600D01*
X152400Y520700D02*
X165100Y520700D01*
X166400Y520600D01*
X152400Y520700D02*
X152400Y520600D01*
X152400Y533400D02*
X165100Y533400D01*
X166400Y534600D01*
X152400Y534600D02*
X152400Y533400D01*
X241300Y549275D02*
X241300Y606425D01*
X241300Y549275D02*
X180975Y549275D01*
X241300Y606425D02*
X243600Y607100D01*
X180975Y549275D02*
X180400Y548600D01*
X41275Y577850D02*
X41275Y641350D01*
X238125Y641350D01*
X241300Y638175D01*
X241300Y628650D01*
X41990Y576580D02*
X41275Y577850D01*
X241300Y628650D02*
X243290Y628650D01*
X50800Y439500D02*
X42625Y439500D01*
X38100Y434975D01*
X38100Y334010D02*
X38100Y266700D01*
X38100Y334010D02*
X38100Y381000D01*
X38100Y434975D01*
X254000Y390525D02*
X254000Y355600D01*
X241300Y355600D01*
X254000Y390525D02*
X257090Y392430D01*
X241300Y355600D02*
X222250Y355600D01*
X213800Y355600D01*
X244475Y403225D02*
X244475Y431800D01*
X244475Y403225D02*
X247650Y403225D01*
X257175Y393700D01*
X244475Y431800D02*
X243600Y432100D01*
X257175Y393700D02*
X257090Y392430D01*
X222250Y355600D02*
X239713Y338138D01*
X273050Y304800D01*
X273050Y303560D01*
X180975Y301625D02*
X174625Y295275D01*
X158750Y295275D01*
X180975Y301625D02*
X182450Y302300D01*
X158750Y295275D02*
X157480Y293400D01*
X180975Y327025D02*
X180975Y342900D01*
X180975Y327025D02*
X180975Y304800D01*
X180975Y342900D02*
X177600Y342900D01*
X180975Y304800D02*
X182450Y302300D01*
X228600Y327025D02*
X239713Y338138D01*
X228600Y327025D02*
X180975Y327025D01*
X157480Y304830D02*
X157480Y293400D01*
X157480Y304830D02*
X124490Y337820D01*
X168275Y447675D02*
X168275Y517525D01*
X168275Y447675D02*
X234950Y447675D01*
X241300Y441325D01*
X241300Y434975D01*
X168275Y517525D02*
X166400Y520600D01*
X241300Y434975D02*
X243600Y432100D01*
D26*
X124490Y337820D03*
X38100Y334010D03*
D25*
X22606Y375412D02*
X28194Y381000D01*
X38100Y381000D01*
X18500Y279400D02*
X31200Y266700D01*
X38100Y266700D01*
X174625Y263525D02*
X180975Y257175D01*
X174625Y263525D02*
X158750Y263525D01*
X180975Y257175D02*
X182450Y256500D01*
X158750Y263525D02*
X157480Y265400D01*
X155575Y266700D02*
X114300Y266700D01*
X155575Y266700D02*
X157480Y265400D01*
X231775Y609600D02*
X231775Y628650D01*
X231690Y628650D01*
X231775Y609600D02*
X230900Y607100D01*
X225425Y625475D02*
X228600Y628650D01*
X209550Y625475D02*
X155575Y625475D01*
X209550Y625475D02*
X225425Y625475D01*
X228600Y628650D02*
X231690Y628650D01*
X269875Y387350D02*
X269875Y377825D01*
X269875Y387350D02*
X269875Y390525D01*
X268690Y392430D01*
X269875Y377825D02*
X268800Y375600D01*
X269875Y346075D02*
X276225Y346075D01*
X279400Y342900D01*
X292100Y342900D01*
X298450Y349250D01*
X298450Y387350D01*
X269875Y387350D01*
X269875Y346075D02*
X268800Y345600D01*
X231775Y295275D02*
X247650Y279400D01*
X249350Y279400D01*
X196850Y292100D02*
X184150Y279400D01*
X196850Y292100D02*
X231775Y292100D01*
X184150Y279400D02*
X182450Y279400D01*
X231775Y292100D02*
X231775Y295275D01*
X269875Y279400D02*
X273050Y276225D01*
X269875Y279400D02*
X249350Y279400D01*
X273050Y276225D02*
X273050Y275560D01*
X266700Y393700D02*
X266700Y409575D01*
X260350Y409575D01*
X266700Y393700D02*
X268690Y392430D01*
D27*
X155575Y625475D03*
X231775Y295275D03*
X260350Y409575D03*
X209550Y625475D03*
D25*
X145970Y412750D02*
X154559Y404161D01*
X154559Y399796D01*
D26*
X154559Y399796D03*
X98679Y505460D03*
D25*
X105029Y511810D01*
X137822Y511810D02*
X139396Y510236D01*
D26*
X139396Y510236D03*
D25*
X137822Y511810D02*
X105029Y511810D01*
X215900Y396875D02*
X222250Y390525D01*
X241300Y390525D01*
X276225Y365125D02*
X285750Y374650D01*
X276225Y365125D02*
X269875Y365125D01*
X215900Y396875D02*
X213360Y400130D01*
X268800Y365600D02*
X269875Y365125D01*
D27*
X241300Y390525D03*
X285750Y374650D03*
D25*
X193675Y387350D02*
X193675Y403225D01*
X193675Y387350D02*
X196850Y387350D01*
X268800Y355600D02*
X285750Y355600D01*
X193675Y403225D02*
X193040Y405210D01*
D27*
X196850Y387350D03*
X285750Y355600D03*
D25*
X212725Y346075D02*
X193675Y346075D01*
X174625Y365125D01*
X165100Y365125D01*
X212725Y346075D02*
X213800Y345600D01*
D27*
X165100Y365125D03*
D25*
X269875Y333375D02*
X295275Y333375D01*
X307975Y346075D01*
X307975Y469900D01*
X180975Y469900D01*
X268800Y335600D02*
X269875Y333375D01*
D27*
X180975Y469900D03*
D25*
X215900Y565150D02*
X215900Y606425D01*
X215900Y565150D02*
X152400Y565150D01*
X215900Y606425D02*
X218200Y607100D01*
D27*
X152400Y565150D03*
D25*
X123825Y476250D02*
X95250Y447675D01*
X85725Y447675D01*
X79375Y441325D01*
X79375Y434975D01*
X78500Y432100D01*
D27*
X123825Y476250D03*
D25*
X215900Y412750D02*
X228600Y412750D01*
X215900Y412750D02*
X213360Y410130D01*
X212725Y412750D02*
X206375Y419100D01*
X206375Y431800D01*
X212725Y412750D02*
X213360Y410130D01*
X206375Y431800D02*
X205500Y432100D01*
D27*
X228600Y412750D03*
D25*
X193675Y419100D02*
X193675Y431800D01*
X193675Y419100D02*
X193040Y415210D01*
X193675Y431800D02*
X192800Y432100D01*
X63500Y577850D02*
X53975Y577850D01*
X51990Y576580D01*
X63500Y577850D02*
X66000Y576750D01*
X63500Y450850D02*
X50800Y450850D01*
X50800Y449500D01*
X63500Y450850D02*
X66000Y449750D01*
X92075Y377825D02*
X92075Y304800D01*
X92075Y377825D02*
X174625Y377825D01*
X187325Y365125D01*
X212725Y365125D01*
X93472Y304800D02*
X92075Y304800D01*
X212725Y365125D02*
X213800Y365600D01*
X53975Y387350D02*
X53975Y304800D01*
X53975Y387350D02*
X177800Y387350D01*
X190500Y374650D01*
X212725Y374650D01*
X55372Y304800D02*
X53975Y304800D01*
X212725Y374650D02*
X213800Y375600D01*
X63500Y549275D02*
X34925Y549275D01*
X-6350Y508000D01*
X-12700Y508000D01*
X63500Y549275D02*
X66000Y551350D01*
X66675Y527050D02*
X98425Y527050D01*
X66675Y527050D02*
X66000Y525950D01*
D27*
X98425Y527050D03*
D25*
X63500Y511175D02*
X47625Y511175D01*
X-6350Y457200D01*
X-12700Y457200D01*
X63500Y511175D02*
X66000Y513250D01*
X63500Y536575D02*
X47625Y536575D01*
X-6350Y482600D01*
X-12700Y482600D01*
X63500Y536575D02*
X66000Y538650D01*
D26*
X129540Y400050D03*
D25*
X129540Y431860D02*
X129300Y432100D01*
X129540Y431860D02*
X129540Y419100D01*
X129540Y400050D01*
X6900Y348700D02*
X6900Y279400D01*
X-19812Y375412D02*
X-22606Y375412D01*
X-19812Y375412D02*
X6900Y348700D01*
X135890Y412750D02*
X135970Y412750D01*
X135890Y412750D02*
X129540Y419100D01*
X111125Y365125D02*
X111125Y304800D01*
X85725Y587375D02*
X85725Y593725D01*
X88900Y596900D01*
X88900Y606425D01*
X109728Y304800D02*
X111125Y304800D01*
X88900Y606425D02*
X91200Y607100D01*
D27*
X111125Y365125D03*
X85725Y587375D03*
D25*
X73025Y374650D02*
X73025Y304800D01*
X76200Y606425D02*
X63500Y606425D01*
X71628Y304800D02*
X73025Y304800D01*
X76200Y606425D02*
X78500Y607100D01*
D27*
X73025Y374650D03*
X63500Y606425D03*
D25*
X101600Y304800D02*
X101600Y292100D01*
X88900Y279400D01*
X88900Y266700D01*
X63500Y266700D02*
X63500Y304800D01*
M02*
