G04 EAGLE Gerber RS-274X export*
G75*
%MOMM*%
%FSLAX34Y34*%
%LPD*%
%INBottom Copper*%
%IPPOS*%
%AMOC8*
5,1,8,0,0,1.08239X$1,22.5*%
G01*
%ADD10C,1.879600*%
%ADD11R,0.600000X0.800000*%
%ADD12R,0.600000X0.600000*%
%ADD13R,0.800000X1.700000*%
%ADD14C,1.651000*%
%ADD15R,1.651000X1.651000*%
%ADD16C,1.879600*%
%ADD17C,0.457200*%
%ADD18C,1.422400*%
%ADD19C,1.412800*%

G36*
X326351Y247786D02*
X326351Y247786D01*
X326439Y247785D01*
X326563Y247806D01*
X326688Y247818D01*
X326773Y247842D01*
X326860Y247857D01*
X326978Y247901D01*
X327099Y247936D01*
X327177Y247976D01*
X327260Y248007D01*
X327368Y248072D01*
X327480Y248129D01*
X327550Y248182D01*
X327625Y248228D01*
X327754Y248339D01*
X327818Y248389D01*
X327842Y248415D01*
X327879Y248447D01*
X361153Y281721D01*
X361209Y281789D01*
X361272Y281850D01*
X361345Y281953D01*
X361425Y282050D01*
X361468Y282127D01*
X361519Y282199D01*
X361571Y282314D01*
X361632Y282424D01*
X361659Y282507D01*
X361696Y282588D01*
X361726Y282710D01*
X361765Y282830D01*
X361777Y282917D01*
X361798Y283003D01*
X361810Y283173D01*
X361821Y283253D01*
X361819Y283289D01*
X361822Y283337D01*
X361822Y643763D01*
X361814Y643851D01*
X361815Y643939D01*
X361794Y644063D01*
X361782Y644188D01*
X361758Y644273D01*
X361743Y644360D01*
X361699Y644478D01*
X361664Y644599D01*
X361624Y644677D01*
X361593Y644760D01*
X361528Y644868D01*
X361471Y644980D01*
X361418Y645050D01*
X361372Y645125D01*
X361261Y645254D01*
X361211Y645318D01*
X361185Y645342D01*
X361153Y645379D01*
X358946Y647586D01*
X358816Y647694D01*
X358690Y647807D01*
X358651Y647830D01*
X358617Y647859D01*
X358469Y647940D01*
X358324Y648028D01*
X358282Y648043D01*
X358243Y648065D01*
X358082Y648118D01*
X357924Y648177D01*
X357880Y648184D01*
X357837Y648198D01*
X357669Y648220D01*
X357503Y648249D01*
X357458Y648248D01*
X357414Y648254D01*
X357245Y648244D01*
X357076Y648241D01*
X357032Y648232D01*
X356987Y648230D01*
X356823Y648189D01*
X356658Y648154D01*
X356616Y648137D01*
X356573Y648126D01*
X356419Y648056D01*
X356263Y647991D01*
X356226Y647967D01*
X356185Y647948D01*
X356047Y647850D01*
X355906Y647757D01*
X355873Y647726D01*
X355837Y647700D01*
X355720Y647578D01*
X355598Y647461D01*
X355572Y647425D01*
X355541Y647392D01*
X355448Y647250D01*
X355351Y647113D01*
X355332Y647072D01*
X355308Y647035D01*
X355243Y646878D01*
X355173Y646725D01*
X355162Y646681D01*
X355145Y646640D01*
X355111Y646474D01*
X355070Y646310D01*
X355067Y646265D01*
X355058Y646221D01*
X355056Y646052D01*
X355046Y645884D01*
X355052Y645832D01*
X355051Y645794D01*
X355065Y645714D01*
X355083Y645550D01*
X355869Y641350D01*
X354221Y632536D01*
X349501Y624913D01*
X342345Y619509D01*
X333721Y617055D01*
X324793Y617883D01*
X316766Y621879D01*
X310726Y628506D01*
X307487Y636867D01*
X307487Y645833D01*
X310726Y654194D01*
X316766Y660820D01*
X319720Y662291D01*
X319817Y662351D01*
X319919Y662403D01*
X319998Y662464D01*
X320083Y662517D01*
X320167Y662594D01*
X320257Y662663D01*
X320324Y662738D01*
X320398Y662805D01*
X320466Y662897D01*
X320542Y662982D01*
X320593Y663067D01*
X320653Y663148D01*
X320703Y663250D01*
X320762Y663348D01*
X320796Y663442D01*
X320840Y663532D01*
X320870Y663641D01*
X320910Y663748D01*
X320927Y663847D01*
X320953Y663944D01*
X320962Y664057D01*
X320981Y664169D01*
X320979Y664270D01*
X320987Y664370D01*
X320975Y664483D01*
X320972Y664596D01*
X320952Y664695D01*
X320941Y664794D01*
X320908Y664903D01*
X320884Y665014D01*
X320846Y665107D01*
X320817Y665203D01*
X320764Y665304D01*
X320720Y665409D01*
X320665Y665492D01*
X320619Y665581D01*
X320548Y665670D01*
X320485Y665766D01*
X320416Y665838D01*
X320354Y665916D01*
X320268Y665991D01*
X320189Y666072D01*
X320107Y666130D01*
X320031Y666196D01*
X319933Y666253D01*
X319840Y666319D01*
X319748Y666360D01*
X319662Y666411D01*
X319555Y666449D01*
X319451Y666496D01*
X319354Y666520D01*
X319259Y666553D01*
X319147Y666571D01*
X319036Y666598D01*
X318911Y666607D01*
X318837Y666618D01*
X318782Y666616D01*
X318702Y666622D01*
X-8763Y666622D01*
X-8851Y666614D01*
X-8939Y666615D01*
X-9063Y666594D01*
X-9188Y666582D01*
X-9273Y666558D01*
X-9360Y666543D01*
X-9478Y666499D01*
X-9599Y666464D01*
X-9677Y666424D01*
X-9760Y666393D01*
X-9868Y666328D01*
X-9980Y666271D01*
X-10050Y666218D01*
X-10125Y666172D01*
X-10254Y666061D01*
X-10318Y666011D01*
X-10342Y665985D01*
X-10379Y665953D01*
X-30953Y645379D01*
X-31009Y645311D01*
X-31072Y645250D01*
X-31145Y645147D01*
X-31225Y645050D01*
X-31268Y644973D01*
X-31319Y644901D01*
X-31371Y644786D01*
X-31432Y644676D01*
X-31459Y644593D01*
X-31496Y644512D01*
X-31526Y644390D01*
X-31565Y644270D01*
X-31577Y644183D01*
X-31598Y644097D01*
X-31610Y643927D01*
X-31621Y643847D01*
X-31619Y643811D01*
X-31622Y643763D01*
X-31622Y626121D01*
X-31608Y625971D01*
X-31602Y625820D01*
X-31588Y625759D01*
X-31582Y625696D01*
X-31540Y625551D01*
X-31507Y625404D01*
X-31482Y625346D01*
X-31464Y625286D01*
X-31396Y625151D01*
X-31335Y625013D01*
X-31300Y624961D01*
X-31271Y624905D01*
X-31179Y624785D01*
X-31094Y624660D01*
X-31050Y624616D01*
X-31011Y624566D01*
X-30899Y624465D01*
X-30792Y624359D01*
X-30740Y624323D01*
X-30692Y624281D01*
X-30563Y624204D01*
X-30438Y624119D01*
X-30380Y624094D01*
X-30326Y624061D01*
X-30185Y624009D01*
X-30046Y623949D01*
X-29985Y623935D01*
X-29926Y623913D01*
X-29777Y623888D01*
X-29630Y623855D01*
X-29567Y623853D01*
X-29505Y623842D01*
X-29354Y623845D01*
X-29203Y623840D01*
X-29141Y623850D01*
X-29078Y623851D01*
X-28930Y623882D01*
X-28781Y623905D01*
X-28710Y623928D01*
X-28660Y623939D01*
X-28589Y623968D01*
X-28462Y624010D01*
X-25231Y625349D01*
X-169Y625349D01*
X5619Y622951D01*
X10049Y618521D01*
X12447Y612733D01*
X12447Y606467D01*
X11801Y604907D01*
X11744Y604723D01*
X11684Y604540D01*
X11681Y604519D01*
X11675Y604499D01*
X11653Y604308D01*
X11628Y604117D01*
X11629Y604096D01*
X11627Y604075D01*
X11641Y603882D01*
X11652Y603690D01*
X11657Y603670D01*
X11659Y603649D01*
X11709Y603463D01*
X11756Y603276D01*
X11764Y603257D01*
X11770Y603236D01*
X11853Y603064D01*
X11934Y602888D01*
X11946Y602871D01*
X11955Y602852D01*
X12070Y602697D01*
X12182Y602540D01*
X12197Y602525D01*
X12209Y602508D01*
X12351Y602378D01*
X12490Y602244D01*
X12507Y602232D01*
X12523Y602218D01*
X12686Y602116D01*
X12847Y602011D01*
X12867Y602003D01*
X12885Y601991D01*
X13065Y601921D01*
X13242Y601848D01*
X13263Y601844D01*
X13283Y601836D01*
X13472Y601800D01*
X13661Y601761D01*
X13682Y601761D01*
X13702Y601757D01*
X13895Y601758D01*
X14088Y601754D01*
X14108Y601758D01*
X14129Y601758D01*
X14319Y601794D01*
X14509Y601827D01*
X14528Y601834D01*
X14549Y601838D01*
X14728Y601909D01*
X14909Y601976D01*
X14927Y601987D01*
X14946Y601995D01*
X15109Y602098D01*
X15274Y602198D01*
X15292Y602214D01*
X15307Y602223D01*
X15358Y602271D01*
X15528Y602417D01*
X68133Y655022D01*
X71307Y656337D01*
X211268Y656337D01*
X214442Y655022D01*
X216872Y652592D01*
X218187Y649418D01*
X218187Y636756D01*
X218195Y636668D01*
X218194Y636580D01*
X218215Y636456D01*
X218227Y636331D01*
X218251Y636246D01*
X218266Y636159D01*
X218310Y636041D01*
X218345Y635921D01*
X218385Y635842D01*
X218416Y635759D01*
X218481Y635651D01*
X218538Y635539D01*
X218591Y635470D01*
X218637Y635394D01*
X218748Y635265D01*
X218798Y635201D01*
X218824Y635177D01*
X218856Y635140D01*
X220922Y633074D01*
X222965Y628143D01*
X222965Y622807D01*
X220922Y617876D01*
X218856Y615810D01*
X218800Y615742D01*
X218737Y615681D01*
X218664Y615578D01*
X218584Y615481D01*
X218541Y615404D01*
X218490Y615332D01*
X218438Y615217D01*
X218377Y615107D01*
X218350Y615023D01*
X218313Y614943D01*
X218283Y614821D01*
X218244Y614701D01*
X218232Y614614D01*
X218211Y614528D01*
X218199Y614358D01*
X218188Y614278D01*
X218190Y614242D01*
X218187Y614194D01*
X218187Y439547D01*
X218199Y439418D01*
X218201Y439288D01*
X218219Y439205D01*
X218227Y439122D01*
X218263Y438997D01*
X218289Y438870D01*
X218322Y438792D01*
X218345Y438711D01*
X218404Y438595D01*
X218454Y438475D01*
X218500Y438405D01*
X218538Y438330D01*
X218617Y438227D01*
X218688Y438118D01*
X218747Y438058D01*
X218798Y437991D01*
X218895Y437905D01*
X218985Y437812D01*
X219054Y437763D01*
X219117Y437707D01*
X219228Y437640D01*
X219334Y437565D01*
X219411Y437530D01*
X219483Y437487D01*
X219604Y437442D01*
X219723Y437388D01*
X219804Y437368D01*
X219883Y437339D01*
X220011Y437317D01*
X220138Y437286D01*
X220239Y437279D01*
X220304Y437268D01*
X220370Y437269D01*
X220472Y437262D01*
X243018Y437262D01*
X246192Y435947D01*
X258480Y423659D01*
X258548Y423603D01*
X258609Y423540D01*
X258712Y423467D01*
X258809Y423387D01*
X258886Y423344D01*
X258958Y423293D01*
X259073Y423241D01*
X259183Y423180D01*
X259266Y423153D01*
X259347Y423116D01*
X259469Y423086D01*
X259589Y423047D01*
X259676Y423035D01*
X259762Y423014D01*
X259932Y423002D01*
X260012Y422991D01*
X260048Y422993D01*
X260096Y422990D01*
X263018Y422990D01*
X267949Y420947D01*
X271722Y417174D01*
X273765Y412243D01*
X273765Y406907D01*
X271865Y402322D01*
X271821Y402177D01*
X271769Y402036D01*
X271758Y401974D01*
X271740Y401913D01*
X271723Y401763D01*
X271698Y401615D01*
X271699Y401552D01*
X271692Y401489D01*
X271703Y401338D01*
X271706Y401188D01*
X271719Y401126D01*
X271724Y401063D01*
X271763Y400917D01*
X271794Y400770D01*
X271818Y400711D01*
X271835Y400651D01*
X271900Y400515D01*
X271958Y400375D01*
X271993Y400323D01*
X272020Y400266D01*
X272110Y400144D01*
X272193Y400018D01*
X272237Y399973D01*
X272274Y399922D01*
X272385Y399820D01*
X272490Y399712D01*
X272541Y399675D01*
X272588Y399632D01*
X272716Y399552D01*
X272839Y399465D01*
X272896Y399439D01*
X272950Y399406D01*
X273090Y399351D01*
X273228Y399288D01*
X273289Y399273D01*
X273347Y399250D01*
X273496Y399222D01*
X273642Y399186D01*
X273717Y399181D01*
X273767Y399171D01*
X273844Y399171D01*
X273977Y399162D01*
X287468Y399162D01*
X290642Y397847D01*
X293072Y395417D01*
X294387Y392243D01*
X294387Y385931D01*
X294395Y385843D01*
X294394Y385755D01*
X294415Y385631D01*
X294427Y385506D01*
X294451Y385421D01*
X294466Y385334D01*
X294510Y385216D01*
X294545Y385096D01*
X294585Y385017D01*
X294616Y384934D01*
X294681Y384826D01*
X294738Y384714D01*
X294791Y384645D01*
X294837Y384569D01*
X294948Y384440D01*
X294998Y384376D01*
X295024Y384352D01*
X295056Y384315D01*
X297122Y382249D01*
X299165Y377318D01*
X299165Y371982D01*
X297122Y367051D01*
X296812Y366741D01*
X296729Y366641D01*
X296639Y366547D01*
X296593Y366477D01*
X296540Y366412D01*
X296477Y366298D01*
X296406Y366189D01*
X296374Y366112D01*
X296333Y366038D01*
X296293Y365915D01*
X296243Y365795D01*
X296226Y365712D01*
X296200Y365632D01*
X296183Y365504D01*
X296157Y365376D01*
X296155Y365292D01*
X296144Y365209D01*
X296152Y365079D01*
X296150Y364949D01*
X296164Y364866D01*
X296169Y364783D01*
X296200Y364657D01*
X296222Y364528D01*
X296252Y364449D01*
X296272Y364368D01*
X296326Y364250D01*
X296372Y364128D01*
X296415Y364056D01*
X296450Y363980D01*
X296526Y363874D01*
X296593Y363763D01*
X296660Y363686D01*
X296698Y363632D01*
X296746Y363586D01*
X296812Y363509D01*
X297122Y363199D01*
X299165Y358268D01*
X299165Y352932D01*
X297122Y348001D01*
X295056Y345935D01*
X295000Y345867D01*
X294937Y345806D01*
X294864Y345703D01*
X294784Y345606D01*
X294741Y345529D01*
X294690Y345457D01*
X294638Y345342D01*
X294577Y345232D01*
X294550Y345148D01*
X294513Y345068D01*
X294483Y344946D01*
X294444Y344826D01*
X294432Y344739D01*
X294411Y344653D01*
X294399Y344483D01*
X294388Y344403D01*
X294390Y344367D01*
X294387Y344319D01*
X294387Y280857D01*
X293072Y277683D01*
X290642Y275253D01*
X287468Y273938D01*
X223707Y273938D01*
X220533Y275253D01*
X211753Y284033D01*
X210438Y287207D01*
X210438Y360601D01*
X210430Y360689D01*
X210431Y360777D01*
X210410Y360901D01*
X210398Y361026D01*
X210374Y361111D01*
X210359Y361198D01*
X210315Y361316D01*
X210280Y361437D01*
X210240Y361515D01*
X210209Y361598D01*
X210144Y361706D01*
X210087Y361818D01*
X210034Y361888D01*
X209988Y361963D01*
X209877Y362092D01*
X209827Y362156D01*
X209801Y362180D01*
X209769Y362217D01*
X198720Y373266D01*
X198652Y373322D01*
X198591Y373385D01*
X198488Y373458D01*
X198391Y373538D01*
X198314Y373581D01*
X198242Y373632D01*
X198127Y373684D01*
X198017Y373745D01*
X197934Y373772D01*
X197853Y373809D01*
X197731Y373839D01*
X197611Y373878D01*
X197524Y373890D01*
X197438Y373911D01*
X197268Y373923D01*
X197188Y373934D01*
X197152Y373932D01*
X197104Y373935D01*
X194182Y373935D01*
X189251Y375978D01*
X185478Y379751D01*
X183435Y384682D01*
X183435Y390018D01*
X185478Y394949D01*
X189251Y398722D01*
X193781Y400599D01*
X193896Y400660D01*
X194015Y400712D01*
X194084Y400759D01*
X194159Y400798D01*
X194260Y400880D01*
X194368Y400953D01*
X194427Y401012D01*
X194493Y401065D01*
X194577Y401163D01*
X194669Y401255D01*
X194716Y401325D01*
X194771Y401389D01*
X194836Y401501D01*
X194909Y401609D01*
X194942Y401686D01*
X194984Y401759D01*
X195027Y401881D01*
X195079Y402001D01*
X195097Y402083D01*
X195125Y402162D01*
X195144Y402290D01*
X195173Y402417D01*
X195176Y402501D01*
X195188Y402584D01*
X195183Y402714D01*
X195188Y402844D01*
X195175Y402927D01*
X195172Y403011D01*
X195143Y403138D01*
X195123Y403266D01*
X195091Y403363D01*
X195076Y403427D01*
X195050Y403488D01*
X195018Y403585D01*
X194563Y404682D01*
X194563Y420818D01*
X195878Y423992D01*
X197069Y425183D01*
X197125Y425251D01*
X197188Y425312D01*
X197261Y425415D01*
X197341Y425512D01*
X197384Y425589D01*
X197435Y425661D01*
X197487Y425776D01*
X197548Y425886D01*
X197575Y425969D01*
X197612Y426050D01*
X197642Y426172D01*
X197681Y426292D01*
X197693Y426379D01*
X197714Y426465D01*
X197726Y426635D01*
X197737Y426715D01*
X197735Y426751D01*
X197738Y426799D01*
X197738Y430343D01*
X199053Y433517D01*
X200244Y434708D01*
X200300Y434776D01*
X200363Y434837D01*
X200436Y434940D01*
X200516Y435037D01*
X200559Y435114D01*
X200610Y435186D01*
X200662Y435301D01*
X200723Y435411D01*
X200750Y435494D01*
X200787Y435575D01*
X200817Y435697D01*
X200856Y435817D01*
X200868Y435904D01*
X200889Y435990D01*
X200901Y436160D01*
X200912Y436240D01*
X200910Y436276D01*
X200913Y436324D01*
X200913Y440065D01*
X200895Y440257D01*
X200881Y440449D01*
X200875Y440470D01*
X200873Y440491D01*
X200820Y440677D01*
X200770Y440862D01*
X200761Y440881D01*
X200755Y440901D01*
X200668Y441074D01*
X200584Y441247D01*
X200572Y441263D01*
X200562Y441282D01*
X200445Y441435D01*
X200330Y441590D01*
X200315Y441604D01*
X200302Y441621D01*
X200158Y441750D01*
X200017Y441880D01*
X199999Y441891D01*
X199983Y441905D01*
X199818Y442005D01*
X199655Y442107D01*
X199635Y442115D01*
X199617Y442125D01*
X199437Y442192D01*
X199257Y442262D01*
X199237Y442266D01*
X199217Y442273D01*
X199026Y442306D01*
X198837Y442341D01*
X198816Y442341D01*
X198796Y442344D01*
X198602Y442341D01*
X198410Y442340D01*
X198390Y442336D01*
X198369Y442336D01*
X198180Y442296D01*
X197991Y442260D01*
X197971Y442252D01*
X197951Y442248D01*
X197773Y442174D01*
X197594Y442103D01*
X197576Y442092D01*
X197556Y442084D01*
X197395Y441978D01*
X197232Y441875D01*
X197217Y441861D01*
X197200Y441849D01*
X197061Y441715D01*
X196920Y441584D01*
X196908Y441567D01*
X196893Y441552D01*
X196781Y441394D01*
X196667Y441239D01*
X196657Y441218D01*
X196646Y441203D01*
X196617Y441140D01*
X196517Y440940D01*
X196344Y440523D01*
X194557Y438736D01*
X192223Y437769D01*
X183697Y437769D01*
X183378Y437901D01*
X183273Y437934D01*
X183173Y437975D01*
X183070Y437996D01*
X182970Y438027D01*
X182861Y438039D01*
X182754Y438062D01*
X182650Y438063D01*
X182545Y438075D01*
X182436Y438067D01*
X182327Y438069D01*
X182224Y438051D01*
X182119Y438043D01*
X182014Y438015D01*
X181906Y437996D01*
X181808Y437959D01*
X181707Y437932D01*
X181625Y437892D01*
X181617Y437890D01*
X181566Y437869D01*
X181506Y437847D01*
X181494Y437839D01*
X178863Y436749D01*
X177927Y436749D01*
X177798Y436737D01*
X177668Y436735D01*
X177585Y436717D01*
X177502Y436709D01*
X177377Y436673D01*
X177250Y436647D01*
X177172Y436614D01*
X177091Y436591D01*
X176975Y436532D01*
X176855Y436482D01*
X176785Y436436D01*
X176710Y436398D01*
X176607Y436319D01*
X176498Y436248D01*
X176438Y436189D01*
X176371Y436138D01*
X176285Y436041D01*
X176192Y435951D01*
X176143Y435882D01*
X176087Y435819D01*
X176020Y435708D01*
X175945Y435602D01*
X175910Y435525D01*
X175867Y435453D01*
X175822Y435332D01*
X175768Y435213D01*
X175748Y435132D01*
X175719Y435053D01*
X175697Y434925D01*
X175666Y434798D01*
X175659Y434697D01*
X175648Y434632D01*
X175649Y434566D01*
X175642Y434464D01*
X175642Y374501D01*
X175650Y374413D01*
X175649Y374325D01*
X175670Y374201D01*
X175682Y374076D01*
X175706Y373991D01*
X175721Y373904D01*
X175765Y373786D01*
X175800Y373666D01*
X175840Y373587D01*
X175871Y373504D01*
X175936Y373396D01*
X175993Y373284D01*
X176046Y373215D01*
X176092Y373139D01*
X176203Y373010D01*
X176253Y372946D01*
X176279Y372922D01*
X176311Y372885D01*
X176472Y372724D01*
X178515Y367793D01*
X178515Y362457D01*
X176460Y357497D01*
X176434Y357465D01*
X176319Y357336D01*
X176298Y357300D01*
X176271Y357268D01*
X176188Y357117D01*
X176099Y356970D01*
X176085Y356931D01*
X176064Y356894D01*
X176011Y356731D01*
X175951Y356570D01*
X175944Y356528D01*
X175931Y356488D01*
X175909Y356318D01*
X175880Y356149D01*
X175881Y356107D01*
X175875Y356065D01*
X175885Y355893D01*
X175889Y355722D01*
X175897Y355681D01*
X175900Y355639D01*
X175941Y355472D01*
X175977Y355304D01*
X175993Y355265D01*
X176003Y355224D01*
X176075Y355068D01*
X176141Y354909D01*
X176164Y354874D01*
X176181Y354836D01*
X176281Y354696D01*
X176375Y354552D01*
X176404Y354522D01*
X176429Y354488D01*
X176553Y354369D01*
X176672Y354246D01*
X176707Y354221D01*
X176737Y354192D01*
X176881Y354098D01*
X177021Y353999D01*
X177059Y353982D01*
X177095Y353959D01*
X177253Y353893D01*
X177410Y353822D01*
X177451Y353812D01*
X177489Y353796D01*
X177657Y353761D01*
X177825Y353720D01*
X177873Y353717D01*
X177908Y353710D01*
X177989Y353708D01*
X178159Y353696D01*
X178450Y353696D01*
X180128Y353430D01*
X181744Y352905D01*
X183258Y352133D01*
X184633Y351134D01*
X185834Y349933D01*
X186833Y348558D01*
X187605Y347044D01*
X188130Y345428D01*
X188168Y345185D01*
X177600Y345185D01*
X177471Y345173D01*
X177341Y345171D01*
X177259Y345153D01*
X177175Y345145D01*
X177050Y345109D01*
X176923Y345083D01*
X176846Y345050D01*
X176765Y345027D01*
X176649Y344968D01*
X176529Y344919D01*
X176458Y344872D01*
X176384Y344834D01*
X176281Y344755D01*
X176172Y344684D01*
X176160Y344673D01*
X176111Y344625D01*
X176045Y344574D01*
X176044Y344574D01*
X175958Y344477D01*
X175864Y344386D01*
X175816Y344318D01*
X175760Y344255D01*
X175693Y344144D01*
X175618Y344038D01*
X175583Y343961D01*
X175540Y343889D01*
X175495Y343767D01*
X175441Y343649D01*
X175421Y343567D01*
X175392Y343489D01*
X175370Y343360D01*
X175339Y343234D01*
X175332Y343132D01*
X175321Y343067D01*
X175322Y343001D01*
X175315Y342900D01*
X175315Y332332D01*
X175072Y332370D01*
X173456Y332895D01*
X171942Y333667D01*
X170737Y334542D01*
X170578Y334636D01*
X170421Y334734D01*
X170394Y334745D01*
X170370Y334759D01*
X170196Y334823D01*
X170023Y334890D01*
X169995Y334895D01*
X169968Y334905D01*
X169785Y334935D01*
X169603Y334969D01*
X169575Y334969D01*
X169547Y334973D01*
X169362Y334968D01*
X169176Y334968D01*
X169148Y334963D01*
X169120Y334962D01*
X168939Y334922D01*
X168757Y334888D01*
X168730Y334877D01*
X168702Y334871D01*
X168532Y334799D01*
X168360Y334731D01*
X168335Y334715D01*
X168309Y334704D01*
X168155Y334602D01*
X167998Y334503D01*
X167978Y334483D01*
X167954Y334467D01*
X167822Y334338D01*
X167686Y334211D01*
X167669Y334188D01*
X167649Y334168D01*
X167543Y334017D01*
X167433Y333867D01*
X167419Y333838D01*
X167405Y333818D01*
X167373Y333748D01*
X167283Y333568D01*
X166239Y331048D01*
X164452Y329261D01*
X162118Y328294D01*
X150955Y328294D01*
X150867Y328286D01*
X150779Y328287D01*
X150655Y328266D01*
X150530Y328254D01*
X150445Y328230D01*
X150358Y328215D01*
X150240Y328171D01*
X150119Y328136D01*
X150041Y328096D01*
X149958Y328065D01*
X149850Y328000D01*
X149738Y327943D01*
X149668Y327890D01*
X149593Y327844D01*
X149464Y327733D01*
X149400Y327683D01*
X149376Y327657D01*
X149339Y327625D01*
X123606Y301892D01*
X123550Y301824D01*
X123487Y301763D01*
X123414Y301660D01*
X123334Y301563D01*
X123291Y301486D01*
X123240Y301414D01*
X123188Y301299D01*
X123127Y301189D01*
X123100Y301106D01*
X123063Y301025D01*
X123033Y300903D01*
X122994Y300783D01*
X122982Y300696D01*
X122961Y300610D01*
X122949Y300440D01*
X122938Y300360D01*
X122940Y300324D01*
X122937Y300276D01*
X122937Y290680D01*
X122945Y290592D01*
X122944Y290504D01*
X122965Y290380D01*
X122977Y290255D01*
X123001Y290170D01*
X123016Y290083D01*
X123060Y289965D01*
X123095Y289844D01*
X123135Y289766D01*
X123166Y289683D01*
X123231Y289575D01*
X123288Y289463D01*
X123341Y289393D01*
X123387Y289318D01*
X123498Y289189D01*
X123548Y289124D01*
X123574Y289101D01*
X123606Y289064D01*
X127651Y285019D01*
X130049Y279231D01*
X130049Y254169D01*
X128710Y250938D01*
X128666Y250793D01*
X128613Y250652D01*
X128603Y250590D01*
X128584Y250529D01*
X128567Y250379D01*
X128542Y250231D01*
X128544Y250168D01*
X128536Y250105D01*
X128548Y249954D01*
X128551Y249804D01*
X128564Y249742D01*
X128569Y249679D01*
X128608Y249533D01*
X128639Y249386D01*
X128663Y249327D01*
X128679Y249267D01*
X128745Y249131D01*
X128803Y248991D01*
X128838Y248939D01*
X128865Y248882D01*
X128955Y248760D01*
X129038Y248634D01*
X129081Y248589D01*
X129119Y248538D01*
X129230Y248436D01*
X129335Y248328D01*
X129386Y248291D01*
X129432Y248248D01*
X129560Y248168D01*
X129683Y248081D01*
X129741Y248055D01*
X129794Y248022D01*
X129935Y247967D01*
X130072Y247904D01*
X130133Y247889D01*
X130192Y247866D01*
X130340Y247838D01*
X130487Y247802D01*
X130561Y247797D01*
X130612Y247787D01*
X130689Y247787D01*
X130821Y247778D01*
X326263Y247778D01*
X326351Y247786D01*
G37*
G36*
X25851Y247780D02*
X25851Y247780D01*
X25878Y247778D01*
X26064Y247800D01*
X26250Y247818D01*
X26276Y247825D01*
X26302Y247828D01*
X26481Y247884D01*
X26660Y247936D01*
X26684Y247948D01*
X26710Y247956D01*
X26875Y248045D01*
X27041Y248129D01*
X27063Y248145D01*
X27086Y248158D01*
X27232Y248275D01*
X27380Y248389D01*
X27398Y248409D01*
X27419Y248426D01*
X27540Y248568D01*
X27664Y248708D01*
X27678Y248731D01*
X27696Y248751D01*
X27788Y248913D01*
X27884Y249074D01*
X27894Y249099D01*
X27907Y249122D01*
X27968Y249298D01*
X28033Y249474D01*
X28037Y249501D01*
X28046Y249526D01*
X28072Y249711D01*
X28104Y249895D01*
X28103Y249922D01*
X28107Y249949D01*
X28099Y250135D01*
X28095Y250322D01*
X28089Y250349D01*
X28088Y250376D01*
X28046Y250557D01*
X28007Y250740D01*
X27997Y250765D01*
X27991Y250791D01*
X27861Y251100D01*
X27036Y252719D01*
X26455Y254506D01*
X26161Y256362D01*
X26161Y263907D01*
X37592Y263907D01*
X37721Y263919D01*
X37851Y263921D01*
X37933Y263939D01*
X38017Y263947D01*
X38142Y263983D01*
X38269Y264009D01*
X38347Y264042D01*
X38427Y264065D01*
X38544Y264124D01*
X38663Y264174D01*
X38734Y264220D01*
X38809Y264258D01*
X38912Y264337D01*
X39020Y264408D01*
X39081Y264467D01*
X39147Y264518D01*
X39234Y264615D01*
X39327Y264705D01*
X39376Y264774D01*
X39432Y264836D01*
X39499Y264948D01*
X39574Y265054D01*
X39608Y265131D01*
X39632Y265170D01*
X39680Y265190D01*
X39750Y265236D01*
X39825Y265274D01*
X39928Y265353D01*
X40037Y265424D01*
X40097Y265483D01*
X40164Y265534D01*
X40250Y265631D01*
X40343Y265721D01*
X40392Y265790D01*
X40448Y265853D01*
X40515Y265964D01*
X40590Y266070D01*
X40625Y266147D01*
X40668Y266219D01*
X40713Y266341D01*
X40767Y266459D01*
X40787Y266541D01*
X40816Y266619D01*
X40838Y266748D01*
X40869Y266874D01*
X40876Y266976D01*
X40887Y267041D01*
X40886Y267106D01*
X40893Y267208D01*
X40893Y287743D01*
X40896Y287743D01*
X42683Y287162D01*
X44357Y286309D01*
X45878Y285204D01*
X46534Y284548D01*
X46650Y284452D01*
X46761Y284349D01*
X46814Y284316D01*
X46863Y284276D01*
X46995Y284203D01*
X47123Y284123D01*
X47181Y284100D01*
X47236Y284069D01*
X47380Y284022D01*
X47520Y283967D01*
X47582Y283956D01*
X47642Y283936D01*
X47792Y283916D01*
X47940Y283888D01*
X48003Y283889D01*
X48066Y283880D01*
X48216Y283889D01*
X48367Y283889D01*
X48429Y283901D01*
X48492Y283905D01*
X48638Y283941D01*
X48787Y283969D01*
X48846Y283993D01*
X48907Y284008D01*
X49044Y284071D01*
X49184Y284126D01*
X49237Y284160D01*
X49295Y284186D01*
X49418Y284274D01*
X49545Y284354D01*
X49591Y284397D01*
X49643Y284434D01*
X49747Y284543D01*
X49857Y284646D01*
X49895Y284696D01*
X49938Y284742D01*
X50021Y284869D01*
X50084Y284954D01*
X54579Y289449D01*
X60367Y291847D01*
X66633Y291847D01*
X72421Y289449D01*
X74584Y287286D01*
X74650Y287231D01*
X74703Y287177D01*
X74736Y287154D01*
X74778Y287113D01*
X74848Y287067D01*
X74913Y287014D01*
X75010Y286960D01*
X75052Y286930D01*
X75072Y286921D01*
X75136Y286880D01*
X75213Y286848D01*
X75287Y286807D01*
X75410Y286766D01*
X75423Y286761D01*
X75440Y286753D01*
X75445Y286752D01*
X75530Y286717D01*
X75613Y286700D01*
X75693Y286674D01*
X75822Y286657D01*
X75949Y286631D01*
X76033Y286629D01*
X76116Y286618D01*
X76246Y286626D01*
X76376Y286623D01*
X76459Y286638D01*
X76542Y286642D01*
X76669Y286674D01*
X76797Y286696D01*
X76875Y286725D01*
X76957Y286746D01*
X77038Y286783D01*
X77046Y286785D01*
X77075Y286800D01*
X77197Y286846D01*
X77269Y286889D01*
X77345Y286924D01*
X77404Y286966D01*
X77427Y286978D01*
X77472Y287012D01*
X77562Y287067D01*
X77639Y287134D01*
X77693Y287172D01*
X77731Y287211D01*
X77766Y287238D01*
X77784Y287259D01*
X77816Y287286D01*
X79979Y289449D01*
X85767Y291847D01*
X92033Y291847D01*
X97821Y289449D01*
X99984Y287286D01*
X100050Y287231D01*
X100103Y287177D01*
X100136Y287154D01*
X100178Y287113D01*
X100248Y287067D01*
X100313Y287014D01*
X100410Y286960D01*
X100452Y286930D01*
X100472Y286921D01*
X100536Y286880D01*
X100613Y286848D01*
X100687Y286807D01*
X100810Y286766D01*
X100823Y286761D01*
X100840Y286753D01*
X100845Y286752D01*
X100930Y286717D01*
X101013Y286700D01*
X101093Y286674D01*
X101222Y286657D01*
X101349Y286631D01*
X101433Y286629D01*
X101516Y286618D01*
X101646Y286626D01*
X101776Y286623D01*
X101859Y286638D01*
X101942Y286642D01*
X102069Y286674D01*
X102197Y286696D01*
X102275Y286725D01*
X102357Y286746D01*
X102438Y286783D01*
X102446Y286785D01*
X102475Y286800D01*
X102597Y286846D01*
X102669Y286889D01*
X102745Y286924D01*
X102804Y286966D01*
X102827Y286978D01*
X102872Y287012D01*
X102962Y287067D01*
X103039Y287134D01*
X103093Y287172D01*
X103131Y287211D01*
X103166Y287238D01*
X103184Y287259D01*
X103216Y287286D01*
X104994Y289064D01*
X105050Y289132D01*
X105113Y289193D01*
X105186Y289296D01*
X105266Y289393D01*
X105309Y289470D01*
X105360Y289542D01*
X105412Y289657D01*
X105473Y289767D01*
X105500Y289850D01*
X105537Y289931D01*
X105567Y290053D01*
X105606Y290173D01*
X105618Y290260D01*
X105639Y290346D01*
X105651Y290515D01*
X105662Y290596D01*
X105660Y290632D01*
X105663Y290680D01*
X105663Y306518D01*
X106978Y309692D01*
X137325Y340039D01*
X137381Y340107D01*
X137444Y340168D01*
X137517Y340271D01*
X137597Y340368D01*
X137640Y340445D01*
X137691Y340517D01*
X137743Y340632D01*
X137804Y340742D01*
X137831Y340825D01*
X137868Y340906D01*
X137898Y341028D01*
X137937Y341148D01*
X137949Y341235D01*
X137970Y341321D01*
X137982Y341490D01*
X137993Y341571D01*
X137991Y341607D01*
X137994Y341655D01*
X137994Y351403D01*
X137978Y351574D01*
X137968Y351746D01*
X137958Y351786D01*
X137954Y351828D01*
X137907Y351994D01*
X137865Y352160D01*
X137848Y352198D01*
X137836Y352239D01*
X137758Y352392D01*
X137687Y352548D01*
X137662Y352582D01*
X137643Y352620D01*
X137539Y352756D01*
X137439Y352896D01*
X137409Y352925D01*
X137383Y352959D01*
X137255Y353073D01*
X137131Y353192D01*
X137096Y353215D01*
X137064Y353243D01*
X136917Y353331D01*
X136773Y353425D01*
X136734Y353441D01*
X136698Y353463D01*
X136537Y353523D01*
X136379Y353588D01*
X136337Y353596D01*
X136298Y353611D01*
X136128Y353640D01*
X135960Y353674D01*
X135918Y353675D01*
X135877Y353682D01*
X135705Y353679D01*
X135533Y353681D01*
X135492Y353674D01*
X135450Y353674D01*
X135282Y353638D01*
X135112Y353609D01*
X135073Y353594D01*
X135032Y353586D01*
X134874Y353520D01*
X134712Y353459D01*
X134676Y353438D01*
X134637Y353421D01*
X134494Y353327D01*
X134347Y353238D01*
X134310Y353206D01*
X134281Y353187D01*
X134222Y353130D01*
X134093Y353019D01*
X125542Y344468D01*
X122368Y343153D01*
X14792Y343153D01*
X11618Y344468D01*
X8867Y347219D01*
X-8214Y364300D01*
X-8314Y364383D01*
X-8408Y364473D01*
X-8478Y364519D01*
X-8543Y364572D01*
X-8657Y364635D01*
X-8766Y364706D01*
X-8843Y364738D01*
X-8917Y364779D01*
X-9040Y364819D01*
X-9161Y364869D01*
X-9243Y364886D01*
X-9323Y364912D01*
X-9452Y364929D01*
X-9579Y364955D01*
X-9663Y364957D01*
X-9746Y364968D01*
X-9876Y364960D01*
X-10006Y364963D01*
X-10089Y364948D01*
X-10173Y364943D01*
X-10299Y364912D01*
X-10427Y364890D01*
X-10505Y364861D01*
X-10587Y364840D01*
X-10705Y364786D01*
X-10827Y364740D01*
X-10899Y364697D01*
X-10975Y364662D01*
X-11081Y364587D01*
X-11192Y364519D01*
X-11269Y364452D01*
X-11323Y364414D01*
X-11369Y364367D01*
X-11446Y364300D01*
X-13685Y362061D01*
X-19473Y359663D01*
X-25739Y359663D01*
X-28462Y360792D01*
X-28607Y360836D01*
X-28748Y360888D01*
X-28810Y360899D01*
X-28871Y360917D01*
X-29021Y360934D01*
X-29169Y360959D01*
X-29232Y360958D01*
X-29295Y360965D01*
X-29446Y360954D01*
X-29596Y360951D01*
X-29658Y360938D01*
X-29721Y360933D01*
X-29867Y360894D01*
X-30014Y360863D01*
X-30073Y360839D01*
X-30133Y360822D01*
X-30269Y360757D01*
X-30409Y360699D01*
X-30461Y360664D01*
X-30518Y360637D01*
X-30640Y360547D01*
X-30766Y360464D01*
X-30811Y360420D01*
X-30862Y360383D01*
X-30964Y360272D01*
X-31072Y360167D01*
X-31109Y360115D01*
X-31152Y360069D01*
X-31232Y359942D01*
X-31319Y359818D01*
X-31345Y359761D01*
X-31378Y359707D01*
X-31433Y359567D01*
X-31496Y359429D01*
X-31511Y359368D01*
X-31534Y359310D01*
X-31562Y359161D01*
X-31598Y359015D01*
X-31603Y358940D01*
X-31613Y358890D01*
X-31613Y358813D01*
X-31622Y358680D01*
X-31622Y327120D01*
X-31608Y326970D01*
X-31602Y326819D01*
X-31588Y326757D01*
X-31582Y326695D01*
X-31541Y326550D01*
X-31507Y326402D01*
X-31481Y326345D01*
X-31464Y326284D01*
X-31396Y326150D01*
X-31335Y326011D01*
X-31300Y325959D01*
X-31271Y325903D01*
X-31179Y325783D01*
X-31094Y325659D01*
X-31050Y325614D01*
X-31011Y325564D01*
X-30899Y325464D01*
X-30792Y325357D01*
X-30740Y325322D01*
X-30692Y325280D01*
X-30563Y325202D01*
X-30438Y325117D01*
X-30380Y325092D01*
X-30326Y325060D01*
X-30185Y325007D01*
X-30046Y324947D01*
X-29985Y324934D01*
X-29926Y324912D01*
X-29777Y324887D01*
X-29630Y324853D01*
X-29567Y324851D01*
X-29505Y324841D01*
X-29354Y324844D01*
X-29203Y324838D01*
X-29141Y324848D01*
X-29078Y324849D01*
X-28930Y324880D01*
X-28781Y324903D01*
X-28710Y324927D01*
X-28660Y324937D01*
X-28589Y324967D01*
X-28462Y325008D01*
X-25739Y326137D01*
X-19473Y326137D01*
X-13685Y323739D01*
X-9255Y319309D01*
X-6857Y313521D01*
X-6857Y307255D01*
X-9255Y301467D01*
X-13685Y297037D01*
X-19473Y294639D01*
X-25739Y294639D01*
X-28462Y295768D01*
X-28607Y295812D01*
X-28748Y295864D01*
X-28810Y295875D01*
X-28871Y295893D01*
X-29021Y295910D01*
X-29169Y295935D01*
X-29232Y295934D01*
X-29295Y295941D01*
X-29446Y295930D01*
X-29596Y295927D01*
X-29658Y295914D01*
X-29721Y295909D01*
X-29867Y295870D01*
X-30014Y295839D01*
X-30073Y295815D01*
X-30133Y295798D01*
X-30269Y295733D01*
X-30409Y295675D01*
X-30461Y295640D01*
X-30518Y295613D01*
X-30640Y295523D01*
X-30766Y295440D01*
X-30811Y295396D01*
X-30862Y295359D01*
X-30964Y295248D01*
X-31072Y295143D01*
X-31109Y295091D01*
X-31152Y295045D01*
X-31232Y294918D01*
X-31319Y294794D01*
X-31345Y294737D01*
X-31378Y294683D01*
X-31433Y294543D01*
X-31496Y294405D01*
X-31511Y294344D01*
X-31534Y294286D01*
X-31562Y294137D01*
X-31598Y293991D01*
X-31603Y293916D01*
X-31613Y293866D01*
X-31613Y293789D01*
X-31622Y293656D01*
X-31622Y270637D01*
X-31614Y270549D01*
X-31615Y270461D01*
X-31601Y270376D01*
X-31601Y270371D01*
X-31596Y270350D01*
X-31594Y270337D01*
X-31582Y270212D01*
X-31558Y270127D01*
X-31543Y270040D01*
X-31516Y269968D01*
X-31513Y269953D01*
X-31496Y269913D01*
X-31464Y269801D01*
X-31424Y269723D01*
X-31393Y269640D01*
X-31359Y269583D01*
X-31349Y269559D01*
X-31317Y269510D01*
X-31271Y269420D01*
X-31218Y269350D01*
X-31172Y269275D01*
X-31131Y269227D01*
X-31114Y269202D01*
X-31066Y269152D01*
X-31061Y269146D01*
X-31011Y269082D01*
X-30985Y269058D01*
X-30953Y269021D01*
X-10379Y248447D01*
X-10311Y248391D01*
X-10250Y248328D01*
X-10147Y248255D01*
X-10050Y248175D01*
X-9973Y248132D01*
X-9901Y248081D01*
X-9786Y248029D01*
X-9676Y247968D01*
X-9593Y247941D01*
X-9512Y247904D01*
X-9390Y247874D01*
X-9270Y247835D01*
X-9183Y247823D01*
X-9097Y247802D01*
X-8927Y247790D01*
X-8847Y247779D01*
X-8811Y247781D01*
X-8763Y247778D01*
X25825Y247778D01*
X25851Y247780D01*
G37*
G36*
X62931Y360443D02*
X62931Y360443D01*
X63102Y360453D01*
X63143Y360463D01*
X63185Y360467D01*
X63351Y360514D01*
X63517Y360556D01*
X63555Y360573D01*
X63596Y360585D01*
X63749Y360662D01*
X63905Y360734D01*
X63939Y360759D01*
X63977Y360778D01*
X64113Y360882D01*
X64253Y360982D01*
X64282Y361012D01*
X64315Y361038D01*
X64430Y361166D01*
X64549Y361290D01*
X64572Y361325D01*
X64600Y361357D01*
X64688Y361504D01*
X64782Y361648D01*
X64798Y361687D01*
X64820Y361723D01*
X64879Y361883D01*
X64945Y362043D01*
X64953Y362084D01*
X64968Y362123D01*
X64997Y362292D01*
X65031Y362461D01*
X65032Y362503D01*
X65039Y362544D01*
X65036Y362716D01*
X65038Y362888D01*
X65031Y362929D01*
X65030Y362971D01*
X64995Y363139D01*
X64966Y363309D01*
X64951Y363348D01*
X64942Y363389D01*
X64876Y363548D01*
X64816Y363709D01*
X64795Y363745D01*
X64778Y363784D01*
X64684Y363927D01*
X64595Y364074D01*
X64563Y364111D01*
X64544Y364140D01*
X64487Y364199D01*
X64376Y364328D01*
X61653Y367051D01*
X59610Y371982D01*
X59610Y374904D01*
X59602Y374992D01*
X59603Y375080D01*
X59582Y375204D01*
X59570Y375329D01*
X59546Y375414D01*
X59531Y375501D01*
X59487Y375619D01*
X59452Y375740D01*
X59412Y375818D01*
X59381Y375901D01*
X59316Y376009D01*
X59259Y376121D01*
X59206Y376191D01*
X59160Y376266D01*
X59049Y376395D01*
X58999Y376459D01*
X58973Y376483D01*
X58941Y376520D01*
X56178Y379283D01*
X54863Y382457D01*
X54863Y595144D01*
X54855Y595232D01*
X54856Y595320D01*
X54849Y595362D01*
X54849Y595395D01*
X54833Y595471D01*
X54823Y595569D01*
X54799Y595654D01*
X54784Y595741D01*
X54765Y595790D01*
X54761Y595813D01*
X54736Y595872D01*
X54705Y595979D01*
X54665Y596058D01*
X54634Y596141D01*
X54602Y596194D01*
X54596Y596207D01*
X54568Y596251D01*
X54512Y596361D01*
X54459Y596431D01*
X54413Y596506D01*
X54302Y596635D01*
X54252Y596699D01*
X54226Y596723D01*
X54194Y596760D01*
X52212Y598741D01*
X52112Y598824D01*
X52019Y598914D01*
X51948Y598960D01*
X51883Y599014D01*
X51770Y599077D01*
X51661Y599148D01*
X51583Y599180D01*
X51510Y599220D01*
X51386Y599261D01*
X51266Y599310D01*
X51184Y599327D01*
X51104Y599354D01*
X50975Y599371D01*
X50848Y599397D01*
X50764Y599398D01*
X50680Y599409D01*
X50550Y599402D01*
X50421Y599404D01*
X50338Y599390D01*
X50254Y599385D01*
X50128Y599353D01*
X50000Y599331D01*
X49921Y599302D01*
X49839Y599282D01*
X49722Y599227D01*
X49600Y599182D01*
X49528Y599138D01*
X49451Y599103D01*
X49346Y599028D01*
X49234Y598960D01*
X49157Y598894D01*
X49103Y598856D01*
X49058Y598808D01*
X48981Y598741D01*
X41056Y590817D01*
X41000Y590749D01*
X40937Y590688D01*
X40864Y590585D01*
X40784Y590488D01*
X40741Y590411D01*
X40690Y590339D01*
X40638Y590224D01*
X40577Y590114D01*
X40550Y590031D01*
X40513Y589950D01*
X40483Y589828D01*
X40444Y589708D01*
X40432Y589621D01*
X40411Y589535D01*
X40399Y589365D01*
X40388Y589285D01*
X40390Y589249D01*
X40387Y589201D01*
X40387Y468182D01*
X39072Y465008D01*
X12516Y438452D01*
X12447Y438368D01*
X12369Y438291D01*
X12310Y438204D01*
X12244Y438123D01*
X12191Y438028D01*
X12130Y437937D01*
X12088Y437841D01*
X12037Y437749D01*
X12003Y437645D01*
X11960Y437545D01*
X11936Y437443D01*
X11904Y437343D01*
X11890Y437235D01*
X11866Y437129D01*
X11862Y437024D01*
X11848Y436920D01*
X11854Y436811D01*
X11851Y436702D01*
X11867Y436598D01*
X11872Y436493D01*
X11899Y436388D01*
X11915Y436280D01*
X11957Y436153D01*
X11976Y436079D01*
X11997Y436032D01*
X12021Y435961D01*
X12447Y434933D01*
X12447Y428667D01*
X10886Y424899D01*
X10872Y424853D01*
X10851Y424809D01*
X10809Y424649D01*
X10760Y424491D01*
X10755Y424443D01*
X10742Y424396D01*
X10731Y424231D01*
X10712Y424066D01*
X10716Y424018D01*
X10712Y423970D01*
X10732Y423806D01*
X10744Y423640D01*
X10757Y423594D01*
X10763Y423546D01*
X10812Y423388D01*
X10855Y423228D01*
X10876Y423184D01*
X10891Y423138D01*
X10969Y422992D01*
X11041Y422843D01*
X11069Y422804D01*
X11092Y422762D01*
X11196Y422633D01*
X11295Y422500D01*
X11330Y422467D01*
X11360Y422429D01*
X11487Y422322D01*
X11608Y422210D01*
X11649Y422184D01*
X11686Y422153D01*
X11830Y422071D01*
X11970Y421983D01*
X12015Y421965D01*
X12057Y421941D01*
X12098Y421926D01*
X19301Y416487D01*
X24021Y408864D01*
X25669Y400050D01*
X24021Y391236D01*
X23597Y390552D01*
X23528Y390411D01*
X23451Y390275D01*
X23433Y390221D01*
X23407Y390169D01*
X23365Y390018D01*
X23315Y389871D01*
X23307Y389813D01*
X23292Y389758D01*
X23278Y389602D01*
X23257Y389447D01*
X23260Y389390D01*
X23255Y389332D01*
X23271Y389177D01*
X23278Y389021D01*
X23292Y388965D01*
X23298Y388907D01*
X23342Y388757D01*
X23379Y388606D01*
X23403Y388553D01*
X23419Y388498D01*
X23491Y388359D01*
X23555Y388217D01*
X23588Y388169D01*
X23614Y388118D01*
X23711Y387995D01*
X23800Y387867D01*
X23841Y387827D01*
X23877Y387781D01*
X23994Y387678D01*
X24106Y387569D01*
X24154Y387537D01*
X24198Y387499D01*
X24332Y387420D01*
X24462Y387333D01*
X24516Y387311D01*
X24565Y387282D01*
X24712Y387229D01*
X24856Y387168D01*
X24922Y387153D01*
X24967Y387136D01*
X25045Y387124D01*
X25183Y387091D01*
X25402Y387057D01*
X27189Y386476D01*
X28863Y385623D01*
X30384Y384518D01*
X31712Y383190D01*
X32817Y381669D01*
X33670Y379995D01*
X34251Y378208D01*
X34291Y377951D01*
X22860Y377951D01*
X22731Y377939D01*
X22601Y377937D01*
X22519Y377919D01*
X22435Y377911D01*
X22310Y377875D01*
X22183Y377849D01*
X22105Y377816D01*
X22025Y377793D01*
X21908Y377734D01*
X21789Y377684D01*
X21718Y377638D01*
X21643Y377600D01*
X21540Y377521D01*
X21432Y377450D01*
X21371Y377391D01*
X21305Y377340D01*
X21218Y377243D01*
X21125Y377153D01*
X21076Y377084D01*
X21020Y377021D01*
X20953Y376910D01*
X20878Y376804D01*
X20844Y376727D01*
X20800Y376655D01*
X20755Y376534D01*
X20701Y376415D01*
X20681Y376334D01*
X20652Y376255D01*
X20631Y376127D01*
X20600Y376000D01*
X20592Y375899D01*
X20581Y375834D01*
X20582Y375768D01*
X20575Y375666D01*
X20575Y375158D01*
X20587Y375029D01*
X20590Y374899D01*
X20607Y374816D01*
X20615Y374733D01*
X20651Y374608D01*
X20678Y374481D01*
X20710Y374403D01*
X20733Y374322D01*
X20792Y374206D01*
X20842Y374086D01*
X20888Y374016D01*
X20926Y373941D01*
X21005Y373838D01*
X21076Y373729D01*
X21135Y373669D01*
X21186Y373602D01*
X21283Y373516D01*
X21373Y373422D01*
X21442Y373374D01*
X21505Y373318D01*
X21616Y373251D01*
X21722Y373176D01*
X21799Y373141D01*
X21871Y373098D01*
X21993Y373053D01*
X22111Y372999D01*
X22193Y372979D01*
X22271Y372950D01*
X22400Y372928D01*
X22526Y372897D01*
X22628Y372890D01*
X22693Y372879D01*
X22758Y372880D01*
X22860Y372873D01*
X34291Y372873D01*
X34251Y372616D01*
X33670Y370829D01*
X32817Y369155D01*
X31712Y367634D01*
X30384Y366306D01*
X28863Y365201D01*
X27974Y364748D01*
X27887Y364693D01*
X27795Y364646D01*
X27707Y364579D01*
X27614Y364520D01*
X27538Y364449D01*
X27456Y364386D01*
X27382Y364303D01*
X27302Y364228D01*
X27241Y364145D01*
X27172Y364067D01*
X27115Y363972D01*
X27049Y363883D01*
X27005Y363790D01*
X26952Y363701D01*
X26913Y363598D01*
X26866Y363498D01*
X26840Y363398D01*
X26804Y363301D01*
X26785Y363192D01*
X26757Y363084D01*
X26750Y362981D01*
X26733Y362880D01*
X26735Y362769D01*
X26727Y362658D01*
X26739Y362556D01*
X26741Y362453D01*
X26764Y362344D01*
X26777Y362234D01*
X26808Y362136D01*
X26829Y362035D01*
X26872Y361933D01*
X26905Y361827D01*
X26954Y361736D01*
X26993Y361640D01*
X27054Y361548D01*
X27106Y361450D01*
X27171Y361370D01*
X27228Y361283D01*
X27305Y361204D01*
X27375Y361118D01*
X27453Y361051D01*
X27525Y360977D01*
X27615Y360913D01*
X27700Y360841D01*
X27789Y360790D01*
X27874Y360730D01*
X27975Y360684D01*
X28071Y360629D01*
X28168Y360596D01*
X28263Y360553D01*
X28370Y360527D01*
X28475Y360491D01*
X28577Y360476D01*
X28677Y360451D01*
X28819Y360441D01*
X28898Y360430D01*
X28945Y360432D01*
X29012Y360427D01*
X62760Y360427D01*
X62931Y360443D01*
G37*
%LPC*%
G36*
X323523Y268633D02*
X323523Y268633D01*
X315496Y272629D01*
X309456Y279256D01*
X306217Y287617D01*
X306217Y296583D01*
X309456Y304944D01*
X315496Y311571D01*
X323523Y315567D01*
X332451Y316395D01*
X341075Y313941D01*
X348231Y308537D01*
X352951Y300914D01*
X354599Y292100D01*
X352951Y283286D01*
X348231Y275663D01*
X341075Y270259D01*
X332451Y267805D01*
X323523Y268633D01*
G37*
%LPD*%
G36*
X198716Y543671D02*
X198716Y543671D01*
X198887Y543675D01*
X198929Y543683D01*
X198971Y543686D01*
X199137Y543727D01*
X199305Y543763D01*
X199344Y543779D01*
X199385Y543789D01*
X199541Y543861D01*
X199700Y543927D01*
X199735Y543950D01*
X199773Y543967D01*
X199913Y544067D01*
X200057Y544161D01*
X200087Y544191D01*
X200121Y544215D01*
X200240Y544339D01*
X200363Y544458D01*
X200388Y544493D01*
X200417Y544523D01*
X200510Y544666D01*
X200610Y544807D01*
X200627Y544846D01*
X200650Y544881D01*
X200716Y545039D01*
X200787Y545196D01*
X200797Y545237D01*
X200813Y545276D01*
X200848Y545444D01*
X200889Y545611D01*
X200892Y545659D01*
X200899Y545694D01*
X200901Y545775D01*
X200913Y545945D01*
X200913Y568334D01*
X200901Y568463D01*
X200899Y568593D01*
X200895Y568608D01*
X200895Y581660D01*
X200895Y594743D01*
X200896Y594753D01*
X200907Y594818D01*
X200906Y594884D01*
X200913Y594986D01*
X200913Y614194D01*
X200905Y614282D01*
X200906Y614370D01*
X200885Y614494D01*
X200873Y614619D01*
X200849Y614704D01*
X200834Y614791D01*
X200790Y614909D01*
X200755Y615029D01*
X200715Y615108D01*
X200684Y615191D01*
X200619Y615299D01*
X200562Y615411D01*
X200509Y615480D01*
X200463Y615556D01*
X200352Y615685D01*
X200302Y615749D01*
X200276Y615773D01*
X200244Y615810D01*
X198178Y617876D01*
X196135Y622807D01*
X196135Y628143D01*
X198178Y633074D01*
X200244Y635140D01*
X200300Y635208D01*
X200363Y635269D01*
X200436Y635372D01*
X200516Y635469D01*
X200559Y635546D01*
X200610Y635618D01*
X200662Y635733D01*
X200723Y635843D01*
X200750Y635927D01*
X200787Y636007D01*
X200817Y636129D01*
X200856Y636249D01*
X200868Y636336D01*
X200889Y636422D01*
X200899Y636562D01*
X200907Y636610D01*
X200907Y636633D01*
X200912Y636672D01*
X200910Y636708D01*
X200913Y636756D01*
X200913Y636778D01*
X200901Y636907D01*
X200899Y637037D01*
X200888Y637087D01*
X200887Y637099D01*
X200881Y637126D01*
X200873Y637203D01*
X200837Y637328D01*
X200811Y637455D01*
X200778Y637533D01*
X200755Y637614D01*
X200696Y637730D01*
X200646Y637850D01*
X200600Y637920D01*
X200562Y637995D01*
X200483Y638098D01*
X200412Y638207D01*
X200353Y638267D01*
X200302Y638334D01*
X200205Y638420D01*
X200115Y638513D01*
X200046Y638562D01*
X199983Y638618D01*
X199872Y638685D01*
X199766Y638760D01*
X199689Y638795D01*
X199617Y638838D01*
X199496Y638883D01*
X199377Y638937D01*
X199296Y638957D01*
X199217Y638986D01*
X199089Y639008D01*
X198962Y639039D01*
X198861Y639046D01*
X198796Y639057D01*
X198730Y639056D01*
X198628Y639063D01*
X178768Y639063D01*
X178597Y639047D01*
X178425Y639037D01*
X178385Y639027D01*
X178343Y639023D01*
X178177Y638976D01*
X178011Y638934D01*
X177973Y638917D01*
X177932Y638905D01*
X177779Y638828D01*
X177623Y638756D01*
X177589Y638731D01*
X177551Y638712D01*
X177415Y638608D01*
X177275Y638508D01*
X177246Y638478D01*
X177212Y638452D01*
X177098Y638324D01*
X176979Y638200D01*
X176956Y638165D01*
X176928Y638133D01*
X176840Y637986D01*
X176746Y637842D01*
X176730Y637803D01*
X176708Y637767D01*
X176649Y637607D01*
X176583Y637447D01*
X176574Y637406D01*
X176560Y637367D01*
X176531Y637198D01*
X176497Y637029D01*
X176496Y636987D01*
X176489Y636946D01*
X176492Y636774D01*
X176490Y636602D01*
X176497Y636561D01*
X176497Y636519D01*
X176533Y636351D01*
X176562Y636181D01*
X176577Y636142D01*
X176585Y636101D01*
X176651Y635943D01*
X176712Y635781D01*
X176733Y635745D01*
X176750Y635706D01*
X176844Y635563D01*
X176933Y635416D01*
X176965Y635379D01*
X176984Y635350D01*
X177041Y635291D01*
X177152Y635162D01*
X181947Y630367D01*
X183262Y627193D01*
X183262Y548766D01*
X183274Y548637D01*
X183276Y548507D01*
X183294Y548424D01*
X183302Y548341D01*
X183338Y548216D01*
X183364Y548089D01*
X183397Y548011D01*
X183420Y547930D01*
X183479Y547814D01*
X183529Y547694D01*
X183575Y547624D01*
X183613Y547549D01*
X183692Y547446D01*
X183763Y547337D01*
X183822Y547277D01*
X183873Y547210D01*
X183970Y547124D01*
X184060Y547031D01*
X184129Y546982D01*
X184192Y546926D01*
X184303Y546859D01*
X184409Y546784D01*
X184486Y546749D01*
X184558Y546706D01*
X184679Y546661D01*
X184798Y546607D01*
X184879Y546587D01*
X184958Y546558D01*
X185086Y546536D01*
X185213Y546505D01*
X185314Y546498D01*
X185379Y546487D01*
X185445Y546488D01*
X185547Y546481D01*
X193493Y546481D01*
X195827Y545514D01*
X197012Y544329D01*
X197144Y544220D01*
X197273Y544105D01*
X197309Y544084D01*
X197341Y544057D01*
X197491Y543974D01*
X197639Y543885D01*
X197678Y543871D01*
X197715Y543850D01*
X197878Y543797D01*
X198039Y543737D01*
X198081Y543730D01*
X198121Y543717D01*
X198291Y543695D01*
X198460Y543666D01*
X198502Y543667D01*
X198544Y543661D01*
X198716Y543671D01*
G37*
%LPC*%
G36*
X19473Y294639D02*
X19473Y294639D01*
X13685Y297037D01*
X9255Y301467D01*
X6857Y307255D01*
X6857Y313521D01*
X9255Y319309D01*
X13685Y323739D01*
X19473Y326137D01*
X25739Y326137D01*
X31527Y323739D01*
X35957Y319309D01*
X38355Y313521D01*
X38355Y307255D01*
X35957Y301467D01*
X31527Y297037D01*
X25739Y294639D01*
X19473Y294639D01*
G37*
%LPD*%
G36*
X198694Y461900D02*
X198694Y461900D01*
X198887Y461904D01*
X198908Y461908D01*
X198929Y461909D01*
X199116Y461952D01*
X199305Y461992D01*
X199325Y462000D01*
X199345Y462005D01*
X199522Y462082D01*
X199700Y462156D01*
X199717Y462168D01*
X199736Y462176D01*
X199896Y462285D01*
X200057Y462391D01*
X200072Y462405D01*
X200089Y462417D01*
X200225Y462554D01*
X200363Y462688D01*
X200376Y462705D01*
X200390Y462720D01*
X200498Y462879D01*
X200610Y463037D01*
X200619Y463056D01*
X200630Y463073D01*
X200707Y463249D01*
X200787Y463425D01*
X200792Y463446D01*
X200800Y463465D01*
X200843Y463653D01*
X200889Y463840D01*
X200890Y463864D01*
X200894Y463882D01*
X200897Y463952D01*
X200913Y464175D01*
X200913Y479434D01*
X200901Y479563D01*
X200899Y479693D01*
X200895Y479708D01*
X200895Y492760D01*
X200895Y505843D01*
X200896Y505853D01*
X200907Y505918D01*
X200906Y505984D01*
X200913Y506086D01*
X200913Y518315D01*
X200897Y518486D01*
X200887Y518657D01*
X200877Y518698D01*
X200873Y518740D01*
X200826Y518905D01*
X200784Y519072D01*
X200767Y519110D01*
X200755Y519151D01*
X200678Y519304D01*
X200606Y519460D01*
X200581Y519494D01*
X200562Y519532D01*
X200458Y519668D01*
X200358Y519808D01*
X200328Y519837D01*
X200302Y519870D01*
X200174Y519985D01*
X200050Y520104D01*
X200015Y520127D01*
X199983Y520155D01*
X199836Y520244D01*
X199692Y520337D01*
X199653Y520353D01*
X199617Y520375D01*
X199456Y520434D01*
X199297Y520500D01*
X199256Y520508D01*
X199217Y520523D01*
X199047Y520552D01*
X198879Y520586D01*
X198837Y520587D01*
X198796Y520594D01*
X198624Y520591D01*
X198452Y520593D01*
X198411Y520586D01*
X198369Y520585D01*
X198201Y520550D01*
X198031Y520521D01*
X197992Y520506D01*
X197951Y520497D01*
X197792Y520431D01*
X197631Y520371D01*
X197595Y520350D01*
X197556Y520333D01*
X197413Y520239D01*
X197266Y520150D01*
X197229Y520118D01*
X197200Y520099D01*
X197141Y520042D01*
X197012Y519931D01*
X195827Y518746D01*
X193493Y517779D01*
X184865Y517779D01*
X184777Y517771D01*
X184689Y517772D01*
X184565Y517751D01*
X184440Y517739D01*
X184355Y517715D01*
X184268Y517700D01*
X184150Y517656D01*
X184029Y517621D01*
X183951Y517581D01*
X183868Y517550D01*
X183760Y517485D01*
X183648Y517428D01*
X183578Y517375D01*
X183503Y517329D01*
X183374Y517218D01*
X183310Y517168D01*
X183286Y517142D01*
X183249Y517110D01*
X182692Y516553D01*
X180491Y515641D01*
X180358Y515571D01*
X180221Y515508D01*
X180169Y515471D01*
X180114Y515442D01*
X179996Y515348D01*
X179873Y515260D01*
X179829Y515215D01*
X179780Y515175D01*
X179682Y515061D01*
X179577Y514952D01*
X179543Y514899D01*
X179501Y514852D01*
X179426Y514721D01*
X179344Y514595D01*
X179320Y514536D01*
X179288Y514482D01*
X179238Y514339D01*
X179181Y514200D01*
X179168Y514138D01*
X179147Y514078D01*
X179125Y513929D01*
X179094Y513781D01*
X179093Y513718D01*
X179084Y513656D01*
X179090Y513505D01*
X179087Y513354D01*
X179098Y513292D01*
X179101Y513229D01*
X179134Y513082D01*
X179160Y512933D01*
X179182Y512874D01*
X179196Y512813D01*
X179257Y512675D01*
X179309Y512533D01*
X179342Y512479D01*
X179367Y512422D01*
X179453Y512297D01*
X179531Y512168D01*
X179579Y512112D01*
X179609Y512069D01*
X179663Y512015D01*
X179750Y511914D01*
X181947Y509717D01*
X183262Y506543D01*
X183262Y485000D01*
X183272Y484891D01*
X183272Y484782D01*
X183292Y484679D01*
X183302Y484575D01*
X183332Y484470D01*
X183352Y484363D01*
X183391Y484265D01*
X183420Y484164D01*
X183469Y484067D01*
X183509Y483965D01*
X183565Y483877D01*
X183613Y483783D01*
X183679Y483697D01*
X183737Y483604D01*
X183809Y483527D01*
X183873Y483444D01*
X183954Y483372D01*
X184029Y483292D01*
X184113Y483230D01*
X184192Y483160D01*
X184285Y483104D01*
X184373Y483039D01*
X184492Y482979D01*
X184558Y482940D01*
X184606Y482922D01*
X184672Y482888D01*
X188837Y481163D01*
X188842Y481161D01*
X188991Y481079D01*
X189033Y481065D01*
X189072Y481045D01*
X189235Y480998D01*
X189397Y480945D01*
X189440Y480939D01*
X189482Y480927D01*
X189651Y480912D01*
X189820Y480889D01*
X189864Y480892D01*
X189908Y480888D01*
X190076Y480904D01*
X190247Y480913D01*
X190289Y480924D01*
X190333Y480928D01*
X190496Y480975D01*
X190661Y481017D01*
X190701Y481035D01*
X190743Y481047D01*
X190895Y481124D01*
X191049Y481195D01*
X191085Y481220D01*
X191124Y481240D01*
X191259Y481344D01*
X191397Y481442D01*
X191428Y481474D01*
X191463Y481501D01*
X191576Y481628D01*
X191693Y481750D01*
X191717Y481787D01*
X191747Y481820D01*
X191834Y481966D01*
X191927Y482108D01*
X191944Y482148D01*
X191966Y482186D01*
X192025Y482346D01*
X192090Y482503D01*
X192099Y482546D01*
X192114Y482587D01*
X192142Y482755D01*
X192176Y482921D01*
X192177Y482965D01*
X192184Y483008D01*
X192181Y483178D01*
X192184Y483348D01*
X192176Y483391D01*
X192175Y483435D01*
X192112Y483765D01*
X192069Y483926D01*
X192069Y490475D01*
X196325Y490475D01*
X196325Y481719D01*
X194276Y481719D01*
X194115Y481762D01*
X194072Y481770D01*
X194030Y481783D01*
X193861Y481805D01*
X193693Y481834D01*
X193650Y481833D01*
X193607Y481839D01*
X193436Y481829D01*
X193266Y481826D01*
X193224Y481817D01*
X193181Y481814D01*
X193015Y481773D01*
X192848Y481738D01*
X192808Y481722D01*
X192766Y481711D01*
X192611Y481640D01*
X192454Y481575D01*
X192417Y481551D01*
X192378Y481533D01*
X192239Y481434D01*
X192097Y481340D01*
X192065Y481310D01*
X192030Y481285D01*
X191912Y481162D01*
X191789Y481044D01*
X191764Y481009D01*
X191734Y480977D01*
X191641Y480834D01*
X191543Y480695D01*
X191525Y480656D01*
X191501Y480619D01*
X191436Y480462D01*
X191365Y480307D01*
X191355Y480265D01*
X191338Y480224D01*
X191304Y480058D01*
X191263Y479892D01*
X191260Y479849D01*
X191252Y479806D01*
X191249Y479636D01*
X191240Y479466D01*
X191245Y479423D01*
X191245Y479379D01*
X191274Y479211D01*
X191296Y479042D01*
X191310Y479001D01*
X191317Y478958D01*
X191377Y478799D01*
X191430Y478637D01*
X191452Y478599D01*
X191467Y478558D01*
X191555Y478412D01*
X191638Y478264D01*
X191666Y478230D01*
X191688Y478193D01*
X191907Y477939D01*
X192347Y477499D01*
X194390Y472568D01*
X194390Y467117D01*
X194379Y467023D01*
X194357Y466916D01*
X194355Y466811D01*
X194344Y466707D01*
X194352Y466598D01*
X194350Y466489D01*
X194368Y466386D01*
X194376Y466281D01*
X194404Y466175D01*
X194422Y466068D01*
X194459Y465970D01*
X194486Y465868D01*
X194534Y465770D01*
X194572Y465668D01*
X194626Y465578D01*
X194672Y465484D01*
X194737Y465396D01*
X194793Y465303D01*
X194880Y465202D01*
X194926Y465140D01*
X194964Y465105D01*
X195013Y465049D01*
X196344Y463717D01*
X196517Y463300D01*
X196607Y463130D01*
X196694Y462958D01*
X196706Y462941D01*
X196716Y462923D01*
X196837Y462772D01*
X196954Y462619D01*
X196969Y462605D01*
X196983Y462589D01*
X197129Y462463D01*
X197273Y462335D01*
X197291Y462324D01*
X197307Y462310D01*
X197473Y462214D01*
X197639Y462115D01*
X197658Y462107D01*
X197677Y462097D01*
X197859Y462033D01*
X198039Y461967D01*
X198060Y461963D01*
X198080Y461956D01*
X198270Y461928D01*
X198460Y461896D01*
X198481Y461896D01*
X198502Y461893D01*
X198694Y461900D01*
G37*
G36*
X11432Y542049D02*
X11432Y542049D01*
X11562Y542051D01*
X11612Y542062D01*
X11622Y542063D01*
X11649Y542069D01*
X11728Y542077D01*
X11853Y542113D01*
X11980Y542139D01*
X12058Y542172D01*
X12139Y542195D01*
X12255Y542254D01*
X12375Y542304D01*
X12445Y542350D01*
X12520Y542388D01*
X12623Y542467D01*
X12732Y542538D01*
X12792Y542597D01*
X12859Y542648D01*
X12945Y542745D01*
X13038Y542835D01*
X13087Y542904D01*
X13143Y542967D01*
X13210Y543078D01*
X13285Y543184D01*
X13320Y543261D01*
X13363Y543333D01*
X13408Y543454D01*
X13462Y543573D01*
X13482Y543654D01*
X13511Y543733D01*
X13533Y543861D01*
X13564Y543988D01*
X13571Y544089D01*
X13582Y544154D01*
X13581Y544220D01*
X13588Y544322D01*
X13588Y573301D01*
X13572Y573472D01*
X13562Y573644D01*
X13552Y573684D01*
X13548Y573726D01*
X13501Y573892D01*
X13459Y574058D01*
X13442Y574096D01*
X13430Y574137D01*
X13353Y574290D01*
X13281Y574446D01*
X13256Y574480D01*
X13237Y574518D01*
X13133Y574654D01*
X13033Y574794D01*
X13003Y574823D01*
X12977Y574857D01*
X12849Y574971D01*
X12725Y575090D01*
X12690Y575113D01*
X12658Y575141D01*
X12511Y575229D01*
X12367Y575323D01*
X12328Y575339D01*
X12292Y575361D01*
X12132Y575421D01*
X11972Y575486D01*
X11931Y575495D01*
X11892Y575509D01*
X11723Y575538D01*
X11554Y575573D01*
X11512Y575573D01*
X11471Y575580D01*
X11299Y575577D01*
X11127Y575580D01*
X11086Y575572D01*
X11044Y575572D01*
X10876Y575536D01*
X10706Y575507D01*
X10667Y575492D01*
X10626Y575484D01*
X10468Y575418D01*
X10306Y575358D01*
X10270Y575336D01*
X10231Y575320D01*
X10088Y575225D01*
X9941Y575136D01*
X9904Y575104D01*
X9875Y575085D01*
X9816Y575028D01*
X9687Y574917D01*
X5553Y570783D01*
X5512Y570761D01*
X5394Y570667D01*
X5271Y570580D01*
X5227Y570534D01*
X5178Y570495D01*
X5080Y570381D01*
X4975Y570272D01*
X4941Y570219D01*
X4900Y570171D01*
X4824Y570040D01*
X4742Y569914D01*
X4718Y569856D01*
X4686Y569801D01*
X4637Y569659D01*
X4579Y569519D01*
X4566Y569457D01*
X4546Y569398D01*
X4523Y569249D01*
X4493Y569101D01*
X4492Y569038D01*
X4482Y568975D01*
X4488Y568825D01*
X4486Y568674D01*
X4496Y568612D01*
X4499Y568549D01*
X4533Y568401D01*
X4558Y568253D01*
X4580Y568194D01*
X4594Y568132D01*
X4655Y567994D01*
X4708Y567853D01*
X4740Y567799D01*
X4766Y567741D01*
X4851Y567617D01*
X4929Y567488D01*
X4978Y567431D01*
X5007Y567389D01*
X5061Y567334D01*
X5148Y567234D01*
X5804Y566578D01*
X6909Y565057D01*
X7762Y563383D01*
X8343Y561596D01*
X8343Y561593D01*
X-12192Y561593D01*
X-12321Y561581D01*
X-12451Y561579D01*
X-12533Y561561D01*
X-12617Y561553D01*
X-12742Y561517D01*
X-12869Y561491D01*
X-12947Y561458D01*
X-13027Y561435D01*
X-13144Y561376D01*
X-13263Y561326D01*
X-13334Y561280D01*
X-13409Y561242D01*
X-13512Y561163D01*
X-13620Y561092D01*
X-13681Y561033D01*
X-13747Y560982D01*
X-13834Y560885D01*
X-13927Y560795D01*
X-13976Y560726D01*
X-14032Y560663D01*
X-14099Y560552D01*
X-14174Y560446D01*
X-14208Y560369D01*
X-14252Y560297D01*
X-14297Y560176D01*
X-14351Y560057D01*
X-14371Y559976D01*
X-14400Y559897D01*
X-14421Y559769D01*
X-14452Y559642D01*
X-14460Y559541D01*
X-14471Y559476D01*
X-14470Y559410D01*
X-14477Y559308D01*
X-14477Y558292D01*
X-14465Y558163D01*
X-14462Y558033D01*
X-14445Y557950D01*
X-14437Y557867D01*
X-14401Y557742D01*
X-14374Y557615D01*
X-14342Y557537D01*
X-14319Y557456D01*
X-14260Y557340D01*
X-14210Y557220D01*
X-14164Y557150D01*
X-14126Y557075D01*
X-14047Y556972D01*
X-13976Y556863D01*
X-13917Y556803D01*
X-13866Y556736D01*
X-13769Y556650D01*
X-13679Y556556D01*
X-13610Y556508D01*
X-13547Y556452D01*
X-13436Y556385D01*
X-13330Y556310D01*
X-13253Y556275D01*
X-13181Y556232D01*
X-13059Y556187D01*
X-12941Y556133D01*
X-12859Y556113D01*
X-12781Y556084D01*
X-12652Y556062D01*
X-12526Y556031D01*
X-12424Y556024D01*
X-12359Y556013D01*
X-12294Y556014D01*
X-12192Y556007D01*
X8343Y556007D01*
X8343Y556004D01*
X7762Y554217D01*
X6909Y552543D01*
X5804Y551022D01*
X5148Y550366D01*
X5052Y550250D01*
X4949Y550139D01*
X4916Y550086D01*
X4876Y550037D01*
X4803Y549905D01*
X4723Y549777D01*
X4700Y549719D01*
X4669Y549664D01*
X4622Y549520D01*
X4567Y549380D01*
X4556Y549318D01*
X4536Y549258D01*
X4516Y549108D01*
X4488Y548960D01*
X4489Y548897D01*
X4480Y548834D01*
X4489Y548684D01*
X4489Y548533D01*
X4501Y548471D01*
X4505Y548408D01*
X4541Y548262D01*
X4569Y548113D01*
X4593Y548054D01*
X4608Y547993D01*
X4671Y547856D01*
X4726Y547716D01*
X4760Y547663D01*
X4786Y547605D01*
X4874Y547482D01*
X4954Y547355D01*
X4997Y547309D01*
X5034Y547257D01*
X5143Y547153D01*
X5246Y547043D01*
X5296Y547005D01*
X5342Y546962D01*
X5469Y546879D01*
X5554Y546816D01*
X9664Y542706D01*
X9732Y542650D01*
X9793Y542587D01*
X9896Y542514D01*
X9993Y542434D01*
X10070Y542391D01*
X10142Y542340D01*
X10257Y542288D01*
X10367Y542227D01*
X10450Y542200D01*
X10531Y542163D01*
X10653Y542133D01*
X10773Y542094D01*
X10860Y542082D01*
X10946Y542061D01*
X11088Y542051D01*
X11135Y542043D01*
X11157Y542043D01*
X11196Y542038D01*
X11232Y542040D01*
X11280Y542037D01*
X11303Y542037D01*
X11432Y542049D01*
G37*
%LPC*%
G36*
X26161Y269493D02*
X26161Y269493D01*
X26161Y277038D01*
X26455Y278894D01*
X27036Y280681D01*
X27889Y282355D01*
X28994Y283876D01*
X30322Y285204D01*
X31843Y286309D01*
X33517Y287162D01*
X35304Y287743D01*
X35307Y287743D01*
X35307Y269493D01*
X26161Y269493D01*
G37*
%LPD*%
%LPC*%
G36*
X179885Y340615D02*
X179885Y340615D01*
X188168Y340615D01*
X188130Y340372D01*
X187605Y338756D01*
X186833Y337242D01*
X185834Y335867D01*
X184633Y334666D01*
X183258Y333667D01*
X181744Y332895D01*
X180128Y332370D01*
X179885Y332332D01*
X179885Y340615D01*
G37*
%LPD*%
%LPC*%
G36*
X192069Y583945D02*
X192069Y583945D01*
X192069Y590495D01*
X192242Y591141D01*
X192577Y591720D01*
X193050Y592193D01*
X193629Y592528D01*
X194275Y592701D01*
X196325Y592701D01*
X196325Y583945D01*
X192069Y583945D01*
G37*
%LPD*%
%LPC*%
G36*
X192069Y495045D02*
X192069Y495045D01*
X192069Y501595D01*
X192242Y502241D01*
X192577Y502820D01*
X193050Y503293D01*
X193629Y503628D01*
X194275Y503801D01*
X196325Y503801D01*
X196325Y495045D01*
X192069Y495045D01*
G37*
%LPD*%
%LPC*%
G36*
X194275Y570619D02*
X194275Y570619D01*
X193629Y570792D01*
X193050Y571127D01*
X192577Y571600D01*
X192242Y572179D01*
X192069Y572825D01*
X192069Y579375D01*
X196325Y579375D01*
X196325Y570619D01*
X194275Y570619D01*
G37*
%LPD*%
D10*
X-22098Y609600D02*
X-3302Y609600D01*
X-3302Y584200D02*
X-22098Y584200D01*
X-22098Y558800D02*
X-3302Y558800D01*
X-3302Y533400D02*
X-22098Y533400D01*
X-22098Y508000D02*
X-3302Y508000D01*
X-3302Y482600D02*
X-22098Y482600D01*
X-22098Y457200D02*
X-3302Y457200D01*
X-3302Y431800D02*
X-22098Y431800D01*
D11*
X165100Y556200D03*
X174600Y536000D03*
X155600Y536000D03*
X165100Y467300D03*
X174600Y447100D03*
X155600Y447100D03*
D12*
X189230Y537130D03*
X189230Y527130D03*
X187960Y447120D03*
X187960Y457120D03*
X152400Y580470D03*
X152400Y590470D03*
X152400Y490300D03*
X152400Y500300D03*
X140890Y488950D03*
X130890Y488950D03*
X212090Y401400D03*
X212090Y411400D03*
D13*
X164610Y581660D03*
X198610Y581660D03*
X164610Y492760D03*
X198610Y492760D03*
D10*
X38100Y276098D02*
X38100Y257302D01*
X63500Y257302D02*
X63500Y276098D01*
X88900Y276098D02*
X88900Y257302D01*
X114300Y257302D02*
X114300Y276098D01*
D14*
X177600Y342900D03*
D15*
X152600Y342900D03*
D16*
X22606Y375412D03*
X22606Y310388D03*
X-22606Y375412D03*
X-22606Y310388D03*
D17*
X200025Y495300D02*
X200025Y581025D01*
X200025Y495300D02*
X198610Y492760D01*
X200025Y581025D02*
X198610Y581660D01*
X196850Y492125D02*
X196850Y425450D01*
X177800Y406400D01*
X177800Y342900D01*
X196850Y492125D02*
X198610Y492760D01*
X177800Y342900D02*
X177600Y342900D01*
X124490Y337820D02*
X41910Y337820D01*
X38100Y334010D01*
D18*
X124490Y337820D03*
X38100Y334010D03*
D17*
X114300Y304800D02*
X152400Y342900D01*
X114300Y304800D02*
X114300Y266700D01*
X152400Y342900D02*
X152600Y342900D01*
X142875Y511175D02*
X139700Y514350D01*
X142875Y511175D02*
X152400Y501650D01*
X139700Y514350D02*
X139700Y584200D01*
X146050Y590550D01*
X152400Y590550D01*
X152400Y501650D02*
X152400Y500300D01*
X152400Y622300D02*
X155575Y625475D01*
X152400Y622300D02*
X152400Y590550D01*
X152400Y590470D01*
X212725Y400050D02*
X231775Y381000D01*
X231775Y295275D01*
X212725Y400050D02*
X212090Y401400D01*
X241300Y428625D02*
X260350Y409575D01*
X209550Y428625D02*
X206375Y428625D01*
X209550Y428625D02*
X241300Y428625D01*
X206375Y428625D02*
X206375Y422275D01*
X203200Y419100D01*
X203200Y406400D01*
X209550Y400050D01*
X212090Y401400D01*
X22225Y533400D02*
X-12700Y533400D01*
X22225Y533400D02*
X22225Y596900D01*
X73025Y647700D01*
X209550Y647700D01*
X209550Y625475D02*
X209550Y428625D01*
D19*
X155575Y625475D03*
X231775Y295275D03*
X260350Y409575D03*
D17*
X209550Y625475D02*
X209550Y647700D01*
D19*
X209550Y625475D03*
D18*
X154559Y399796D03*
D17*
X99060Y455295D01*
X99060Y505460D01*
X98679Y505460D01*
D18*
X98679Y505460D03*
X139396Y510236D03*
D17*
X140335Y511175D01*
X142875Y511175D01*
X241300Y390525D02*
X285750Y390525D01*
X285750Y374650D01*
D19*
X241300Y390525D03*
X285750Y374650D03*
D17*
X219075Y365125D02*
X196850Y387350D01*
X219075Y365125D02*
X219075Y288925D01*
X225425Y282575D01*
X285750Y282575D01*
X285750Y355600D01*
D19*
X196850Y387350D03*
X285750Y355600D03*
D17*
X187325Y527050D02*
X180975Y527050D01*
X177800Y523875D01*
X168275Y523875D01*
X168275Y527050D01*
X165100Y530225D01*
X165100Y542925D01*
X168275Y546100D01*
X174625Y546100D01*
X174625Y625475D01*
X161925Y638175D01*
X111125Y638175D01*
X111125Y469900D01*
X133350Y447675D01*
X155575Y447675D01*
X187325Y527050D02*
X189230Y527130D01*
X155575Y447675D02*
X155600Y447100D01*
X167005Y433070D02*
X167005Y367030D01*
X165100Y365125D01*
X167005Y433070D02*
X155575Y444500D01*
X155600Y447100D01*
D19*
X165100Y365125D03*
D17*
X176213Y468313D02*
X174625Y469900D01*
X176213Y468313D02*
X187325Y457200D01*
X174625Y469900D02*
X174625Y504825D01*
X155575Y523875D01*
X155575Y533400D01*
X187325Y457200D02*
X187960Y457120D01*
X155575Y533400D02*
X155600Y536000D01*
X177800Y469900D02*
X180975Y469900D01*
X177800Y469900D02*
X176213Y468313D01*
D19*
X180975Y469900D03*
D17*
X174625Y447675D02*
X187325Y447675D01*
X187960Y447120D01*
X174625Y447675D02*
X174600Y447100D01*
X174625Y536575D02*
X187325Y536575D01*
X189230Y537130D01*
X174625Y536575D02*
X174600Y536000D01*
X161925Y581025D02*
X152400Y581025D01*
X152400Y580470D01*
X161925Y581025D02*
X164610Y581660D01*
X165100Y581025D02*
X165100Y556200D01*
X165100Y581025D02*
X164610Y581660D01*
X152400Y580470D02*
X152400Y565150D01*
D19*
X152400Y565150D03*
D17*
X152400Y488950D02*
X140890Y488950D01*
X165100Y492125D02*
X165100Y467300D01*
X165100Y492125D02*
X164610Y492760D01*
X161925Y488950D02*
X152400Y488950D01*
X161925Y488950D02*
X161925Y492125D01*
X152400Y490300D02*
X152400Y488950D01*
X161925Y492125D02*
X164610Y492760D01*
X130175Y488950D02*
X123825Y482600D01*
X123825Y476250D01*
X130175Y488950D02*
X130890Y488950D01*
D19*
X123825Y476250D03*
D17*
X212725Y412750D02*
X228600Y412750D01*
X212725Y412750D02*
X212090Y411400D01*
D19*
X228600Y412750D03*
D17*
X98425Y527050D02*
X98425Y593725D01*
X73025Y619125D01*
X57150Y619125D01*
X31750Y593725D01*
X31750Y469900D01*
X-6350Y431800D01*
X-12700Y431800D01*
D19*
X98425Y527050D03*
D17*
X-7112Y375412D02*
X-22606Y375412D01*
X-7112Y375412D02*
X16510Y351790D01*
X120650Y351790D01*
X138430Y369570D01*
X138430Y391160D01*
X129540Y400050D01*
D18*
X129540Y400050D03*
D17*
X111125Y365125D02*
X85725Y390525D01*
X85725Y587375D01*
D19*
X111125Y365125D03*
X85725Y587375D03*
D17*
X63500Y384175D02*
X73025Y374650D01*
X63500Y384175D02*
X63500Y606425D01*
D19*
X73025Y374650D03*
X63500Y606425D03*
M02*
