M48
;GenerationSoftware,Autodesk,EAGLE,9.4.2*%
;CreationDate,2026-08-21T23:58:59Z*%
FMAT,2
ICI,OFF
METRIC,TZ,000.000
T5C0.600
T4C0.610
T3C0.700
T2C1.016
T1C1.118
%
G90
M71
T1
X-1270Y55880
X-1270Y60960
X-1270Y58420
X-1270Y53340
X-1270Y50800
X-1270Y48260
X-1270Y45720
X-1270Y43180
X3810Y26670
X6350Y26670
X8890Y26670
X11430Y26670
T2
X-2261Y31039
X2261Y37541
X2261Y31039
X-2261Y37541
T3
X15260Y34290
X17760Y34290
T4
X12449Y33782
X3810Y33401
X13940Y51024
X12954Y40005
X15456Y39980
X9868Y50546
T5
X15557Y62547
X23177Y29527
X8573Y58737
X26035Y40958
X24130Y39053
X28575Y37465
X19685Y38735
X28575Y35560
X16510Y36513
X18098Y46990
X15240Y56515
X22860Y41275
X12382Y47625
X9843Y52705
X11112Y36513
X20955Y62547
X7302Y37465
X6350Y60642
M30