G04 EAGLE Gerber RS-274X export*
G75*
%MOMM*%
%FSLAX34Y34*%
%LPD*%
%IN*%
%IPPOS*%
%AMOC8*
5,1,8,0,0,1.08239X$1,22.5*%
G01*
%ADD10C,0.254000*%


D10*
X-38100Y241300D02*
X368300Y241300D01*
X368300Y673100D01*
X-38100Y673100D01*
X-38100Y241300D01*
X348161Y291512D02*
X348161Y292688D01*
X348084Y293861D01*
X347930Y295027D01*
X347701Y296181D01*
X347396Y297316D01*
X347018Y298430D01*
X346568Y299516D01*
X346048Y300571D01*
X345460Y301589D01*
X344807Y302567D01*
X344091Y303500D01*
X343316Y304384D01*
X342484Y305216D01*
X341600Y305991D01*
X340667Y306707D01*
X339689Y307360D01*
X338671Y307948D01*
X337616Y308468D01*
X336530Y308918D01*
X335416Y309296D01*
X334281Y309601D01*
X333127Y309830D01*
X331961Y309984D01*
X330788Y310061D01*
X329612Y310061D01*
X328439Y309984D01*
X327273Y309830D01*
X326119Y309601D01*
X324984Y309296D01*
X323870Y308918D01*
X322784Y308468D01*
X321729Y307948D01*
X320711Y307360D01*
X319733Y306707D01*
X318800Y305991D01*
X317916Y305216D01*
X317084Y304384D01*
X316309Y303500D01*
X315593Y302567D01*
X314940Y301589D01*
X314352Y300571D01*
X313832Y299516D01*
X313382Y298430D01*
X313004Y297316D01*
X312699Y296181D01*
X312470Y295027D01*
X312316Y293861D01*
X312240Y292688D01*
X312240Y291512D01*
X312316Y290339D01*
X312470Y289173D01*
X312699Y288019D01*
X313004Y286884D01*
X313382Y285770D01*
X313832Y284684D01*
X314352Y283629D01*
X314940Y282611D01*
X315593Y281633D01*
X316309Y280700D01*
X317084Y279816D01*
X317916Y278984D01*
X318800Y278209D01*
X319733Y277493D01*
X320711Y276840D01*
X321729Y276252D01*
X322784Y275732D01*
X323870Y275282D01*
X324984Y274904D01*
X326119Y274599D01*
X327273Y274370D01*
X328439Y274216D01*
X329612Y274140D01*
X330788Y274140D01*
X331961Y274216D01*
X333127Y274370D01*
X334281Y274599D01*
X335416Y274904D01*
X336530Y275282D01*
X337616Y275732D01*
X338671Y276252D01*
X339689Y276840D01*
X340667Y277493D01*
X341600Y278209D01*
X342484Y278984D01*
X343316Y279816D01*
X344091Y280700D01*
X344807Y281633D01*
X345460Y282611D01*
X346048Y283629D01*
X346568Y284684D01*
X347018Y285770D01*
X347396Y286884D01*
X347701Y288019D01*
X347930Y289173D01*
X348084Y290339D01*
X348161Y291512D01*
X19231Y399462D02*
X19231Y400638D01*
X19154Y401811D01*
X19000Y402977D01*
X18771Y404131D01*
X18466Y405266D01*
X18088Y406380D01*
X17638Y407466D01*
X17118Y408521D01*
X16530Y409539D01*
X15877Y410517D01*
X15161Y411450D01*
X14386Y412334D01*
X13554Y413166D01*
X12670Y413941D01*
X11737Y414657D01*
X10759Y415310D01*
X9741Y415898D01*
X8686Y416418D01*
X7600Y416868D01*
X6486Y417246D01*
X5351Y417551D01*
X4197Y417780D01*
X3031Y417934D01*
X1858Y418011D01*
X682Y418011D01*
X-491Y417934D01*
X-1657Y417780D01*
X-2811Y417551D01*
X-3946Y417246D01*
X-5060Y416868D01*
X-6146Y416418D01*
X-7201Y415898D01*
X-8219Y415310D01*
X-9197Y414657D01*
X-10130Y413941D01*
X-11014Y413166D01*
X-11846Y412334D01*
X-12621Y411450D01*
X-13337Y410517D01*
X-13990Y409539D01*
X-14578Y408521D01*
X-15098Y407466D01*
X-15548Y406380D01*
X-15926Y405266D01*
X-16231Y404131D01*
X-16460Y402977D01*
X-16614Y401811D01*
X-16691Y400638D01*
X-16691Y399462D01*
X-16614Y398289D01*
X-16460Y397123D01*
X-16231Y395969D01*
X-15926Y394834D01*
X-15548Y393720D01*
X-15098Y392634D01*
X-14578Y391579D01*
X-13990Y390561D01*
X-13337Y389583D01*
X-12621Y388650D01*
X-11846Y387766D01*
X-11014Y386934D01*
X-10130Y386159D01*
X-9197Y385443D01*
X-8219Y384790D01*
X-7201Y384202D01*
X-6146Y383682D01*
X-5060Y383232D01*
X-3946Y382854D01*
X-2811Y382549D01*
X-1657Y382320D01*
X-491Y382166D01*
X682Y382090D01*
X1858Y382090D01*
X3031Y382166D01*
X4197Y382320D01*
X5351Y382549D01*
X6486Y382854D01*
X7600Y383232D01*
X8686Y383682D01*
X9741Y384202D01*
X10759Y384790D01*
X11737Y385443D01*
X12670Y386159D01*
X13554Y386934D01*
X14386Y387766D01*
X15161Y388650D01*
X15877Y389583D01*
X16530Y390561D01*
X17118Y391579D01*
X17638Y392634D01*
X18088Y393720D01*
X18466Y394834D01*
X18771Y395969D01*
X19000Y397123D01*
X19154Y398289D01*
X19231Y399462D01*
X349431Y640762D02*
X349431Y641938D01*
X349354Y643111D01*
X349200Y644277D01*
X348971Y645431D01*
X348666Y646566D01*
X348288Y647680D01*
X347838Y648766D01*
X347318Y649821D01*
X346730Y650839D01*
X346077Y651817D01*
X345361Y652750D01*
X344586Y653634D01*
X343754Y654466D01*
X342870Y655241D01*
X341937Y655957D01*
X340959Y656610D01*
X339941Y657198D01*
X338886Y657718D01*
X337800Y658168D01*
X336686Y658546D01*
X335551Y658851D01*
X334397Y659080D01*
X333231Y659234D01*
X332058Y659311D01*
X330882Y659311D01*
X329709Y659234D01*
X328543Y659080D01*
X327389Y658851D01*
X326254Y658546D01*
X325140Y658168D01*
X324054Y657718D01*
X322999Y657198D01*
X321981Y656610D01*
X321003Y655957D01*
X320070Y655241D01*
X319186Y654466D01*
X318354Y653634D01*
X317579Y652750D01*
X316863Y651817D01*
X316210Y650839D01*
X315622Y649821D01*
X315102Y648766D01*
X314652Y647680D01*
X314274Y646566D01*
X313969Y645431D01*
X313740Y644277D01*
X313586Y643111D01*
X313510Y641938D01*
X313510Y640762D01*
X313586Y639589D01*
X313740Y638423D01*
X313969Y637269D01*
X314274Y636134D01*
X314652Y635020D01*
X315102Y633934D01*
X315622Y632879D01*
X316210Y631861D01*
X316863Y630883D01*
X317579Y629950D01*
X318354Y629066D01*
X319186Y628234D01*
X320070Y627459D01*
X321003Y626743D01*
X321981Y626090D01*
X322999Y625502D01*
X324054Y624982D01*
X325140Y624532D01*
X326254Y624154D01*
X327389Y623849D01*
X328543Y623620D01*
X329709Y623466D01*
X330882Y623390D01*
X332058Y623390D01*
X333231Y623466D01*
X334397Y623620D01*
X335551Y623849D01*
X336686Y624154D01*
X337800Y624532D01*
X338886Y624982D01*
X339941Y625502D01*
X340959Y626090D01*
X341937Y626743D01*
X342870Y627459D01*
X343754Y628234D01*
X344586Y629066D01*
X345361Y629950D01*
X346077Y630883D01*
X346730Y631861D01*
X347318Y632879D01*
X347838Y633934D01*
X348288Y635020D01*
X348666Y636134D01*
X348971Y637269D01*
X349200Y638423D01*
X349354Y639589D01*
X349431Y640762D01*
M02*
