G04 EAGLE Gerber RS-274X export*
G75*
%MOMM*%
%FSLAX34Y34*%
%LPD*%
%INSilkscreen Bottom*%
%IPPOS*%
%AMOC8*
5,1,8,0,0,1.08239X$1,22.5*%
G01*
%ADD10C,0.127000*%
%ADD11C,0.200000*%
%ADD12C,0.101600*%


D10*
X150600Y552600D02*
X150600Y543200D01*
X179600Y543200D02*
X179600Y552600D01*
X171300Y552600D01*
X158900Y552600D02*
X150600Y552600D01*
D11*
X186600Y536000D02*
X186602Y536063D01*
X186608Y536125D01*
X186618Y536187D01*
X186631Y536249D01*
X186649Y536309D01*
X186670Y536368D01*
X186695Y536426D01*
X186724Y536482D01*
X186756Y536536D01*
X186791Y536588D01*
X186829Y536637D01*
X186871Y536685D01*
X186915Y536729D01*
X186963Y536771D01*
X187012Y536809D01*
X187064Y536844D01*
X187118Y536876D01*
X187174Y536905D01*
X187232Y536930D01*
X187291Y536951D01*
X187351Y536969D01*
X187413Y536982D01*
X187475Y536992D01*
X187537Y536998D01*
X187600Y537000D01*
X187663Y536998D01*
X187725Y536992D01*
X187787Y536982D01*
X187849Y536969D01*
X187909Y536951D01*
X187968Y536930D01*
X188026Y536905D01*
X188082Y536876D01*
X188136Y536844D01*
X188188Y536809D01*
X188237Y536771D01*
X188285Y536729D01*
X188329Y536685D01*
X188371Y536637D01*
X188409Y536588D01*
X188444Y536536D01*
X188476Y536482D01*
X188505Y536426D01*
X188530Y536368D01*
X188551Y536309D01*
X188569Y536249D01*
X188582Y536187D01*
X188592Y536125D01*
X188598Y536063D01*
X188600Y536000D01*
X188598Y535937D01*
X188592Y535875D01*
X188582Y535813D01*
X188569Y535751D01*
X188551Y535691D01*
X188530Y535632D01*
X188505Y535574D01*
X188476Y535518D01*
X188444Y535464D01*
X188409Y535412D01*
X188371Y535363D01*
X188329Y535315D01*
X188285Y535271D01*
X188237Y535229D01*
X188188Y535191D01*
X188136Y535156D01*
X188082Y535124D01*
X188026Y535095D01*
X187968Y535070D01*
X187909Y535049D01*
X187849Y535031D01*
X187787Y535018D01*
X187725Y535008D01*
X187663Y535002D01*
X187600Y535000D01*
X187537Y535002D01*
X187475Y535008D01*
X187413Y535018D01*
X187351Y535031D01*
X187291Y535049D01*
X187232Y535070D01*
X187174Y535095D01*
X187118Y535124D01*
X187064Y535156D01*
X187012Y535191D01*
X186963Y535229D01*
X186915Y535271D01*
X186871Y535315D01*
X186829Y535363D01*
X186791Y535412D01*
X186756Y535464D01*
X186724Y535518D01*
X186695Y535574D01*
X186670Y535632D01*
X186649Y535691D01*
X186631Y535751D01*
X186618Y535813D01*
X186608Y535875D01*
X186602Y535937D01*
X186600Y536000D01*
D12*
X195854Y530008D02*
X201046Y530008D01*
X201159Y530010D01*
X201272Y530016D01*
X201385Y530026D01*
X201498Y530040D01*
X201610Y530057D01*
X201721Y530079D01*
X201831Y530104D01*
X201941Y530134D01*
X202049Y530167D01*
X202156Y530204D01*
X202262Y530244D01*
X202366Y530289D01*
X202469Y530337D01*
X202570Y530388D01*
X202669Y530443D01*
X202766Y530501D01*
X202861Y530563D01*
X202954Y530628D01*
X203044Y530696D01*
X203132Y530767D01*
X203218Y530842D01*
X203301Y530919D01*
X203381Y530999D01*
X203458Y531082D01*
X203533Y531168D01*
X203604Y531256D01*
X203672Y531346D01*
X203737Y531439D01*
X203799Y531534D01*
X203857Y531631D01*
X203912Y531730D01*
X203963Y531831D01*
X204011Y531934D01*
X204056Y532038D01*
X204096Y532144D01*
X204133Y532251D01*
X204166Y532359D01*
X204196Y532469D01*
X204221Y532579D01*
X204243Y532690D01*
X204260Y532802D01*
X204274Y532915D01*
X204284Y533028D01*
X204290Y533141D01*
X204292Y533254D01*
X204290Y533367D01*
X204284Y533480D01*
X204274Y533593D01*
X204260Y533706D01*
X204243Y533818D01*
X204221Y533929D01*
X204196Y534039D01*
X204166Y534149D01*
X204133Y534257D01*
X204096Y534364D01*
X204056Y534470D01*
X204011Y534574D01*
X203963Y534677D01*
X203912Y534778D01*
X203857Y534877D01*
X203799Y534974D01*
X203737Y535069D01*
X203672Y535162D01*
X203604Y535252D01*
X203533Y535340D01*
X203458Y535426D01*
X203381Y535509D01*
X203301Y535589D01*
X203218Y535666D01*
X203132Y535741D01*
X203044Y535812D01*
X202954Y535880D01*
X202861Y535945D01*
X202766Y536007D01*
X202669Y536065D01*
X202570Y536120D01*
X202469Y536171D01*
X202366Y536219D01*
X202262Y536264D01*
X202156Y536304D01*
X202049Y536341D01*
X201941Y536374D01*
X201831Y536404D01*
X201721Y536429D01*
X201610Y536451D01*
X201498Y536468D01*
X201385Y536482D01*
X201272Y536492D01*
X201159Y536498D01*
X201046Y536500D01*
X201046Y536499D02*
X195854Y536499D01*
X195854Y536500D02*
X195741Y536498D01*
X195628Y536492D01*
X195515Y536482D01*
X195402Y536468D01*
X195290Y536451D01*
X195179Y536429D01*
X195069Y536404D01*
X194959Y536374D01*
X194851Y536341D01*
X194744Y536304D01*
X194638Y536264D01*
X194534Y536219D01*
X194431Y536171D01*
X194330Y536120D01*
X194231Y536065D01*
X194134Y536007D01*
X194039Y535945D01*
X193946Y535880D01*
X193856Y535812D01*
X193768Y535741D01*
X193682Y535666D01*
X193599Y535589D01*
X193519Y535509D01*
X193442Y535426D01*
X193367Y535340D01*
X193296Y535252D01*
X193228Y535162D01*
X193163Y535069D01*
X193101Y534974D01*
X193043Y534877D01*
X192988Y534778D01*
X192937Y534677D01*
X192889Y534574D01*
X192844Y534470D01*
X192804Y534364D01*
X192767Y534257D01*
X192734Y534149D01*
X192704Y534039D01*
X192679Y533929D01*
X192657Y533818D01*
X192640Y533706D01*
X192626Y533593D01*
X192616Y533480D01*
X192610Y533367D01*
X192608Y533254D01*
X192610Y533141D01*
X192616Y533028D01*
X192626Y532915D01*
X192640Y532802D01*
X192657Y532690D01*
X192679Y532579D01*
X192704Y532469D01*
X192734Y532359D01*
X192767Y532251D01*
X192804Y532144D01*
X192844Y532038D01*
X192889Y531934D01*
X192937Y531831D01*
X192988Y531730D01*
X193043Y531631D01*
X193101Y531534D01*
X193163Y531439D01*
X193228Y531346D01*
X193296Y531256D01*
X193367Y531168D01*
X193442Y531082D01*
X193519Y530999D01*
X193599Y530919D01*
X193682Y530842D01*
X193768Y530767D01*
X193856Y530696D01*
X193946Y530628D01*
X194039Y530563D01*
X194134Y530501D01*
X194231Y530443D01*
X194330Y530388D01*
X194431Y530337D01*
X194534Y530289D01*
X194638Y530244D01*
X194744Y530204D01*
X194851Y530167D01*
X194959Y530134D01*
X195069Y530104D01*
X195179Y530079D01*
X195290Y530057D01*
X195402Y530040D01*
X195515Y530026D01*
X195628Y530016D01*
X195741Y530010D01*
X195854Y530008D01*
X195204Y535201D02*
X192608Y537797D01*
X192608Y541152D02*
X192608Y544397D01*
X192610Y544510D01*
X192616Y544623D01*
X192626Y544736D01*
X192640Y544849D01*
X192657Y544961D01*
X192679Y545072D01*
X192704Y545182D01*
X192734Y545292D01*
X192767Y545400D01*
X192804Y545507D01*
X192844Y545613D01*
X192889Y545717D01*
X192937Y545820D01*
X192988Y545921D01*
X193043Y546020D01*
X193101Y546117D01*
X193163Y546212D01*
X193228Y546305D01*
X193296Y546395D01*
X193367Y546483D01*
X193442Y546569D01*
X193519Y546652D01*
X193599Y546732D01*
X193682Y546809D01*
X193768Y546884D01*
X193856Y546955D01*
X193946Y547023D01*
X194039Y547088D01*
X194134Y547150D01*
X194231Y547208D01*
X194330Y547263D01*
X194431Y547314D01*
X194534Y547362D01*
X194638Y547407D01*
X194744Y547447D01*
X194851Y547484D01*
X194959Y547517D01*
X195069Y547547D01*
X195179Y547572D01*
X195290Y547594D01*
X195402Y547611D01*
X195515Y547625D01*
X195628Y547635D01*
X195741Y547641D01*
X195854Y547643D01*
X195967Y547641D01*
X196080Y547635D01*
X196193Y547625D01*
X196306Y547611D01*
X196418Y547594D01*
X196529Y547572D01*
X196639Y547547D01*
X196749Y547517D01*
X196857Y547484D01*
X196964Y547447D01*
X197070Y547407D01*
X197174Y547362D01*
X197277Y547314D01*
X197378Y547263D01*
X197477Y547208D01*
X197574Y547150D01*
X197669Y547088D01*
X197762Y547023D01*
X197852Y546955D01*
X197940Y546884D01*
X198026Y546809D01*
X198109Y546732D01*
X198189Y546652D01*
X198266Y546569D01*
X198341Y546483D01*
X198412Y546395D01*
X198480Y546305D01*
X198545Y546212D01*
X198607Y546117D01*
X198665Y546020D01*
X198720Y545921D01*
X198771Y545820D01*
X198819Y545717D01*
X198864Y545613D01*
X198904Y545507D01*
X198941Y545400D01*
X198974Y545292D01*
X199004Y545182D01*
X199029Y545072D01*
X199051Y544961D01*
X199068Y544849D01*
X199082Y544736D01*
X199092Y544623D01*
X199098Y544510D01*
X199100Y544397D01*
X204292Y545047D02*
X204292Y541152D01*
X204292Y545047D02*
X204290Y545148D01*
X204284Y545248D01*
X204274Y545348D01*
X204261Y545448D01*
X204243Y545547D01*
X204222Y545646D01*
X204197Y545743D01*
X204168Y545840D01*
X204135Y545935D01*
X204099Y546029D01*
X204059Y546121D01*
X204016Y546212D01*
X203969Y546301D01*
X203919Y546388D01*
X203865Y546474D01*
X203808Y546557D01*
X203748Y546637D01*
X203685Y546716D01*
X203618Y546792D01*
X203549Y546865D01*
X203477Y546935D01*
X203403Y547003D01*
X203326Y547068D01*
X203246Y547129D01*
X203164Y547188D01*
X203080Y547243D01*
X202994Y547295D01*
X202906Y547344D01*
X202816Y547389D01*
X202724Y547431D01*
X202631Y547469D01*
X202536Y547503D01*
X202441Y547534D01*
X202344Y547561D01*
X202246Y547584D01*
X202147Y547604D01*
X202047Y547619D01*
X201947Y547631D01*
X201847Y547639D01*
X201746Y547643D01*
X201646Y547643D01*
X201545Y547639D01*
X201445Y547631D01*
X201345Y547619D01*
X201245Y547604D01*
X201146Y547584D01*
X201048Y547561D01*
X200951Y547534D01*
X200856Y547503D01*
X200761Y547469D01*
X200668Y547431D01*
X200576Y547389D01*
X200486Y547344D01*
X200398Y547295D01*
X200312Y547243D01*
X200228Y547188D01*
X200146Y547129D01*
X200066Y547068D01*
X199989Y547003D01*
X199915Y546935D01*
X199843Y546865D01*
X199774Y546792D01*
X199707Y546716D01*
X199644Y546637D01*
X199584Y546557D01*
X199527Y546474D01*
X199473Y546388D01*
X199423Y546301D01*
X199376Y546212D01*
X199333Y546121D01*
X199293Y546029D01*
X199257Y545935D01*
X199224Y545840D01*
X199195Y545743D01*
X199170Y545646D01*
X199149Y545547D01*
X199131Y545448D01*
X199118Y545348D01*
X199108Y545248D01*
X199102Y545148D01*
X199100Y545047D01*
X199099Y545047D02*
X199099Y542450D01*
D10*
X150600Y463700D02*
X150600Y454300D01*
X179600Y454300D02*
X179600Y463700D01*
X171300Y463700D01*
X158900Y463700D02*
X150600Y463700D01*
D11*
X186600Y447100D02*
X186602Y447163D01*
X186608Y447225D01*
X186618Y447287D01*
X186631Y447349D01*
X186649Y447409D01*
X186670Y447468D01*
X186695Y447526D01*
X186724Y447582D01*
X186756Y447636D01*
X186791Y447688D01*
X186829Y447737D01*
X186871Y447785D01*
X186915Y447829D01*
X186963Y447871D01*
X187012Y447909D01*
X187064Y447944D01*
X187118Y447976D01*
X187174Y448005D01*
X187232Y448030D01*
X187291Y448051D01*
X187351Y448069D01*
X187413Y448082D01*
X187475Y448092D01*
X187537Y448098D01*
X187600Y448100D01*
X187663Y448098D01*
X187725Y448092D01*
X187787Y448082D01*
X187849Y448069D01*
X187909Y448051D01*
X187968Y448030D01*
X188026Y448005D01*
X188082Y447976D01*
X188136Y447944D01*
X188188Y447909D01*
X188237Y447871D01*
X188285Y447829D01*
X188329Y447785D01*
X188371Y447737D01*
X188409Y447688D01*
X188444Y447636D01*
X188476Y447582D01*
X188505Y447526D01*
X188530Y447468D01*
X188551Y447409D01*
X188569Y447349D01*
X188582Y447287D01*
X188592Y447225D01*
X188598Y447163D01*
X188600Y447100D01*
X188598Y447037D01*
X188592Y446975D01*
X188582Y446913D01*
X188569Y446851D01*
X188551Y446791D01*
X188530Y446732D01*
X188505Y446674D01*
X188476Y446618D01*
X188444Y446564D01*
X188409Y446512D01*
X188371Y446463D01*
X188329Y446415D01*
X188285Y446371D01*
X188237Y446329D01*
X188188Y446291D01*
X188136Y446256D01*
X188082Y446224D01*
X188026Y446195D01*
X187968Y446170D01*
X187909Y446149D01*
X187849Y446131D01*
X187787Y446118D01*
X187725Y446108D01*
X187663Y446102D01*
X187600Y446100D01*
X187537Y446102D01*
X187475Y446108D01*
X187413Y446118D01*
X187351Y446131D01*
X187291Y446149D01*
X187232Y446170D01*
X187174Y446195D01*
X187118Y446224D01*
X187064Y446256D01*
X187012Y446291D01*
X186963Y446329D01*
X186915Y446371D01*
X186871Y446415D01*
X186829Y446463D01*
X186791Y446512D01*
X186756Y446564D01*
X186724Y446618D01*
X186695Y446674D01*
X186670Y446732D01*
X186649Y446791D01*
X186631Y446851D01*
X186618Y446913D01*
X186608Y446975D01*
X186602Y447037D01*
X186600Y447100D01*
D12*
X195854Y441108D02*
X201046Y441108D01*
X201159Y441110D01*
X201272Y441116D01*
X201385Y441126D01*
X201498Y441140D01*
X201610Y441157D01*
X201721Y441179D01*
X201831Y441204D01*
X201941Y441234D01*
X202049Y441267D01*
X202156Y441304D01*
X202262Y441344D01*
X202366Y441389D01*
X202469Y441437D01*
X202570Y441488D01*
X202669Y441543D01*
X202766Y441601D01*
X202861Y441663D01*
X202954Y441728D01*
X203044Y441796D01*
X203132Y441867D01*
X203218Y441942D01*
X203301Y442019D01*
X203381Y442099D01*
X203458Y442182D01*
X203533Y442268D01*
X203604Y442356D01*
X203672Y442446D01*
X203737Y442539D01*
X203799Y442634D01*
X203857Y442731D01*
X203912Y442830D01*
X203963Y442931D01*
X204011Y443034D01*
X204056Y443138D01*
X204096Y443244D01*
X204133Y443351D01*
X204166Y443459D01*
X204196Y443569D01*
X204221Y443679D01*
X204243Y443790D01*
X204260Y443902D01*
X204274Y444015D01*
X204284Y444128D01*
X204290Y444241D01*
X204292Y444354D01*
X204290Y444467D01*
X204284Y444580D01*
X204274Y444693D01*
X204260Y444806D01*
X204243Y444918D01*
X204221Y445029D01*
X204196Y445139D01*
X204166Y445249D01*
X204133Y445357D01*
X204096Y445464D01*
X204056Y445570D01*
X204011Y445674D01*
X203963Y445777D01*
X203912Y445878D01*
X203857Y445977D01*
X203799Y446074D01*
X203737Y446169D01*
X203672Y446262D01*
X203604Y446352D01*
X203533Y446440D01*
X203458Y446526D01*
X203381Y446609D01*
X203301Y446689D01*
X203218Y446766D01*
X203132Y446841D01*
X203044Y446912D01*
X202954Y446980D01*
X202861Y447045D01*
X202766Y447107D01*
X202669Y447165D01*
X202570Y447220D01*
X202469Y447271D01*
X202366Y447319D01*
X202262Y447364D01*
X202156Y447404D01*
X202049Y447441D01*
X201941Y447474D01*
X201831Y447504D01*
X201721Y447529D01*
X201610Y447551D01*
X201498Y447568D01*
X201385Y447582D01*
X201272Y447592D01*
X201159Y447598D01*
X201046Y447600D01*
X201046Y447599D02*
X195854Y447599D01*
X195854Y447600D02*
X195741Y447598D01*
X195628Y447592D01*
X195515Y447582D01*
X195402Y447568D01*
X195290Y447551D01*
X195179Y447529D01*
X195069Y447504D01*
X194959Y447474D01*
X194851Y447441D01*
X194744Y447404D01*
X194638Y447364D01*
X194534Y447319D01*
X194431Y447271D01*
X194330Y447220D01*
X194231Y447165D01*
X194134Y447107D01*
X194039Y447045D01*
X193946Y446980D01*
X193856Y446912D01*
X193768Y446841D01*
X193682Y446766D01*
X193599Y446689D01*
X193519Y446609D01*
X193442Y446526D01*
X193367Y446440D01*
X193296Y446352D01*
X193228Y446262D01*
X193163Y446169D01*
X193101Y446074D01*
X193043Y445977D01*
X192988Y445878D01*
X192937Y445777D01*
X192889Y445674D01*
X192844Y445570D01*
X192804Y445464D01*
X192767Y445357D01*
X192734Y445249D01*
X192704Y445139D01*
X192679Y445029D01*
X192657Y444918D01*
X192640Y444806D01*
X192626Y444693D01*
X192616Y444580D01*
X192610Y444467D01*
X192608Y444354D01*
X192610Y444241D01*
X192616Y444128D01*
X192626Y444015D01*
X192640Y443902D01*
X192657Y443790D01*
X192679Y443679D01*
X192704Y443569D01*
X192734Y443459D01*
X192767Y443351D01*
X192804Y443244D01*
X192844Y443138D01*
X192889Y443034D01*
X192937Y442931D01*
X192988Y442830D01*
X193043Y442731D01*
X193101Y442634D01*
X193163Y442539D01*
X193228Y442446D01*
X193296Y442356D01*
X193367Y442268D01*
X193442Y442182D01*
X193519Y442099D01*
X193599Y442019D01*
X193682Y441942D01*
X193768Y441867D01*
X193856Y441796D01*
X193946Y441728D01*
X194039Y441663D01*
X194134Y441601D01*
X194231Y441543D01*
X194330Y441488D01*
X194431Y441437D01*
X194534Y441389D01*
X194638Y441344D01*
X194744Y441304D01*
X194851Y441267D01*
X194959Y441234D01*
X195069Y441204D01*
X195179Y441179D01*
X195290Y441157D01*
X195402Y441140D01*
X195515Y441126D01*
X195628Y441116D01*
X195741Y441110D01*
X195854Y441108D01*
X195204Y446301D02*
X192608Y448897D01*
X195204Y452252D02*
X204292Y454848D01*
X195204Y452252D02*
X195204Y458743D01*
X197801Y456796D02*
X192608Y456796D01*
D10*
X182975Y525335D02*
X178149Y525335D01*
X182975Y525335D02*
X182975Y526675D01*
X182973Y526746D01*
X182967Y526818D01*
X182958Y526888D01*
X182945Y526958D01*
X182928Y527028D01*
X182907Y527096D01*
X182883Y527163D01*
X182855Y527229D01*
X182824Y527293D01*
X182789Y527356D01*
X182751Y527416D01*
X182710Y527475D01*
X182666Y527531D01*
X182619Y527585D01*
X182570Y527636D01*
X182517Y527684D01*
X182462Y527730D01*
X182405Y527772D01*
X182345Y527812D01*
X182284Y527848D01*
X182220Y527881D01*
X182155Y527910D01*
X182089Y527936D01*
X182021Y527959D01*
X181952Y527978D01*
X181882Y527993D01*
X181812Y528004D01*
X181741Y528012D01*
X181670Y528016D01*
X181598Y528016D01*
X181527Y528012D01*
X181456Y528004D01*
X181386Y527993D01*
X181316Y527978D01*
X181247Y527959D01*
X181179Y527936D01*
X181113Y527910D01*
X181048Y527881D01*
X180984Y527848D01*
X180923Y527812D01*
X180863Y527772D01*
X180806Y527730D01*
X180751Y527684D01*
X180698Y527636D01*
X180649Y527585D01*
X180602Y527531D01*
X180558Y527475D01*
X180517Y527416D01*
X180479Y527356D01*
X180444Y527293D01*
X180413Y527229D01*
X180385Y527163D01*
X180361Y527096D01*
X180340Y527028D01*
X180323Y526958D01*
X180310Y526888D01*
X180301Y526818D01*
X180295Y526746D01*
X180293Y526675D01*
X180294Y526675D02*
X180294Y525335D01*
X180294Y526944D02*
X178149Y528016D01*
X181903Y530758D02*
X182975Y532098D01*
X178149Y532098D01*
X178149Y530758D02*
X178149Y533439D01*
X178149Y536244D02*
X178149Y537853D01*
X178151Y537918D01*
X178157Y537982D01*
X178167Y538046D01*
X178180Y538110D01*
X178198Y538172D01*
X178219Y538233D01*
X178243Y538293D01*
X178272Y538351D01*
X178304Y538408D01*
X178339Y538462D01*
X178377Y538514D01*
X178419Y538564D01*
X178463Y538611D01*
X178510Y538655D01*
X178560Y538697D01*
X178612Y538735D01*
X178666Y538770D01*
X178723Y538802D01*
X178781Y538831D01*
X178841Y538855D01*
X178902Y538876D01*
X178964Y538894D01*
X179028Y538907D01*
X179092Y538917D01*
X179156Y538923D01*
X179221Y538925D01*
X179758Y538925D01*
X179823Y538923D01*
X179887Y538917D01*
X179951Y538907D01*
X180015Y538894D01*
X180077Y538876D01*
X180138Y538855D01*
X180198Y538831D01*
X180256Y538802D01*
X180313Y538770D01*
X180367Y538735D01*
X180419Y538697D01*
X180469Y538655D01*
X180516Y538611D01*
X180560Y538564D01*
X180602Y538514D01*
X180640Y538462D01*
X180675Y538408D01*
X180707Y538351D01*
X180736Y538293D01*
X180760Y538233D01*
X180781Y538172D01*
X180799Y538110D01*
X180812Y538046D01*
X180822Y537982D01*
X180828Y537918D01*
X180830Y537853D01*
X180830Y536244D01*
X182975Y536244D01*
X182975Y538925D01*
X194215Y445325D02*
X199041Y445325D01*
X199041Y446666D01*
X199039Y446737D01*
X199033Y446809D01*
X199024Y446879D01*
X199011Y446949D01*
X198994Y447019D01*
X198973Y447087D01*
X198949Y447154D01*
X198921Y447220D01*
X198890Y447284D01*
X198855Y447347D01*
X198817Y447407D01*
X198776Y447466D01*
X198732Y447522D01*
X198685Y447576D01*
X198636Y447627D01*
X198583Y447675D01*
X198528Y447721D01*
X198471Y447763D01*
X198411Y447803D01*
X198350Y447839D01*
X198286Y447872D01*
X198221Y447901D01*
X198155Y447927D01*
X198087Y447950D01*
X198018Y447969D01*
X197948Y447984D01*
X197878Y447995D01*
X197807Y448003D01*
X197736Y448007D01*
X197664Y448007D01*
X197593Y448003D01*
X197522Y447995D01*
X197452Y447984D01*
X197382Y447969D01*
X197313Y447950D01*
X197245Y447927D01*
X197179Y447901D01*
X197114Y447872D01*
X197050Y447839D01*
X196989Y447803D01*
X196929Y447763D01*
X196872Y447721D01*
X196817Y447675D01*
X196764Y447627D01*
X196715Y447576D01*
X196668Y447522D01*
X196624Y447466D01*
X196583Y447407D01*
X196545Y447347D01*
X196510Y447284D01*
X196479Y447220D01*
X196451Y447154D01*
X196427Y447087D01*
X196406Y447019D01*
X196389Y446949D01*
X196376Y446879D01*
X196367Y446809D01*
X196361Y446737D01*
X196359Y446666D01*
X196360Y446666D02*
X196360Y445325D01*
X196360Y446934D02*
X194215Y448006D01*
X197969Y450748D02*
X199041Y452088D01*
X194215Y452088D01*
X194215Y450748D02*
X194215Y453429D01*
X196896Y456234D02*
X196896Y457843D01*
X196894Y457908D01*
X196888Y457972D01*
X196878Y458036D01*
X196865Y458100D01*
X196847Y458162D01*
X196826Y458223D01*
X196802Y458283D01*
X196773Y458341D01*
X196741Y458398D01*
X196706Y458452D01*
X196668Y458504D01*
X196626Y458554D01*
X196582Y458601D01*
X196535Y458645D01*
X196485Y458687D01*
X196433Y458725D01*
X196379Y458760D01*
X196322Y458792D01*
X196264Y458821D01*
X196204Y458845D01*
X196143Y458866D01*
X196081Y458884D01*
X196017Y458897D01*
X195953Y458907D01*
X195889Y458913D01*
X195824Y458915D01*
X195556Y458915D01*
X195556Y458916D02*
X195485Y458914D01*
X195413Y458908D01*
X195343Y458899D01*
X195273Y458886D01*
X195203Y458869D01*
X195135Y458848D01*
X195068Y458824D01*
X195002Y458796D01*
X194938Y458765D01*
X194875Y458730D01*
X194815Y458692D01*
X194756Y458651D01*
X194700Y458607D01*
X194646Y458560D01*
X194595Y458511D01*
X194547Y458458D01*
X194501Y458403D01*
X194459Y458346D01*
X194419Y458286D01*
X194383Y458225D01*
X194350Y458161D01*
X194321Y458096D01*
X194295Y458030D01*
X194272Y457962D01*
X194253Y457893D01*
X194238Y457823D01*
X194227Y457753D01*
X194219Y457682D01*
X194215Y457611D01*
X194215Y457539D01*
X194219Y457468D01*
X194227Y457397D01*
X194238Y457327D01*
X194253Y457257D01*
X194272Y457188D01*
X194295Y457120D01*
X194321Y457054D01*
X194350Y456989D01*
X194383Y456925D01*
X194419Y456864D01*
X194459Y456804D01*
X194501Y456747D01*
X194547Y456692D01*
X194595Y456639D01*
X194646Y456590D01*
X194700Y456543D01*
X194756Y456499D01*
X194815Y456458D01*
X194875Y456420D01*
X194938Y456385D01*
X195002Y456354D01*
X195068Y456326D01*
X195135Y456302D01*
X195203Y456281D01*
X195273Y456264D01*
X195343Y456251D01*
X195413Y456242D01*
X195485Y456236D01*
X195556Y456234D01*
X196896Y456234D01*
X196987Y456236D01*
X197078Y456242D01*
X197168Y456251D01*
X197259Y456265D01*
X197348Y456282D01*
X197436Y456303D01*
X197524Y456328D01*
X197611Y456357D01*
X197696Y456389D01*
X197780Y456424D01*
X197862Y456464D01*
X197942Y456506D01*
X198021Y456552D01*
X198097Y456602D01*
X198171Y456654D01*
X198244Y456710D01*
X198313Y456769D01*
X198380Y456830D01*
X198445Y456895D01*
X198506Y456962D01*
X198565Y457031D01*
X198621Y457103D01*
X198673Y457178D01*
X198723Y457254D01*
X198769Y457333D01*
X198811Y457413D01*
X198851Y457495D01*
X198886Y457579D01*
X198918Y457664D01*
X198947Y457751D01*
X198972Y457838D01*
X198993Y457927D01*
X199010Y458016D01*
X199024Y458107D01*
X199033Y458197D01*
X199039Y458288D01*
X199041Y458379D01*
X163481Y578675D02*
X158655Y578675D01*
X163481Y578675D02*
X163481Y580016D01*
X163479Y580087D01*
X163473Y580159D01*
X163464Y580229D01*
X163451Y580299D01*
X163434Y580369D01*
X163413Y580437D01*
X163389Y580504D01*
X163361Y580570D01*
X163330Y580634D01*
X163295Y580697D01*
X163257Y580757D01*
X163216Y580816D01*
X163172Y580872D01*
X163125Y580926D01*
X163076Y580977D01*
X163023Y581025D01*
X162968Y581071D01*
X162911Y581113D01*
X162851Y581153D01*
X162790Y581189D01*
X162726Y581222D01*
X162661Y581251D01*
X162595Y581277D01*
X162527Y581300D01*
X162458Y581319D01*
X162388Y581334D01*
X162318Y581345D01*
X162247Y581353D01*
X162176Y581357D01*
X162104Y581357D01*
X162033Y581353D01*
X161962Y581345D01*
X161892Y581334D01*
X161822Y581319D01*
X161753Y581300D01*
X161685Y581277D01*
X161619Y581251D01*
X161554Y581222D01*
X161490Y581189D01*
X161429Y581153D01*
X161369Y581113D01*
X161312Y581071D01*
X161257Y581025D01*
X161204Y580977D01*
X161155Y580926D01*
X161108Y580872D01*
X161064Y580816D01*
X161023Y580757D01*
X160985Y580697D01*
X160950Y580634D01*
X160919Y580570D01*
X160891Y580504D01*
X160867Y580437D01*
X160846Y580369D01*
X160829Y580299D01*
X160816Y580229D01*
X160807Y580159D01*
X160801Y580087D01*
X160799Y580016D01*
X160800Y580016D02*
X160800Y578675D01*
X160800Y580284D02*
X158655Y581356D01*
X162409Y584098D02*
X163481Y585438D01*
X158655Y585438D01*
X158655Y584098D02*
X158655Y586779D01*
X162945Y589584D02*
X163481Y589584D01*
X163481Y592265D01*
X158655Y590925D01*
X158655Y488505D02*
X163481Y488505D01*
X163481Y489846D01*
X163479Y489917D01*
X163473Y489989D01*
X163464Y490059D01*
X163451Y490129D01*
X163434Y490199D01*
X163413Y490267D01*
X163389Y490334D01*
X163361Y490400D01*
X163330Y490464D01*
X163295Y490527D01*
X163257Y490587D01*
X163216Y490646D01*
X163172Y490702D01*
X163125Y490756D01*
X163076Y490807D01*
X163023Y490855D01*
X162968Y490901D01*
X162911Y490943D01*
X162851Y490983D01*
X162790Y491019D01*
X162726Y491052D01*
X162661Y491081D01*
X162595Y491107D01*
X162527Y491130D01*
X162458Y491149D01*
X162388Y491164D01*
X162318Y491175D01*
X162247Y491183D01*
X162176Y491187D01*
X162104Y491187D01*
X162033Y491183D01*
X161962Y491175D01*
X161892Y491164D01*
X161822Y491149D01*
X161753Y491130D01*
X161685Y491107D01*
X161619Y491081D01*
X161554Y491052D01*
X161490Y491019D01*
X161429Y490983D01*
X161369Y490943D01*
X161312Y490901D01*
X161257Y490855D01*
X161204Y490807D01*
X161155Y490756D01*
X161108Y490702D01*
X161064Y490646D01*
X161023Y490587D01*
X160985Y490527D01*
X160950Y490464D01*
X160919Y490400D01*
X160891Y490334D01*
X160867Y490267D01*
X160846Y490199D01*
X160829Y490129D01*
X160816Y490059D01*
X160807Y489989D01*
X160801Y489917D01*
X160799Y489846D01*
X160800Y489846D02*
X160800Y488505D01*
X160800Y490114D02*
X158655Y491186D01*
X162409Y493928D02*
X163481Y495268D01*
X158655Y495268D01*
X158655Y493928D02*
X158655Y496609D01*
X159996Y499414D02*
X160067Y499416D01*
X160139Y499422D01*
X160209Y499431D01*
X160279Y499444D01*
X160349Y499461D01*
X160417Y499482D01*
X160484Y499506D01*
X160550Y499534D01*
X160614Y499565D01*
X160677Y499600D01*
X160737Y499638D01*
X160796Y499679D01*
X160852Y499723D01*
X160906Y499770D01*
X160957Y499819D01*
X161005Y499872D01*
X161051Y499927D01*
X161093Y499984D01*
X161133Y500044D01*
X161169Y500105D01*
X161202Y500169D01*
X161231Y500234D01*
X161257Y500300D01*
X161280Y500368D01*
X161299Y500437D01*
X161314Y500507D01*
X161325Y500577D01*
X161333Y500648D01*
X161337Y500719D01*
X161337Y500791D01*
X161333Y500862D01*
X161325Y500933D01*
X161314Y501003D01*
X161299Y501073D01*
X161280Y501142D01*
X161257Y501210D01*
X161231Y501276D01*
X161202Y501341D01*
X161169Y501405D01*
X161133Y501466D01*
X161093Y501526D01*
X161051Y501583D01*
X161005Y501638D01*
X160957Y501691D01*
X160906Y501740D01*
X160852Y501787D01*
X160796Y501831D01*
X160737Y501872D01*
X160677Y501910D01*
X160614Y501945D01*
X160550Y501976D01*
X160484Y502004D01*
X160417Y502028D01*
X160349Y502049D01*
X160279Y502066D01*
X160209Y502079D01*
X160139Y502088D01*
X160067Y502094D01*
X159996Y502096D01*
X159925Y502094D01*
X159853Y502088D01*
X159783Y502079D01*
X159713Y502066D01*
X159643Y502049D01*
X159575Y502028D01*
X159508Y502004D01*
X159442Y501976D01*
X159378Y501945D01*
X159315Y501910D01*
X159255Y501872D01*
X159196Y501831D01*
X159140Y501787D01*
X159086Y501740D01*
X159035Y501691D01*
X158987Y501638D01*
X158941Y501583D01*
X158899Y501526D01*
X158859Y501466D01*
X158823Y501405D01*
X158790Y501341D01*
X158761Y501276D01*
X158735Y501210D01*
X158712Y501142D01*
X158693Y501073D01*
X158678Y501003D01*
X158667Y500933D01*
X158659Y500862D01*
X158655Y500791D01*
X158655Y500719D01*
X158659Y500648D01*
X158667Y500577D01*
X158678Y500507D01*
X158693Y500437D01*
X158712Y500368D01*
X158735Y500300D01*
X158761Y500234D01*
X158790Y500169D01*
X158823Y500105D01*
X158859Y500044D01*
X158899Y499984D01*
X158941Y499927D01*
X158987Y499872D01*
X159035Y499819D01*
X159086Y499770D01*
X159140Y499723D01*
X159196Y499679D01*
X159255Y499638D01*
X159315Y499600D01*
X159378Y499565D01*
X159442Y499534D01*
X159508Y499506D01*
X159575Y499482D01*
X159643Y499461D01*
X159713Y499444D01*
X159783Y499431D01*
X159853Y499422D01*
X159925Y499416D01*
X159996Y499414D01*
X162409Y499683D02*
X162474Y499685D01*
X162538Y499691D01*
X162602Y499701D01*
X162666Y499714D01*
X162728Y499732D01*
X162789Y499753D01*
X162849Y499777D01*
X162907Y499806D01*
X162964Y499838D01*
X163018Y499873D01*
X163070Y499911D01*
X163120Y499953D01*
X163167Y499997D01*
X163211Y500044D01*
X163253Y500094D01*
X163291Y500146D01*
X163326Y500200D01*
X163358Y500257D01*
X163387Y500315D01*
X163411Y500375D01*
X163432Y500436D01*
X163450Y500498D01*
X163463Y500562D01*
X163473Y500626D01*
X163479Y500690D01*
X163481Y500755D01*
X163479Y500820D01*
X163473Y500884D01*
X163463Y500948D01*
X163450Y501012D01*
X163432Y501074D01*
X163411Y501135D01*
X163387Y501195D01*
X163358Y501253D01*
X163326Y501310D01*
X163291Y501364D01*
X163253Y501416D01*
X163211Y501466D01*
X163167Y501513D01*
X163120Y501557D01*
X163070Y501599D01*
X163018Y501637D01*
X162964Y501672D01*
X162907Y501704D01*
X162849Y501733D01*
X162789Y501757D01*
X162728Y501778D01*
X162666Y501796D01*
X162602Y501809D01*
X162538Y501819D01*
X162474Y501825D01*
X162409Y501827D01*
X162344Y501825D01*
X162280Y501819D01*
X162216Y501809D01*
X162152Y501796D01*
X162090Y501778D01*
X162029Y501757D01*
X161969Y501733D01*
X161911Y501704D01*
X161854Y501672D01*
X161800Y501637D01*
X161748Y501599D01*
X161698Y501557D01*
X161651Y501513D01*
X161607Y501466D01*
X161565Y501416D01*
X161527Y501364D01*
X161492Y501310D01*
X161460Y501253D01*
X161431Y501195D01*
X161407Y501135D01*
X161386Y501074D01*
X161368Y501012D01*
X161355Y500948D01*
X161345Y500884D01*
X161339Y500820D01*
X161337Y500755D01*
X161339Y500690D01*
X161345Y500626D01*
X161355Y500562D01*
X161368Y500498D01*
X161386Y500436D01*
X161407Y500375D01*
X161431Y500315D01*
X161460Y500257D01*
X161492Y500200D01*
X161527Y500146D01*
X161565Y500094D01*
X161607Y500044D01*
X161651Y499997D01*
X161698Y499953D01*
X161748Y499911D01*
X161800Y499873D01*
X161854Y499838D01*
X161911Y499806D01*
X161969Y499777D01*
X162029Y499753D01*
X162090Y499732D01*
X162152Y499714D01*
X162216Y499701D01*
X162280Y499691D01*
X162344Y499685D01*
X162409Y499683D01*
X142685Y500031D02*
X142685Y495205D01*
X142685Y500031D02*
X141345Y500031D01*
X141274Y500029D01*
X141202Y500023D01*
X141132Y500014D01*
X141062Y500001D01*
X140992Y499984D01*
X140924Y499963D01*
X140857Y499939D01*
X140791Y499911D01*
X140727Y499880D01*
X140664Y499845D01*
X140604Y499807D01*
X140545Y499766D01*
X140489Y499722D01*
X140435Y499675D01*
X140384Y499626D01*
X140336Y499573D01*
X140290Y499518D01*
X140248Y499461D01*
X140208Y499401D01*
X140172Y499340D01*
X140139Y499276D01*
X140110Y499211D01*
X140084Y499145D01*
X140061Y499077D01*
X140042Y499008D01*
X140027Y498938D01*
X140016Y498868D01*
X140008Y498797D01*
X140004Y498726D01*
X140004Y498654D01*
X140008Y498583D01*
X140016Y498512D01*
X140027Y498442D01*
X140042Y498372D01*
X140061Y498303D01*
X140084Y498235D01*
X140110Y498169D01*
X140139Y498104D01*
X140172Y498040D01*
X140208Y497979D01*
X140248Y497919D01*
X140290Y497862D01*
X140336Y497807D01*
X140384Y497754D01*
X140435Y497705D01*
X140489Y497658D01*
X140545Y497614D01*
X140604Y497573D01*
X140664Y497535D01*
X140727Y497500D01*
X140791Y497469D01*
X140857Y497441D01*
X140924Y497417D01*
X140992Y497396D01*
X141062Y497379D01*
X141132Y497366D01*
X141202Y497357D01*
X141274Y497351D01*
X141345Y497349D01*
X141345Y497350D02*
X142685Y497350D01*
X141076Y497350D02*
X140004Y495205D01*
X137262Y498959D02*
X135922Y500031D01*
X135922Y495205D01*
X137262Y495205D02*
X134581Y495205D01*
X130704Y497350D02*
X129095Y497350D01*
X130704Y497350D02*
X130769Y497352D01*
X130833Y497358D01*
X130897Y497368D01*
X130961Y497381D01*
X131023Y497399D01*
X131084Y497420D01*
X131144Y497444D01*
X131202Y497473D01*
X131259Y497505D01*
X131313Y497540D01*
X131365Y497578D01*
X131415Y497620D01*
X131462Y497664D01*
X131506Y497711D01*
X131548Y497761D01*
X131586Y497813D01*
X131621Y497867D01*
X131653Y497924D01*
X131682Y497982D01*
X131706Y498042D01*
X131727Y498103D01*
X131745Y498165D01*
X131758Y498229D01*
X131768Y498293D01*
X131774Y498357D01*
X131776Y498422D01*
X131776Y498690D01*
X131774Y498761D01*
X131768Y498833D01*
X131759Y498903D01*
X131746Y498973D01*
X131729Y499043D01*
X131708Y499111D01*
X131684Y499178D01*
X131656Y499244D01*
X131625Y499308D01*
X131590Y499371D01*
X131552Y499431D01*
X131511Y499490D01*
X131467Y499546D01*
X131420Y499600D01*
X131371Y499651D01*
X131318Y499699D01*
X131263Y499745D01*
X131206Y499787D01*
X131146Y499827D01*
X131085Y499863D01*
X131021Y499896D01*
X130956Y499925D01*
X130890Y499951D01*
X130822Y499974D01*
X130753Y499993D01*
X130683Y500008D01*
X130613Y500019D01*
X130542Y500027D01*
X130471Y500031D01*
X130399Y500031D01*
X130328Y500027D01*
X130257Y500019D01*
X130187Y500008D01*
X130117Y499993D01*
X130048Y499974D01*
X129980Y499951D01*
X129914Y499925D01*
X129849Y499896D01*
X129785Y499863D01*
X129724Y499827D01*
X129664Y499787D01*
X129607Y499745D01*
X129552Y499699D01*
X129499Y499651D01*
X129450Y499600D01*
X129403Y499546D01*
X129359Y499490D01*
X129318Y499431D01*
X129280Y499371D01*
X129245Y499308D01*
X129214Y499244D01*
X129186Y499178D01*
X129162Y499111D01*
X129141Y499043D01*
X129124Y498973D01*
X129111Y498903D01*
X129102Y498833D01*
X129096Y498761D01*
X129094Y498690D01*
X129095Y498690D02*
X129095Y497350D01*
X129097Y497259D01*
X129103Y497168D01*
X129112Y497078D01*
X129126Y496987D01*
X129143Y496898D01*
X129164Y496810D01*
X129189Y496722D01*
X129218Y496635D01*
X129250Y496550D01*
X129285Y496466D01*
X129325Y496384D01*
X129367Y496304D01*
X129413Y496225D01*
X129463Y496149D01*
X129515Y496075D01*
X129571Y496002D01*
X129630Y495933D01*
X129691Y495866D01*
X129756Y495801D01*
X129823Y495740D01*
X129892Y495681D01*
X129965Y495625D01*
X130039Y495573D01*
X130115Y495523D01*
X130194Y495477D01*
X130274Y495435D01*
X130356Y495395D01*
X130440Y495360D01*
X130525Y495328D01*
X130612Y495299D01*
X130700Y495274D01*
X130788Y495253D01*
X130877Y495236D01*
X130968Y495222D01*
X131058Y495213D01*
X131149Y495207D01*
X131240Y495205D01*
X218345Y399605D02*
X223171Y399605D01*
X223171Y400946D01*
X223169Y401017D01*
X223163Y401089D01*
X223154Y401159D01*
X223141Y401229D01*
X223124Y401299D01*
X223103Y401367D01*
X223079Y401434D01*
X223051Y401500D01*
X223020Y401564D01*
X222985Y401627D01*
X222947Y401687D01*
X222906Y401746D01*
X222862Y401802D01*
X222815Y401856D01*
X222766Y401907D01*
X222713Y401955D01*
X222658Y402001D01*
X222601Y402043D01*
X222541Y402083D01*
X222480Y402119D01*
X222416Y402152D01*
X222351Y402181D01*
X222285Y402207D01*
X222217Y402230D01*
X222148Y402249D01*
X222078Y402264D01*
X222008Y402275D01*
X221937Y402283D01*
X221866Y402287D01*
X221794Y402287D01*
X221723Y402283D01*
X221652Y402275D01*
X221582Y402264D01*
X221512Y402249D01*
X221443Y402230D01*
X221375Y402207D01*
X221309Y402181D01*
X221244Y402152D01*
X221180Y402119D01*
X221119Y402083D01*
X221059Y402043D01*
X221002Y402001D01*
X220947Y401955D01*
X220894Y401907D01*
X220845Y401856D01*
X220798Y401802D01*
X220754Y401746D01*
X220713Y401687D01*
X220675Y401627D01*
X220640Y401564D01*
X220609Y401500D01*
X220581Y401434D01*
X220557Y401367D01*
X220536Y401299D01*
X220519Y401229D01*
X220506Y401159D01*
X220497Y401089D01*
X220491Y401017D01*
X220489Y400946D01*
X220490Y400946D02*
X220490Y399605D01*
X220490Y401214D02*
X218345Y402286D01*
X223171Y406502D02*
X223169Y406570D01*
X223163Y406637D01*
X223154Y406704D01*
X223141Y406771D01*
X223124Y406836D01*
X223103Y406901D01*
X223079Y406964D01*
X223051Y407026D01*
X223020Y407086D01*
X222986Y407144D01*
X222948Y407200D01*
X222908Y407255D01*
X222864Y407306D01*
X222817Y407355D01*
X222768Y407402D01*
X222717Y407446D01*
X222662Y407486D01*
X222606Y407524D01*
X222548Y407558D01*
X222488Y407589D01*
X222426Y407617D01*
X222363Y407641D01*
X222298Y407662D01*
X222233Y407679D01*
X222166Y407692D01*
X222099Y407701D01*
X222032Y407707D01*
X221964Y407709D01*
X223171Y406502D02*
X223169Y406424D01*
X223163Y406346D01*
X223153Y406269D01*
X223140Y406192D01*
X223122Y406116D01*
X223101Y406041D01*
X223076Y405967D01*
X223047Y405895D01*
X223015Y405824D01*
X222979Y405755D01*
X222940Y405687D01*
X222897Y405622D01*
X222851Y405559D01*
X222802Y405498D01*
X222750Y405440D01*
X222695Y405385D01*
X222638Y405332D01*
X222578Y405283D01*
X222515Y405236D01*
X222450Y405193D01*
X222384Y405153D01*
X222315Y405116D01*
X222244Y405083D01*
X222172Y405053D01*
X222099Y405027D01*
X221026Y407307D02*
X221075Y407356D01*
X221127Y407403D01*
X221182Y407446D01*
X221239Y407487D01*
X221298Y407525D01*
X221359Y407559D01*
X221422Y407590D01*
X221486Y407618D01*
X221552Y407642D01*
X221618Y407662D01*
X221686Y407679D01*
X221755Y407692D01*
X221824Y407701D01*
X221894Y407707D01*
X221964Y407709D01*
X221026Y407307D02*
X218345Y405028D01*
X218345Y407709D01*
X218345Y410514D02*
X218345Y411855D01*
X218347Y411926D01*
X218353Y411998D01*
X218362Y412068D01*
X218375Y412138D01*
X218392Y412208D01*
X218413Y412276D01*
X218437Y412343D01*
X218465Y412409D01*
X218496Y412473D01*
X218531Y412536D01*
X218569Y412596D01*
X218610Y412655D01*
X218654Y412711D01*
X218701Y412765D01*
X218750Y412816D01*
X218803Y412864D01*
X218858Y412910D01*
X218915Y412952D01*
X218975Y412992D01*
X219036Y413028D01*
X219100Y413061D01*
X219165Y413090D01*
X219231Y413116D01*
X219299Y413139D01*
X219368Y413158D01*
X219438Y413173D01*
X219508Y413184D01*
X219579Y413192D01*
X219650Y413196D01*
X219722Y413196D01*
X219793Y413192D01*
X219864Y413184D01*
X219934Y413173D01*
X220004Y413158D01*
X220073Y413139D01*
X220141Y413116D01*
X220207Y413090D01*
X220272Y413061D01*
X220336Y413028D01*
X220397Y412992D01*
X220457Y412952D01*
X220514Y412910D01*
X220569Y412864D01*
X220622Y412816D01*
X220671Y412765D01*
X220718Y412711D01*
X220762Y412655D01*
X220803Y412596D01*
X220841Y412536D01*
X220876Y412473D01*
X220907Y412409D01*
X220935Y412343D01*
X220959Y412276D01*
X220980Y412208D01*
X220997Y412138D01*
X221010Y412068D01*
X221019Y411998D01*
X221025Y411926D01*
X221027Y411855D01*
X223171Y412123D02*
X223171Y410514D01*
X223171Y412123D02*
X223169Y412188D01*
X223163Y412252D01*
X223153Y412316D01*
X223140Y412380D01*
X223122Y412442D01*
X223101Y412503D01*
X223077Y412563D01*
X223048Y412621D01*
X223016Y412678D01*
X222981Y412732D01*
X222943Y412784D01*
X222901Y412834D01*
X222857Y412881D01*
X222810Y412925D01*
X222760Y412967D01*
X222708Y413005D01*
X222654Y413040D01*
X222597Y413072D01*
X222539Y413101D01*
X222479Y413125D01*
X222418Y413146D01*
X222356Y413164D01*
X222292Y413177D01*
X222228Y413187D01*
X222164Y413193D01*
X222099Y413195D01*
X222034Y413193D01*
X221970Y413187D01*
X221906Y413177D01*
X221842Y413164D01*
X221780Y413146D01*
X221719Y413125D01*
X221659Y413101D01*
X221601Y413072D01*
X221544Y413040D01*
X221490Y413005D01*
X221438Y412967D01*
X221388Y412925D01*
X221341Y412881D01*
X221297Y412834D01*
X221255Y412784D01*
X221217Y412732D01*
X221182Y412678D01*
X221150Y412621D01*
X221121Y412563D01*
X221097Y412503D01*
X221076Y412442D01*
X221058Y412380D01*
X221045Y412316D01*
X221035Y412252D01*
X221029Y412188D01*
X221027Y412123D01*
X221026Y412123D02*
X221026Y411050D01*
X196610Y594160D02*
X166610Y594160D01*
D11*
X153610Y579660D02*
X153612Y579723D01*
X153618Y579785D01*
X153628Y579847D01*
X153641Y579909D01*
X153659Y579969D01*
X153680Y580028D01*
X153705Y580086D01*
X153734Y580142D01*
X153766Y580196D01*
X153801Y580248D01*
X153839Y580297D01*
X153881Y580345D01*
X153925Y580389D01*
X153973Y580431D01*
X154022Y580469D01*
X154074Y580504D01*
X154128Y580536D01*
X154184Y580565D01*
X154242Y580590D01*
X154301Y580611D01*
X154361Y580629D01*
X154423Y580642D01*
X154485Y580652D01*
X154547Y580658D01*
X154610Y580660D01*
X154673Y580658D01*
X154735Y580652D01*
X154797Y580642D01*
X154859Y580629D01*
X154919Y580611D01*
X154978Y580590D01*
X155036Y580565D01*
X155092Y580536D01*
X155146Y580504D01*
X155198Y580469D01*
X155247Y580431D01*
X155295Y580389D01*
X155339Y580345D01*
X155381Y580297D01*
X155419Y580248D01*
X155454Y580196D01*
X155486Y580142D01*
X155515Y580086D01*
X155540Y580028D01*
X155561Y579969D01*
X155579Y579909D01*
X155592Y579847D01*
X155602Y579785D01*
X155608Y579723D01*
X155610Y579660D01*
X155608Y579597D01*
X155602Y579535D01*
X155592Y579473D01*
X155579Y579411D01*
X155561Y579351D01*
X155540Y579292D01*
X155515Y579234D01*
X155486Y579178D01*
X155454Y579124D01*
X155419Y579072D01*
X155381Y579023D01*
X155339Y578975D01*
X155295Y578931D01*
X155247Y578889D01*
X155198Y578851D01*
X155146Y578816D01*
X155092Y578784D01*
X155036Y578755D01*
X154978Y578730D01*
X154919Y578709D01*
X154859Y578691D01*
X154797Y578678D01*
X154735Y578668D01*
X154673Y578662D01*
X154610Y578660D01*
X154547Y578662D01*
X154485Y578668D01*
X154423Y578678D01*
X154361Y578691D01*
X154301Y578709D01*
X154242Y578730D01*
X154184Y578755D01*
X154128Y578784D01*
X154074Y578816D01*
X154022Y578851D01*
X153973Y578889D01*
X153925Y578931D01*
X153881Y578975D01*
X153839Y579023D01*
X153801Y579072D01*
X153766Y579124D01*
X153734Y579178D01*
X153705Y579234D01*
X153680Y579292D01*
X153659Y579351D01*
X153641Y579411D01*
X153628Y579473D01*
X153618Y579535D01*
X153612Y579597D01*
X153610Y579660D01*
D10*
X166610Y569160D02*
X196610Y569160D01*
D12*
X197028Y555064D02*
X197030Y554965D01*
X197036Y554865D01*
X197045Y554766D01*
X197058Y554668D01*
X197075Y554570D01*
X197096Y554472D01*
X197121Y554376D01*
X197149Y554281D01*
X197181Y554187D01*
X197216Y554094D01*
X197255Y554002D01*
X197298Y553912D01*
X197343Y553824D01*
X197393Y553737D01*
X197445Y553653D01*
X197501Y553570D01*
X197559Y553490D01*
X197621Y553412D01*
X197686Y553337D01*
X197754Y553264D01*
X197824Y553194D01*
X197897Y553126D01*
X197972Y553061D01*
X198050Y552999D01*
X198130Y552941D01*
X198213Y552885D01*
X198297Y552833D01*
X198384Y552783D01*
X198472Y552738D01*
X198562Y552695D01*
X198654Y552656D01*
X198747Y552621D01*
X198841Y552589D01*
X198936Y552561D01*
X199032Y552536D01*
X199130Y552515D01*
X199228Y552498D01*
X199326Y552485D01*
X199425Y552476D01*
X199525Y552470D01*
X199624Y552468D01*
X199768Y552470D01*
X199913Y552476D01*
X200057Y552485D01*
X200200Y552498D01*
X200344Y552515D01*
X200487Y552536D01*
X200629Y552561D01*
X200770Y552589D01*
X200911Y552621D01*
X201051Y552657D01*
X201190Y552696D01*
X201328Y552739D01*
X201464Y552786D01*
X201600Y552836D01*
X201734Y552890D01*
X201866Y552947D01*
X201997Y553008D01*
X202126Y553072D01*
X202254Y553140D01*
X202380Y553211D01*
X202504Y553285D01*
X202625Y553362D01*
X202745Y553443D01*
X202863Y553526D01*
X202978Y553613D01*
X203091Y553703D01*
X203202Y553796D01*
X203310Y553891D01*
X203416Y553990D01*
X203519Y554091D01*
X203194Y561556D02*
X203192Y561655D01*
X203186Y561755D01*
X203177Y561854D01*
X203164Y561952D01*
X203147Y562050D01*
X203126Y562148D01*
X203101Y562244D01*
X203073Y562339D01*
X203041Y562433D01*
X203006Y562526D01*
X202967Y562618D01*
X202924Y562708D01*
X202879Y562796D01*
X202829Y562883D01*
X202777Y562967D01*
X202721Y563050D01*
X202663Y563130D01*
X202601Y563208D01*
X202536Y563283D01*
X202468Y563356D01*
X202398Y563426D01*
X202325Y563494D01*
X202250Y563559D01*
X202172Y563621D01*
X202092Y563679D01*
X202009Y563735D01*
X201925Y563787D01*
X201838Y563837D01*
X201750Y563882D01*
X201660Y563925D01*
X201568Y563964D01*
X201475Y563999D01*
X201381Y564031D01*
X201286Y564059D01*
X201190Y564084D01*
X201092Y564105D01*
X200994Y564122D01*
X200896Y564135D01*
X200797Y564144D01*
X200697Y564150D01*
X200598Y564152D01*
X200462Y564150D01*
X200326Y564144D01*
X200190Y564135D01*
X200054Y564122D01*
X199919Y564104D01*
X199785Y564084D01*
X199651Y564059D01*
X199517Y564031D01*
X199385Y563998D01*
X199254Y563963D01*
X199123Y563923D01*
X198994Y563880D01*
X198866Y563834D01*
X198740Y563783D01*
X198614Y563730D01*
X198491Y563672D01*
X198369Y563612D01*
X198249Y563548D01*
X198130Y563480D01*
X198014Y563410D01*
X197900Y563336D01*
X197787Y563259D01*
X197677Y563178D01*
X201897Y559284D02*
X201983Y559337D01*
X202067Y559394D01*
X202149Y559453D01*
X202229Y559516D01*
X202306Y559582D01*
X202381Y559650D01*
X202453Y559722D01*
X202522Y559796D01*
X202588Y559873D01*
X202651Y559952D01*
X202711Y560034D01*
X202768Y560118D01*
X202822Y560204D01*
X202872Y560292D01*
X202919Y560382D01*
X202963Y560473D01*
X203002Y560567D01*
X203039Y560661D01*
X203071Y560757D01*
X203100Y560855D01*
X203125Y560953D01*
X203146Y561052D01*
X203164Y561152D01*
X203177Y561252D01*
X203187Y561353D01*
X203193Y561455D01*
X203195Y561556D01*
X198326Y557336D02*
X198240Y557283D01*
X198156Y557226D01*
X198074Y557167D01*
X197994Y557104D01*
X197917Y557038D01*
X197842Y556970D01*
X197770Y556898D01*
X197701Y556824D01*
X197635Y556747D01*
X197572Y556668D01*
X197512Y556586D01*
X197455Y556502D01*
X197401Y556416D01*
X197351Y556328D01*
X197304Y556238D01*
X197260Y556147D01*
X197221Y556053D01*
X197184Y555959D01*
X197152Y555863D01*
X197123Y555765D01*
X197098Y555667D01*
X197077Y555568D01*
X197059Y555468D01*
X197046Y555368D01*
X197036Y555267D01*
X197030Y555165D01*
X197028Y555064D01*
X198326Y557336D02*
X201896Y559284D01*
X192470Y561556D02*
X189225Y564152D01*
X189225Y552468D01*
X192470Y552468D02*
X185979Y552468D01*
X181534Y551170D02*
X176341Y551170D01*
X171493Y552468D02*
X166300Y552468D01*
X171493Y552468D02*
X171493Y564152D01*
X166300Y564152D01*
X167598Y558959D02*
X171493Y558959D01*
X161609Y564152D02*
X161609Y552468D01*
X155118Y552468D02*
X161609Y564152D01*
X155118Y564152D02*
X155118Y552468D01*
D10*
X166610Y505260D02*
X196610Y505260D01*
D11*
X153610Y490760D02*
X153612Y490823D01*
X153618Y490885D01*
X153628Y490947D01*
X153641Y491009D01*
X153659Y491069D01*
X153680Y491128D01*
X153705Y491186D01*
X153734Y491242D01*
X153766Y491296D01*
X153801Y491348D01*
X153839Y491397D01*
X153881Y491445D01*
X153925Y491489D01*
X153973Y491531D01*
X154022Y491569D01*
X154074Y491604D01*
X154128Y491636D01*
X154184Y491665D01*
X154242Y491690D01*
X154301Y491711D01*
X154361Y491729D01*
X154423Y491742D01*
X154485Y491752D01*
X154547Y491758D01*
X154610Y491760D01*
X154673Y491758D01*
X154735Y491752D01*
X154797Y491742D01*
X154859Y491729D01*
X154919Y491711D01*
X154978Y491690D01*
X155036Y491665D01*
X155092Y491636D01*
X155146Y491604D01*
X155198Y491569D01*
X155247Y491531D01*
X155295Y491489D01*
X155339Y491445D01*
X155381Y491397D01*
X155419Y491348D01*
X155454Y491296D01*
X155486Y491242D01*
X155515Y491186D01*
X155540Y491128D01*
X155561Y491069D01*
X155579Y491009D01*
X155592Y490947D01*
X155602Y490885D01*
X155608Y490823D01*
X155610Y490760D01*
X155608Y490697D01*
X155602Y490635D01*
X155592Y490573D01*
X155579Y490511D01*
X155561Y490451D01*
X155540Y490392D01*
X155515Y490334D01*
X155486Y490278D01*
X155454Y490224D01*
X155419Y490172D01*
X155381Y490123D01*
X155339Y490075D01*
X155295Y490031D01*
X155247Y489989D01*
X155198Y489951D01*
X155146Y489916D01*
X155092Y489884D01*
X155036Y489855D01*
X154978Y489830D01*
X154919Y489809D01*
X154859Y489791D01*
X154797Y489778D01*
X154735Y489768D01*
X154673Y489762D01*
X154610Y489760D01*
X154547Y489762D01*
X154485Y489768D01*
X154423Y489778D01*
X154361Y489791D01*
X154301Y489809D01*
X154242Y489830D01*
X154184Y489855D01*
X154128Y489884D01*
X154074Y489916D01*
X154022Y489951D01*
X153973Y489989D01*
X153925Y490031D01*
X153881Y490075D01*
X153839Y490123D01*
X153801Y490172D01*
X153766Y490224D01*
X153734Y490278D01*
X153705Y490334D01*
X153680Y490392D01*
X153659Y490451D01*
X153641Y490511D01*
X153628Y490573D01*
X153618Y490635D01*
X153612Y490697D01*
X153610Y490760D01*
D10*
X166610Y480260D02*
X196610Y480260D01*
D12*
X229032Y466164D02*
X229034Y466065D01*
X229040Y465965D01*
X229049Y465866D01*
X229062Y465768D01*
X229079Y465670D01*
X229100Y465572D01*
X229125Y465476D01*
X229153Y465381D01*
X229185Y465287D01*
X229220Y465194D01*
X229259Y465102D01*
X229302Y465012D01*
X229347Y464924D01*
X229397Y464837D01*
X229449Y464753D01*
X229505Y464670D01*
X229563Y464590D01*
X229625Y464512D01*
X229690Y464437D01*
X229758Y464364D01*
X229828Y464294D01*
X229901Y464226D01*
X229976Y464161D01*
X230054Y464099D01*
X230134Y464041D01*
X230217Y463985D01*
X230301Y463933D01*
X230388Y463883D01*
X230476Y463838D01*
X230566Y463795D01*
X230658Y463756D01*
X230751Y463721D01*
X230845Y463689D01*
X230940Y463661D01*
X231036Y463636D01*
X231134Y463615D01*
X231232Y463598D01*
X231330Y463585D01*
X231429Y463576D01*
X231529Y463570D01*
X231628Y463568D01*
X231772Y463570D01*
X231917Y463576D01*
X232061Y463585D01*
X232204Y463598D01*
X232348Y463615D01*
X232491Y463636D01*
X232633Y463661D01*
X232774Y463689D01*
X232915Y463721D01*
X233055Y463757D01*
X233194Y463796D01*
X233332Y463839D01*
X233468Y463886D01*
X233604Y463936D01*
X233738Y463990D01*
X233870Y464047D01*
X234001Y464108D01*
X234130Y464172D01*
X234258Y464240D01*
X234384Y464311D01*
X234508Y464385D01*
X234629Y464462D01*
X234749Y464543D01*
X234867Y464626D01*
X234982Y464713D01*
X235095Y464803D01*
X235206Y464896D01*
X235314Y464991D01*
X235420Y465090D01*
X235523Y465191D01*
X235198Y472656D02*
X235196Y472755D01*
X235190Y472855D01*
X235181Y472954D01*
X235168Y473052D01*
X235151Y473150D01*
X235130Y473248D01*
X235105Y473344D01*
X235077Y473439D01*
X235045Y473533D01*
X235010Y473626D01*
X234971Y473718D01*
X234928Y473808D01*
X234883Y473896D01*
X234833Y473983D01*
X234781Y474067D01*
X234725Y474150D01*
X234667Y474230D01*
X234605Y474308D01*
X234540Y474383D01*
X234472Y474456D01*
X234402Y474526D01*
X234329Y474594D01*
X234254Y474659D01*
X234176Y474721D01*
X234096Y474779D01*
X234013Y474835D01*
X233929Y474887D01*
X233842Y474937D01*
X233754Y474982D01*
X233664Y475025D01*
X233572Y475064D01*
X233479Y475099D01*
X233385Y475131D01*
X233290Y475159D01*
X233194Y475184D01*
X233096Y475205D01*
X232998Y475222D01*
X232900Y475235D01*
X232801Y475244D01*
X232701Y475250D01*
X232602Y475252D01*
X232466Y475250D01*
X232330Y475244D01*
X232194Y475235D01*
X232058Y475222D01*
X231923Y475204D01*
X231789Y475184D01*
X231655Y475159D01*
X231521Y475131D01*
X231389Y475098D01*
X231258Y475063D01*
X231127Y475023D01*
X230998Y474980D01*
X230870Y474934D01*
X230744Y474883D01*
X230618Y474830D01*
X230495Y474772D01*
X230373Y474712D01*
X230253Y474648D01*
X230134Y474580D01*
X230018Y474510D01*
X229904Y474436D01*
X229791Y474359D01*
X229681Y474278D01*
X233900Y470384D02*
X233986Y470437D01*
X234070Y470494D01*
X234152Y470553D01*
X234232Y470616D01*
X234309Y470682D01*
X234384Y470750D01*
X234456Y470822D01*
X234525Y470896D01*
X234591Y470973D01*
X234654Y471052D01*
X234714Y471134D01*
X234771Y471218D01*
X234825Y471304D01*
X234875Y471392D01*
X234922Y471482D01*
X234966Y471573D01*
X235005Y471667D01*
X235042Y471761D01*
X235074Y471857D01*
X235103Y471955D01*
X235128Y472053D01*
X235149Y472152D01*
X235167Y472252D01*
X235180Y472352D01*
X235190Y472453D01*
X235196Y472555D01*
X235198Y472656D01*
X230330Y468436D02*
X230244Y468383D01*
X230160Y468326D01*
X230078Y468267D01*
X229998Y468204D01*
X229921Y468138D01*
X229846Y468070D01*
X229774Y467998D01*
X229705Y467924D01*
X229639Y467847D01*
X229576Y467768D01*
X229516Y467686D01*
X229459Y467602D01*
X229405Y467516D01*
X229355Y467428D01*
X229308Y467338D01*
X229264Y467247D01*
X229225Y467153D01*
X229188Y467059D01*
X229156Y466963D01*
X229127Y466865D01*
X229102Y466767D01*
X229081Y466668D01*
X229063Y466568D01*
X229050Y466468D01*
X229040Y466367D01*
X229034Y466265D01*
X229032Y466164D01*
X230330Y468436D02*
X233900Y470384D01*
X220904Y475252D02*
X220797Y475250D01*
X220691Y475244D01*
X220585Y475234D01*
X220479Y475221D01*
X220373Y475203D01*
X220269Y475182D01*
X220165Y475157D01*
X220062Y475128D01*
X219961Y475096D01*
X219861Y475059D01*
X219762Y475019D01*
X219664Y474976D01*
X219568Y474929D01*
X219474Y474878D01*
X219382Y474824D01*
X219292Y474767D01*
X219204Y474707D01*
X219119Y474643D01*
X219036Y474576D01*
X218955Y474506D01*
X218877Y474434D01*
X218801Y474358D01*
X218729Y474280D01*
X218659Y474199D01*
X218592Y474116D01*
X218528Y474031D01*
X218468Y473943D01*
X218411Y473853D01*
X218357Y473761D01*
X218306Y473667D01*
X218259Y473571D01*
X218216Y473473D01*
X218176Y473374D01*
X218139Y473274D01*
X218107Y473173D01*
X218078Y473070D01*
X218053Y472966D01*
X218032Y472862D01*
X218014Y472756D01*
X218001Y472650D01*
X217991Y472544D01*
X217985Y472438D01*
X217983Y472331D01*
X220904Y475252D02*
X221025Y475250D01*
X221146Y475244D01*
X221266Y475234D01*
X221387Y475221D01*
X221506Y475203D01*
X221626Y475182D01*
X221744Y475157D01*
X221861Y475128D01*
X221978Y475095D01*
X222093Y475059D01*
X222207Y475018D01*
X222320Y474975D01*
X222432Y474927D01*
X222541Y474876D01*
X222649Y474821D01*
X222756Y474763D01*
X222860Y474702D01*
X222962Y474637D01*
X223062Y474569D01*
X223160Y474498D01*
X223256Y474424D01*
X223349Y474347D01*
X223439Y474266D01*
X223527Y474183D01*
X223612Y474097D01*
X223695Y474008D01*
X223774Y473917D01*
X223851Y473823D01*
X223924Y473727D01*
X223994Y473629D01*
X224061Y473528D01*
X224125Y473425D01*
X224186Y473320D01*
X224243Y473213D01*
X224296Y473105D01*
X224346Y472995D01*
X224392Y472883D01*
X224435Y472770D01*
X224474Y472655D01*
X218957Y470059D02*
X218878Y470137D01*
X218802Y470217D01*
X218729Y470300D01*
X218659Y470386D01*
X218592Y470473D01*
X218528Y470564D01*
X218468Y470656D01*
X218410Y470750D01*
X218356Y470847D01*
X218306Y470945D01*
X218259Y471045D01*
X218215Y471146D01*
X218175Y471249D01*
X218139Y471354D01*
X218107Y471459D01*
X218078Y471566D01*
X218053Y471673D01*
X218031Y471782D01*
X218014Y471891D01*
X218000Y472000D01*
X217991Y472110D01*
X217985Y472221D01*
X217983Y472331D01*
X218957Y470059D02*
X224474Y463568D01*
X217983Y463568D01*
X213538Y462270D02*
X208345Y462270D01*
X203496Y463568D02*
X203496Y475252D01*
X198304Y475252D01*
X198304Y470059D02*
X203496Y470059D01*
X193590Y475252D02*
X193590Y463568D01*
X188398Y463568D01*
X184737Y463568D02*
X180843Y475252D01*
X176948Y463568D01*
X177922Y466489D02*
X183764Y466489D01*
X169144Y463568D02*
X169045Y463570D01*
X168945Y463576D01*
X168846Y463585D01*
X168748Y463598D01*
X168650Y463615D01*
X168552Y463636D01*
X168456Y463661D01*
X168361Y463689D01*
X168267Y463721D01*
X168174Y463756D01*
X168082Y463795D01*
X167992Y463838D01*
X167904Y463883D01*
X167817Y463933D01*
X167733Y463985D01*
X167650Y464041D01*
X167570Y464099D01*
X167492Y464161D01*
X167417Y464226D01*
X167344Y464294D01*
X167274Y464364D01*
X167206Y464437D01*
X167141Y464512D01*
X167079Y464590D01*
X167021Y464670D01*
X166965Y464753D01*
X166913Y464837D01*
X166863Y464924D01*
X166818Y465012D01*
X166775Y465102D01*
X166736Y465194D01*
X166701Y465287D01*
X166669Y465381D01*
X166641Y465476D01*
X166616Y465572D01*
X166595Y465670D01*
X166578Y465768D01*
X166565Y465866D01*
X166556Y465965D01*
X166550Y466065D01*
X166548Y466164D01*
X169144Y463568D02*
X169288Y463570D01*
X169433Y463576D01*
X169577Y463585D01*
X169720Y463598D01*
X169864Y463615D01*
X170007Y463636D01*
X170149Y463661D01*
X170290Y463689D01*
X170431Y463721D01*
X170571Y463757D01*
X170710Y463796D01*
X170848Y463839D01*
X170984Y463886D01*
X171120Y463936D01*
X171254Y463990D01*
X171386Y464047D01*
X171517Y464108D01*
X171646Y464172D01*
X171774Y464240D01*
X171900Y464311D01*
X172024Y464385D01*
X172145Y464462D01*
X172265Y464543D01*
X172383Y464626D01*
X172498Y464713D01*
X172611Y464803D01*
X172722Y464896D01*
X172830Y464991D01*
X172936Y465090D01*
X173039Y465191D01*
X172714Y472656D02*
X172712Y472755D01*
X172706Y472855D01*
X172697Y472954D01*
X172684Y473052D01*
X172667Y473150D01*
X172646Y473248D01*
X172621Y473344D01*
X172593Y473439D01*
X172561Y473533D01*
X172526Y473626D01*
X172487Y473718D01*
X172444Y473808D01*
X172399Y473896D01*
X172349Y473983D01*
X172297Y474067D01*
X172241Y474150D01*
X172183Y474230D01*
X172121Y474308D01*
X172056Y474383D01*
X171988Y474456D01*
X171918Y474526D01*
X171845Y474594D01*
X171770Y474659D01*
X171692Y474721D01*
X171612Y474779D01*
X171529Y474835D01*
X171445Y474887D01*
X171358Y474937D01*
X171270Y474982D01*
X171180Y475025D01*
X171088Y475064D01*
X170995Y475099D01*
X170901Y475131D01*
X170806Y475159D01*
X170710Y475184D01*
X170612Y475205D01*
X170514Y475222D01*
X170416Y475235D01*
X170317Y475244D01*
X170217Y475250D01*
X170118Y475252D01*
X169982Y475250D01*
X169846Y475244D01*
X169710Y475235D01*
X169574Y475222D01*
X169439Y475204D01*
X169305Y475184D01*
X169171Y475159D01*
X169037Y475131D01*
X168905Y475098D01*
X168774Y475063D01*
X168643Y475023D01*
X168514Y474980D01*
X168386Y474934D01*
X168260Y474883D01*
X168134Y474830D01*
X168011Y474772D01*
X167889Y474712D01*
X167769Y474648D01*
X167650Y474580D01*
X167534Y474510D01*
X167420Y474436D01*
X167307Y474359D01*
X167197Y474278D01*
X171417Y470384D02*
X171503Y470437D01*
X171587Y470494D01*
X171669Y470553D01*
X171749Y470616D01*
X171826Y470682D01*
X171901Y470750D01*
X171973Y470822D01*
X172042Y470896D01*
X172108Y470973D01*
X172171Y471052D01*
X172231Y471134D01*
X172288Y471218D01*
X172342Y471304D01*
X172392Y471392D01*
X172439Y471482D01*
X172483Y471573D01*
X172522Y471667D01*
X172559Y471761D01*
X172591Y471857D01*
X172620Y471955D01*
X172645Y472053D01*
X172666Y472152D01*
X172684Y472252D01*
X172697Y472352D01*
X172707Y472453D01*
X172713Y472555D01*
X172715Y472656D01*
X167846Y468436D02*
X167760Y468383D01*
X167676Y468326D01*
X167594Y468267D01*
X167514Y468204D01*
X167437Y468138D01*
X167362Y468070D01*
X167290Y467998D01*
X167221Y467924D01*
X167155Y467847D01*
X167092Y467768D01*
X167032Y467686D01*
X166975Y467602D01*
X166921Y467516D01*
X166871Y467428D01*
X166824Y467338D01*
X166780Y467247D01*
X166741Y467153D01*
X166704Y467059D01*
X166672Y466963D01*
X166643Y466865D01*
X166618Y466767D01*
X166597Y466668D01*
X166579Y466568D01*
X166566Y466468D01*
X166556Y466367D01*
X166550Y466265D01*
X166548Y466164D01*
X167846Y468436D02*
X171416Y470384D01*
X161609Y475252D02*
X161609Y463568D01*
X161609Y470059D02*
X155118Y470059D01*
X155118Y475252D02*
X155118Y463568D01*
M02*
