G04 EAGLE Gerber RS-274X export*
G75*
%MOMM*%
%FSLAX34Y34*%
%LPD*%
%INSoldermask Bottom*%
%IPPOS*%
%AMOC8*
5,1,8,0,0,1.08239X$1,22.5*%
G01*
%ADD10C,2.082800*%
%ADD11R,0.803200X1.003200*%
%ADD12R,0.803200X0.803200*%
%ADD13R,1.003200X1.903200*%
%ADD14C,1.854200*%
%ADD15R,1.854200X1.854200*%
%ADD16C,2.082800*%


D10*
X-22098Y609600D02*
X-3302Y609600D01*
X-3302Y584200D02*
X-22098Y584200D01*
X-22098Y558800D02*
X-3302Y558800D01*
X-3302Y533400D02*
X-22098Y533400D01*
X-22098Y508000D02*
X-3302Y508000D01*
X-3302Y482600D02*
X-22098Y482600D01*
X-22098Y457200D02*
X-3302Y457200D01*
X-3302Y431800D02*
X-22098Y431800D01*
D11*
X165100Y556200D03*
X174600Y536000D03*
X155600Y536000D03*
X165100Y467300D03*
X174600Y447100D03*
X155600Y447100D03*
D12*
X189230Y537130D03*
X189230Y527130D03*
X187960Y447120D03*
X187960Y457120D03*
X152400Y580470D03*
X152400Y590470D03*
X152400Y490300D03*
X152400Y500300D03*
X140890Y488950D03*
X130890Y488950D03*
X212090Y401400D03*
X212090Y411400D03*
D13*
X164610Y581660D03*
X198610Y581660D03*
X164610Y492760D03*
X198610Y492760D03*
D10*
X38100Y276098D02*
X38100Y257302D01*
X63500Y257302D02*
X63500Y276098D01*
X88900Y276098D02*
X88900Y257302D01*
X114300Y257302D02*
X114300Y276098D01*
D14*
X177600Y342900D03*
D15*
X152600Y342900D03*
D16*
X22606Y375412D03*
X22606Y310388D03*
X-22606Y375412D03*
X-22606Y310388D03*
M02*
